<svg width="22" height="22" viewBox="0 0 22 22" fill="none" xmlns="http://www.w3.org/2000/svg">
<path d="M20.1667 19.4792H1.83337C1.45754 19.4792 1.14587 19.7909 1.14587 20.1667C1.14587 20.5426 1.45754 20.8542 1.83337 20.8542H20.1667C20.5425 20.8542 20.8542 20.5426 20.8542 20.1667C20.8542 19.7909 20.5425 19.4792 20.1667 19.4792Z" fill="#FF9F71"/>
<path d="M15.5833 1.83325H6.41667C3.66667 1.83325 2.75 3.47409 2.75 5.49992V20.1666H19.25V5.49992C19.25 3.47409 18.3333 1.83325 15.5833 1.83325ZM9.16667 15.8124H6.41667C6.04083 15.8124 5.72917 15.5008 5.72917 15.1249C5.72917 14.7491 6.04083 14.4374 6.41667 14.4374H9.16667C9.5425 14.4374 9.85417 14.7491 9.85417 15.1249C9.85417 15.5008 9.5425 15.8124 9.16667 15.8124ZM9.16667 11.6874H6.41667C6.04083 11.6874 5.72917 11.3758 5.72917 10.9999C5.72917 10.6241 6.04083 10.3124 6.41667 10.3124H9.16667C9.5425 10.3124 9.85417 10.6241 9.85417 10.9999C9.85417 11.3758 9.5425 11.6874 9.16667 11.6874ZM9.16667 7.56242H6.41667C6.04083 7.56242 5.72917 7.25075 5.72917 6.87492C5.72917 6.49908 6.04083 6.18742 6.41667 6.18742H9.16667C9.5425 6.18742 9.85417 6.49908 9.85417 6.87492C9.85417 7.25075 9.5425 7.56242 9.16667 7.56242ZM15.5833 15.8124H12.8333C12.4575 15.8124 12.1458 15.5008 12.1458 15.1249C12.1458 14.7491 12.4575 14.4374 12.8333 14.4374H15.5833C15.9592 14.4374 16.2708 14.7491 16.2708 15.1249C16.2708 15.5008 15.9592 15.8124 15.5833 15.8124ZM15.5833 11.6874H12.8333C12.4575 11.6874 12.1458 11.3758 12.1458 10.9999C12.1458 10.6241 12.4575 10.3124 12.8333 10.3124H15.5833C15.9592 10.3124 16.2708 10.6241 16.2708 10.9999C16.2708 11.3758 15.9592 11.6874 15.5833 11.6874ZM15.5833 7.56242H12.8333C12.4575 7.56242 12.1458 7.25075 12.1458 6.87492C12.1458 6.49908 12.4575 6.18742 12.8333 6.18742H15.5833C15.9592 6.18742 16.2708 6.49908 16.2708 6.87492C16.2708 7.25075 15.9592 7.56242 15.5833 7.56242Z" fill="#FF9F71"/>
</svg>
