<svg width="16" height="16" viewBox="0 0 16 16" fill="none" xmlns="http://www.w3.org/2000/svg">
<path d="M11.9999 3.99967C11.5933 3.99967 11.2199 3.76634 11.0333 3.40634L10.5533 2.43967C10.2466 1.83301 9.44662 1.33301 8.76662 1.33301H7.23995C6.55328 1.33301 5.75328 1.83301 5.44662 2.43967L4.96662 3.40634C4.77995 3.76634 4.40662 3.99967 3.99995 3.99967C2.55328 3.99967 1.40662 5.21967 1.49995 6.65967L1.84662 12.1663C1.92662 13.5397 2.66662 14.6663 4.50662 14.6663H11.4933C13.3333 14.6663 14.0666 13.5397 14.1533 12.1663L14.4999 6.65967C14.5933 5.21967 13.4466 3.99967 11.9999 3.99967ZM6.99995 4.83301H8.99995C9.27328 4.83301 9.49995 5.05967 9.49995 5.33301C9.49995 5.60634 9.27328 5.83301 8.99995 5.83301H6.99995C6.72662 5.83301 6.49995 5.60634 6.49995 5.33301C6.49995 5.05967 6.72662 4.83301 6.99995 4.83301ZM7.99995 12.0797C6.75995 12.0797 5.74662 11.073 5.74662 9.82634C5.74662 8.57967 6.75328 7.57301 7.99995 7.57301C9.24662 7.57301 10.2533 8.57967 10.2533 9.82634C10.2533 11.073 9.23995 12.0797 7.99995 12.0797Z" fill="white"/>
</svg>
