<svg width="40" height="40" viewBox="0 0 40 40" fill="none" xmlns="http://www.w3.org/2000/svg">
<rect width="40" height="40" rx="20" fill="#ECF4FF"/>
<path d="M24.1666 11.667H15.8333C13.5333 11.667 11.6666 13.5253 11.6666 15.817V20.8003V21.6337C11.6666 23.9253 13.5333 25.7837 15.8333 25.7837H17.0833C17.3083 25.7837 17.6083 25.9337 17.75 26.117L19 27.7753C19.55 28.5087 20.45 28.5087 21 27.7753L22.25 26.117C22.4083 25.9087 22.6583 25.7837 22.9166 25.7837H24.1666C26.4666 25.7837 28.3333 23.9253 28.3333 21.6337V15.817C28.3333 13.5253 26.4666 11.667 24.1666 11.667ZM16.6666 20.0003C16.2 20.0003 15.8333 19.6253 15.8333 19.167C15.8333 18.7087 16.2083 18.3337 16.6666 18.3337C17.125 18.3337 17.5 18.7087 17.5 19.167C17.5 19.6253 17.1333 20.0003 16.6666 20.0003ZM20 20.0003C19.5333 20.0003 19.1666 19.6253 19.1666 19.167C19.1666 18.7087 19.5416 18.3337 20 18.3337C20.4583 18.3337 20.8333 18.7087 20.8333 19.167C20.8333 19.6253 20.4666 20.0003 20 20.0003ZM23.3333 20.0003C22.8666 20.0003 22.5 19.6253 22.5 19.167C22.5 18.7087 22.875 18.3337 23.3333 18.3337C23.7916 18.3337 24.1666 18.7087 24.1666 19.167C24.1666 19.6253 23.8 20.0003 23.3333 20.0003Z" fill="#348CFF"/>
</svg>
