<svg width="24" height="24" viewBox="0 0 24 24" fill="none" xmlns="http://www.w3.org/2000/svg">
<path d="M15.2483 12.0002L21.5365 5.71206C22.4335 4.81506 22.4335 3.36077 21.5365 2.46377C20.6394 1.56677 19.1852 1.56677 18.2882 2.46377L12 8.75195L5.71182 2.46377C4.81482 1.56677 3.36052 1.56677 2.46352 2.46377C1.56652 3.36077 1.56652 4.81506 2.46352 5.71206L8.75171 12.0002L2.46352 18.2884C1.56652 19.1854 1.56652 20.6397 2.46352 21.5367C2.91202 21.9852 3.49983 22.2095 4.08765 22.2095C4.67546 22.2095 5.26332 21.9852 5.71177 21.5367L12 15.2485L18.2882 21.5367C18.7367 21.9852 19.3245 22.2095 19.9123 22.2095C20.5001 22.2095 21.0879 21.9852 21.5364 21.5367C22.4334 20.6397 22.4334 19.1854 21.5364 18.2884L15.2483 12.0002Z" fill="#494949"/>
</svg>
