<svg width="42" height="40" viewBox="0 0 42 40" fill="none" xmlns="http://www.w3.org/2000/svg">
<circle cx="21" cy="20" r="20" fill="#16AD64"/>
<path d="M33.568 7.4499L33.568 7.44987L33.5624 7.45541L16.1017 24.6966L8.41629 17.1078C6.78557 15.4976 4.13197 15.5054 2.48036 17.1023L2.48033 17.1022L2.47472 17.1078C0.83867 18.7233 0.846714 21.3597 2.46913 22.9958L2.4691 22.9958L2.47472 23.0013L13.1309 33.5235C13.9229 34.3055 14.9923 34.75 16.1017 34.75C17.2111 34.75 18.2805 34.3055 19.0725 33.5235L39.504 13.349C41.1612 11.7125 41.1704 9.06953 39.5012 7.45263C37.8702 5.84521 35.2187 5.85395 33.568 7.4499Z" fill="white" stroke="white" stroke-width="1.5"/>
</svg>
