<svg width="25" height="24" viewBox="0 0 25 24" fill="none" xmlns="http://www.w3.org/2000/svg">
<path d="M23.1882 5.92065C23.7 7.88085 23.7 11.9729 23.7 11.9729C23.7 11.9729 23.7 16.0649 23.1882 18.0251C22.9037 19.1086 22.0715 19.9611 21.0176 20.2493C19.1035 20.7729 12.5 20.7729 12.5 20.7729C12.5 20.7729 5.89984 20.7729 3.9824 20.2493C2.924 19.9567 2.09296 19.1053 1.81184 18.0251C1.3 16.0649 1.3 11.9729 1.3 11.9729C1.3 11.9729 1.3 7.88085 1.81184 5.92065C2.09632 4.83715 2.92848 3.98465 3.9824 3.69645C5.89984 3.17285 12.5 3.17285 12.5 3.17285C12.5 3.17285 19.1035 3.17285 21.0176 3.69645C22.076 3.98905 22.907 4.84045 23.1882 5.92065ZM10.26 15.8229L16.98 11.9729L10.26 8.12285V15.8229Z" fill="#242424"/>
</svg>
