<svg width="15" height="14" viewBox="0 0 15 14" fill="none" xmlns="http://www.w3.org/2000/svg">
<path d="M5.13702 7.08778L1.17294 3.1237C0.498342 2.4491 0.498342 1.35525 1.17294 0.680644C1.84755 0.00572537 2.9414 0.00572537 3.61569 0.680644L7.5804 4.64472L11.5511 0.673683C12.2257 -0.000602528 13.3193 -0.000602528 13.9939 0.673683C14.6688 1.34828 14.6688 2.44214 13.9939 3.11674L10.0231 7.08778L13.9831 11.0477C14.6577 11.722 14.6577 12.8162 13.9831 13.4905C13.3082 14.1651 12.2146 14.1651 11.5397 13.4905L7.5804 9.53084L3.61853 13.4921C2.94393 14.1667 1.85039 14.1667 1.17547 13.4921C0.50119 12.8175 0.50119 11.7236 1.17547 11.0493L5.13702 7.08778Z" fill="white"/>
</svg>
