<svg width="14" height="14" viewBox="0 0 14 14" fill="none" xmlns="http://www.w3.org/2000/svg">
<path d="M6.5625 4.71338V6.38171L5.97333 6.17755C5.67583 6.07255 5.495 5.97338 5.495 5.46588C5.495 5.05171 5.80416 4.71338 6.18333 4.71338H6.5625Z" fill="#FF7C3C"/>
<path d="M8.505 8.534C8.505 8.94816 8.19583 9.2865 7.81667 9.2865H7.4375V7.61816L8.02667 7.82233C8.32417 7.92733 8.505 8.0265 8.505 8.534Z" fill="#FF7C3C"/>
<path d="M9.44416 1.1665H4.55582C2.43249 1.1665 1.16666 2.43234 1.16666 4.55567V9.444C1.16666 11.5673 2.43249 12.8332 4.55582 12.8332H9.44416C11.5675 12.8332 12.8333 11.5673 12.8333 9.444V4.55567C12.8333 2.43234 11.5675 1.1665 9.44416 1.1665ZM8.31832 6.99984C8.77332 7.15734 9.37999 7.48984 9.37999 8.534C9.37999 9.43234 8.67999 10.1615 7.81666 10.1615H7.43749V10.4998C7.43749 10.739 7.23916 10.9373 6.99999 10.9373C6.76082 10.9373 6.56249 10.739 6.56249 10.4998V10.1615H6.35249C5.39582 10.1615 4.61999 9.35067 4.61999 8.359C4.61999 8.11984 4.81249 7.9215 5.05749 7.9215C5.29666 7.9215 5.49499 8.11984 5.49499 8.359C5.49499 8.87234 5.87999 9.2865 6.35249 9.2865H6.56249V7.309L5.68166 6.99984C5.22666 6.84234 4.61999 6.50984 4.61999 5.46567C4.61999 4.56734 5.31999 3.83817 6.18332 3.83817H6.56249V3.49984C6.56249 3.26067 6.76082 3.06234 6.99999 3.06234C7.23916 3.06234 7.43749 3.26067 7.43749 3.49984V3.83817H7.64749C8.60416 3.83817 9.37999 4.649 9.37999 5.64067C9.37999 5.87984 9.18749 6.07817 8.94249 6.07817C8.70332 6.07817 8.50499 5.87984 8.50499 5.64067C8.50499 5.12734 8.11999 4.71317 7.64749 4.71317H7.43749V6.69067L8.31832 6.99984Z" fill="#FF7C3C"/>
</svg>
