<svg width="36" height="36" viewBox="0 0 36 36" fill="none" xmlns="http://www.w3.org/2000/svg">
<rect x="1" y="1" width="34" height="34" rx="17" fill="#E7E7E7"/>
<path d="M23.4 16.1468C22.1933 16.1468 21.7 15.2935 22.3 14.2468C22.6466 13.6401 22.44 12.8668 21.8333 12.5201L20.68 11.8601C20.1533 11.5468 19.4733 11.7335 19.16 12.2601L19.0866 12.3868C18.4866 13.4335 17.5 13.4335 16.8933 12.3868L16.82 12.2601C16.52 11.7335 15.84 11.5468 15.3133 11.8601L14.16 12.5201C13.5533 12.8668 13.3466 13.6468 13.6933 14.2535C14.3 15.2935 13.8066 16.1468 12.6 16.1468C11.9066 16.1468 11.3333 16.7135 11.3333 17.4135V18.5868C11.3333 19.2801 11.9 19.8535 12.6 19.8535C13.8066 19.8535 14.3 20.7068 13.6933 21.7535C13.3466 22.3601 13.5533 23.1335 14.16 23.4801L15.3133 24.1401C15.84 24.4535 16.52 24.2668 16.8333 23.7401L16.9066 23.6135C17.5066 22.5668 18.4933 22.5668 19.1 23.6135L19.1733 23.7401C19.4866 24.2668 20.1666 24.4535 20.6933 24.1401L21.8466 23.4801C22.4533 23.1335 22.66 22.3535 22.3133 21.7535C21.7066 20.7068 22.2 19.8535 23.4066 19.8535C24.1 19.8535 24.6733 19.2868 24.6733 18.5868V17.4135C24.6666 16.7201 24.1 16.1468 23.4 16.1468ZM18 20.1668C16.8066 20.1668 15.8333 19.1935 15.8333 18.0001C15.8333 16.8068 16.8066 15.8335 18 15.8335C19.1933 15.8335 20.1666 16.8068 20.1666 18.0001C20.1666 19.1935 19.1933 20.1668 18 20.1668Z" fill="#0F70FF"/>
<rect x="1" y="1" width="34" height="34" rx="17" stroke="#0F70FF" stroke-width="2"/>
</svg>
