<svg width="1080" height="1080" viewBox="0 0 1080 1080" fill="none" xmlns="http://www.w3.org/2000/svg">
<g clip-path="url(#clip0_1804_394)">
<path d="M296.67 753.85H244.05C230.646 753.85 219.78 764.716 219.78 778.12V847.69C219.78 861.094 230.646 871.96 244.05 871.96H296.67C310.074 871.96 320.94 861.094 320.94 847.69V778.12C320.94 764.716 310.074 753.85 296.67 753.85Z" fill="white"/>
<path d="M739.75 803H748.14L775.81 803.2C776.403 803.17 776.997 803.17 777.59 803.2C779.2 803.397 780.692 804.146 781.81 805.32C782.929 806.495 783.605 808.021 783.723 809.639C783.841 811.256 783.394 812.865 782.458 814.189C781.522 815.514 780.154 816.472 778.59 816.9C776.984 817.22 775.343 817.321 773.71 817.2C764.64 817.13 755.57 816.99 746.5 816.99C744.19 816.99 741.78 816.59 739.59 817.82C738.99 820 739.36 822.23 739.31 824.43C739.24 828.43 739.23 832.43 739.24 836.43C739.24 837.95 739.49 838.21 741.09 838.25C748.67 838.4 756.26 838.54 763.84 838.61C769.05 838.61 774.25 838.61 779.46 838.61C780.646 838.565 781.833 838.615 783.01 838.76C784.648 838.992 786.136 839.838 787.172 841.127C788.209 842.416 788.716 844.051 788.59 845.7C788.599 847.35 787.998 848.944 786.904 850.179C785.81 851.413 784.299 852.2 782.66 852.39C781.33 852.505 779.995 852.545 778.66 852.51C763.78 852.437 748.903 852.357 734.03 852.27C728.9 852.27 727.03 850.55 725.64 845.51C725.243 844.08 725.041 842.604 725.04 841.12C725.093 829.967 725.137 818.813 725.17 807.66C725.17 800.81 725.17 793.97 725.11 787.13C725.085 783.709 725.305 780.29 725.77 776.9C725.977 774.588 727.022 772.432 728.71 770.838C730.397 769.245 732.61 768.324 734.93 768.25C735.52 768.25 736.12 768.25 736.72 768.19L778.65 767.67C779.838 767.613 781.029 767.656 782.21 767.8C783.929 768.037 785.498 768.904 786.614 770.233C787.729 771.561 788.312 773.257 788.248 774.991C788.185 776.724 787.48 778.373 786.27 779.616C785.06 780.859 783.431 781.609 781.7 781.72C780.52 781.83 779.33 781.77 778.14 781.77L745.14 781.93C743.8 781.93 742.46 781.93 741.14 782C739.61 782.07 739.28 782.38 739.23 783.79C739.23 784.98 739.23 786.17 739.23 787.36C739.27 791.533 739.32 795.697 739.38 799.85C739.35 800.94 739.13 802 739.75 803Z" fill="white"/>
<path d="M252.48 782.25C252.55 789.25 252.61 796.08 252.74 803.03C253.6 803.09 254.16 803.16 254.74 803.16L288.64 803.23C289.38 803.23 290.13 803.23 290.87 803.23C292.529 803.34 294.093 804.042 295.277 805.208C296.462 806.374 297.189 807.927 297.326 809.583C297.463 811.24 297.001 812.891 296.023 814.235C295.046 815.58 293.618 816.529 292 816.91C290.25 817.261 288.46 817.369 286.68 817.23C277.46 817.15 268.243 817.073 259.03 817C257.54 817 256.03 817.07 254.57 817.2C253.11 817.33 252.67 817.59 252.66 819.03C252.66 825.03 252.66 830.93 252.61 836.87C252.584 837.052 252.598 837.238 252.651 837.415C252.704 837.591 252.796 837.754 252.919 837.891C253.042 838.029 253.193 838.137 253.363 838.21C253.532 838.282 253.716 838.316 253.9 838.31C255.68 838.4 257.46 838.52 259.24 838.53C270.1 838.59 280.953 838.637 291.8 838.67C293.285 838.618 294.772 838.671 296.25 838.83C297.893 839.026 299.397 839.845 300.454 841.117C301.511 842.39 302.039 844.019 301.93 845.67C301.969 847.397 301.334 849.072 300.16 850.339C298.986 851.606 297.365 852.367 295.64 852.46C294.01 852.58 292.37 852.55 290.73 852.54L247.9 852.33C247.16 852.33 246.41 852.33 245.68 852.28C244.184 852.186 242.758 851.615 241.612 850.65C240.465 849.685 239.658 848.378 239.31 846.92C238.7 844.932 238.363 842.869 238.31 840.79C238.46 827.7 238.5 814.62 238.54 801.53C238.54 796.77 238.49 792.02 238.44 787.26C238.398 783.839 238.612 780.419 239.08 777.03C239.76 772.03 243.16 768.68 248.19 768.34C250.71 768.17 253.24 768.18 255.77 768.15C267.81 768.01 279.853 767.877 291.9 767.75C293.085 767.695 294.272 767.735 295.45 767.87C297.14 768.132 298.676 769.003 299.767 770.319C300.859 771.635 301.431 773.305 301.375 775.014C301.32 776.723 300.641 778.353 299.467 779.596C298.292 780.838 296.703 781.608 295 781.76C293.82 781.87 292.62 781.76 291.43 781.76C280.277 781.813 269.123 781.867 257.97 781.92C256.134 781.854 254.295 781.964 252.48 782.25Z" fill="url(#paint0_linear_1804_394)"/>
<path d="M598.91 767.58C606.515 767.464 614.029 769.247 620.77 772.77C625.602 775.156 629.605 778.94 632.26 783.63C634.26 787.06 634.35 790.74 633.98 794.44C633.67 797.44 630.98 799.61 627.76 799.79C624.26 799.98 621.43 798.26 620.46 795.18C620.101 794.048 619.918 792.868 619.92 791.68C619.912 790.937 619.738 790.204 619.411 789.537C619.084 788.869 618.612 788.282 618.03 787.82C617.502 787.297 616.937 786.812 616.34 786.37C612.704 783.896 608.59 782.213 604.263 781.429C599.936 780.645 595.492 780.778 591.22 781.82C589.634 782.235 588.146 782.959 586.84 783.95C585.982 784.545 585.273 785.331 584.769 786.246C584.266 787.161 583.981 788.18 583.938 789.223C583.894 790.267 584.093 791.306 584.518 792.26C584.944 793.213 585.584 794.055 586.39 794.72C588.466 796.413 590.812 797.745 593.33 798.66C598.47 800.6 603.64 802.43 608.82 804.26C613.467 805.805 618.032 807.584 622.5 809.59C625.074 810.754 627.515 812.192 629.78 813.88C638.94 820.98 638.51 830.88 633.96 838.53C632.711 840.564 631.109 842.358 629.23 843.83C625.912 846.594 622.14 848.759 618.08 850.23C609.259 853.541 599.683 854.3 590.45 852.42C587.254 851.757 584.205 850.521 581.45 848.77C578.162 846.686 575.577 843.662 574.03 840.09C572.466 836.225 571.326 832.201 570.63 828.09C570.289 826.466 570.587 824.773 571.463 823.363C572.338 821.953 573.723 820.935 575.33 820.52C576.901 820.018 578.596 820.066 580.136 820.657C581.676 821.247 582.968 822.346 583.8 823.77C584.194 824.572 584.502 825.413 584.72 826.28C585.142 827.701 585.476 829.147 585.72 830.61C586.46 835.98 589.81 838.71 594.88 839.44C603.4 840.65 611.47 839.29 618.81 834.62C620.638 833.577 621.987 831.862 622.57 829.84C622.867 828.92 622.891 827.933 622.639 827C622.387 826.066 621.87 825.226 621.15 824.58C619.937 823.477 618.552 822.578 617.05 821.92C612.629 819.812 608.048 818.056 603.35 816.67C597.227 814.834 591.216 812.64 585.35 810.1C581.653 808.489 578.269 806.242 575.35 803.46C567.03 795.52 568.23 781.53 576.05 774.75C581.21 770.28 587.28 768.21 593.94 767.57C595.63 767.45 597.27 767.58 598.91 767.58Z" fill="white"/>
<path d="M676.64 767.58C684.246 767.473 691.759 769.264 698.5 772.79C703.339 775.184 707.346 778.978 710 783.68C712 787.11 712 790.79 711.68 794.49C711.4 797.35 708.81 799.49 705.87 799.76C702.4 800.1 699.36 798.48 698.29 795.56C697.857 794.451 697.639 793.27 697.65 792.08C697.66 791.189 697.462 790.309 697.072 789.508C696.681 788.708 696.109 788.01 695.4 787.47C693.736 785.974 691.833 784.768 689.77 783.9C683.381 780.935 676.189 780.172 669.32 781.73C667.437 782.182 665.678 783.046 664.17 784.26C663.413 784.865 662.797 785.625 662.362 786.491C661.927 787.356 661.684 788.305 661.649 789.272C661.615 790.24 661.791 791.204 662.164 792.097C662.536 792.991 663.098 793.794 663.81 794.45C665.957 796.295 668.424 797.729 671.09 798.68C676.09 800.58 681.09 802.38 686.15 804.15C690.947 805.718 695.657 807.54 700.26 809.61C702.836 810.767 705.275 812.209 707.53 813.91C716.71 821.05 716.19 830.99 711.65 838.58C710.3 840.723 708.58 842.609 706.57 844.15C701.528 848.116 695.633 850.854 689.35 852.15C682.375 853.796 675.123 853.885 668.11 852.41C664.911 851.745 661.861 850.501 659.11 848.74C655.83 846.651 653.255 843.623 651.72 840.05C650.151 836.187 649.014 832.163 648.33 828.05C647.997 826.423 648.305 824.731 649.19 823.326C650.075 821.921 651.469 820.912 653.08 820.51C654.654 820.017 656.35 820.078 657.885 820.682C659.42 821.286 660.703 822.397 661.52 823.83C661.951 824.774 662.286 825.759 662.52 826.77C662.98 828.49 663.44 830.22 663.8 831.96C664.62 835.96 667.16 837.96 670.93 839.05C673.812 839.806 676.802 840.06 679.77 839.8C684.533 839.596 689.208 838.444 693.52 836.41C695.434 835.573 697.166 834.37 698.62 832.87C701.12 830.06 701.62 826.26 697.81 823.71C696.318 822.738 694.753 821.882 693.13 821.15C689.193 819.389 685.14 817.899 681 816.69C675.03 814.89 669.168 812.753 663.44 810.29C659.764 808.693 656.384 806.489 653.44 803.77C644.75 795.77 645.89 781.37 654.23 774.45C659.232 770.402 665.368 768.009 671.79 767.6C673.36 767.45 675 767.58 676.64 767.58Z" fill="white"/>
<path d="M827.5 767.58C835.109 767.466 842.627 769.253 849.37 772.78C854.202 775.166 858.205 778.95 860.86 783.64C862.81 787.07 862.94 790.75 862.56 794.45C862.25 797.45 859.56 799.61 856.34 799.79C852.84 799.98 850.01 798.25 849.04 795.18C848.691 794.042 848.509 792.86 848.5 791.67C848.477 790.929 848.297 790.201 847.973 789.534C847.649 788.868 847.188 788.277 846.62 787.8C844.9 786.152 842.889 784.837 840.69 783.92C834.298 780.954 827.106 780.181 820.23 781.72C818.498 782.146 816.864 782.903 815.42 783.95C814.562 784.546 813.855 785.332 813.352 786.248C812.849 787.163 812.565 788.182 812.523 789.226C812.48 790.269 812.68 791.308 813.106 792.261C813.533 793.215 814.174 794.056 814.98 794.72C817.059 796.415 819.408 797.747 821.93 798.66C826.93 800.56 831.93 802.37 836.99 804.14C841.786 805.706 846.496 807.525 851.1 809.59C853.672 810.751 856.11 812.19 858.37 813.88C867.54 820.99 867.09 830.88 862.55 838.54C861.214 840.696 859.492 842.588 857.47 844.12C852.902 847.697 847.631 850.27 842 851.67C834.498 853.719 826.62 853.976 819 852.42C815.801 851.762 812.75 850.521 810 848.76C806.715 846.676 804.133 843.651 802.59 840.08C801.015 836.219 799.874 832.194 799.19 828.08C798.847 826.457 799.144 824.764 800.02 823.355C800.896 821.946 802.283 820.931 803.89 820.52C805.46 820.015 807.156 820.063 808.696 820.657C810.235 821.25 811.524 822.352 812.35 823.78C812.786 824.722 813.121 825.708 813.35 826.72C813.95 828.87 814.5 831.02 815.06 833.18C815.347 834.34 815.916 835.41 816.717 836.297C817.517 837.183 818.525 837.858 819.65 838.26C821.556 839.085 823.582 839.598 825.65 839.78C831.442 840.173 837.248 839.275 842.65 837.15C844.878 836.307 846.943 835.082 848.75 833.53C849.99 832.453 850.849 831.005 851.2 829.4C851.406 828.607 851.4 827.774 851.183 826.984C850.965 826.194 850.543 825.475 849.96 824.9C848.705 823.62 847.21 822.6 845.56 821.9C841.141 819.788 836.559 818.032 831.86 816.65C825.735 814.815 819.725 812.618 813.86 810.07C810.16 808.466 806.774 806.218 803.86 803.43C795.54 795.5 796.74 781.5 804.57 774.72C809.73 770.25 815.8 768.19 822.45 767.55C824.22 767.45 825.87 767.58 827.5 767.58Z" fill="white"/>
<path d="M454 853.33C447.61 853.33 441.21 853.33 434.81 853.33C433.624 853.396 432.435 853.288 431.28 853.01C430.043 852.701 428.919 852.051 428.035 851.133C427.15 850.215 426.542 849.067 426.28 847.82C426.039 846.655 425.919 845.469 425.92 844.28C425.593 821.82 425.28 799.36 424.98 776.9C424.928 775.713 424.951 774.524 425.05 773.34C425.219 771.852 425.883 770.464 426.934 769.398C427.986 768.332 429.365 767.65 430.85 767.46C434.56 767.02 437.4 768.74 438.59 772.04C438.99 773.474 439.138 774.966 439.03 776.45C439.11 785.52 439.12 794.6 439.27 803.67C439.45 814.82 439.74 825.98 439.98 837.13V838.02C439.962 838.204 439.986 838.389 440.049 838.563C440.113 838.737 440.215 838.894 440.347 839.022C440.48 839.151 440.64 839.248 440.815 839.307C440.99 839.365 441.177 839.383 441.36 839.36C445.83 839.36 450.29 839.28 454.75 839.24L473.49 839.05C474.53 839.001 475.572 839.018 476.61 839.1C478.332 839.296 479.923 840.117 481.08 841.407C482.237 842.697 482.881 844.367 482.89 846.1C482.93 847.756 482.377 849.372 481.33 850.656C480.283 851.94 478.811 852.807 477.18 853.1C476.001 853.264 474.809 853.317 473.62 853.26H454V853.33Z" fill="white"/>
<path d="M379 839.93C381.908 840.038 384.813 839.666 387.6 838.83C392.34 837.45 395.7 834.58 397.1 829.69C397.601 827.671 398.233 825.687 398.99 823.75C399.694 822.212 400.931 820.981 402.472 820.285C404.013 819.588 405.754 819.473 407.374 819.961C408.993 820.449 410.381 821.506 411.281 822.938C412.181 824.37 412.533 826.079 412.27 827.75C411.442 831.54 410.205 835.228 408.58 838.75C406.186 843.593 402.254 847.507 397.4 849.88C390.153 853.454 382.023 854.844 374 853.88C370.144 853.544 366.345 852.732 362.69 851.46C356.586 849.419 351.214 845.633 347.24 840.57C340.541 832.098 336.828 821.65 336.68 810.85C336.634 803.826 338.394 796.908 341.79 790.76C344.646 785.536 348.365 780.833 352.79 776.85C362.01 768.42 379.43 763.85 393.29 770.24C395.89 771.346 398.316 772.825 400.49 774.63C404.014 777.834 407.226 781.367 410.08 785.18C410.792 786.047 411.273 787.081 411.476 788.185C411.678 789.289 411.597 790.426 411.24 791.49C410.896 792.598 410.282 793.603 409.454 794.415C408.625 795.226 407.608 795.819 406.494 796.141C405.379 796.462 404.202 796.501 403.069 796.255C401.935 796.009 400.881 795.485 400 794.73C399.243 794.02 398.547 793.248 397.92 792.42C396.85 791.17 395.85 789.88 394.75 788.67C388.67 781.96 381.24 780 372.51 782.17C358.95 785.54 346.9 801.17 351.65 818.37C352.794 822.535 354.601 826.489 357 830.08C359.524 833.985 363.34 836.88 367.78 838.26C371.393 839.473 375.191 840.038 379 839.93Z" fill="white"/>
<path d="M563 846.15C562.99 847.727 562.463 849.258 561.5 850.507C560.538 851.757 559.192 852.657 557.67 853.07C556.224 853.458 554.692 853.377 553.296 852.838C551.899 852.299 550.71 851.329 549.9 850.07C549.248 848.901 548.693 847.68 548.24 846.42C546.15 841.18 544.04 835.94 542.02 830.67C540.83 827.57 540.42 828.19 538.53 828.22L515.77 828.65C515.33 828.65 514.88 828.65 514.43 828.71C513.91 828.707 513.405 828.885 513.002 829.213C512.599 829.541 512.322 830 512.22 830.51C511.14 833.75 510 836.97 508.83 840.18C507.76 843.11 506.67 846.03 505.52 848.93C505.072 850.206 504.243 851.315 503.145 852.105C502.047 852.896 500.733 853.33 499.38 853.35C498.299 853.434 497.212 853.266 496.207 852.858C495.201 852.451 494.304 851.815 493.587 851.001C492.869 850.188 492.35 849.218 492.072 848.17C491.793 847.121 491.761 846.023 491.98 844.96C492.116 844.382 492.3 843.817 492.53 843.27C496.47 832.38 500.26 821.43 504.4 810.61C509.12 798.26 514.27 786.08 518.64 773.61C519.64 770.72 521.39 768.66 524.64 768.33C528.24 767.94 530.94 769.7 533.08 772.33C533.737 773.324 534.251 774.404 534.61 775.54C543.603 797.38 552.603 819.223 561.61 841.07C562.366 842.669 562.836 844.389 563 846.15ZM526.29 794.32C525.79 795.49 525.34 796.5 524.92 797.52C522.92 802.44 520.92 807.36 518.92 812.3C518.36 813.69 518.74 814.3 520.2 814.3C523.747 814.3 527.293 814.227 530.84 814.08C532.11 814.08 533.43 814.31 534.65 813.71C533.48 809.35 528.29 797.25 526.31 794.32H526.29Z" fill="white"/>
<path d="M506.08 446.78C505.84 445.28 504.63 444.78 503.76 444.05C496.111 437.611 490.194 429.361 486.55 420.05C483.171 411.299 481.93 401.867 482.93 392.54C483.904 382.602 487.451 373.09 493.22 364.94C500.855 353.798 512.113 345.642 525.08 341.86C534.779 338.793 545.141 338.496 555 341C576.59 346.58 590.69 360.09 598.23 380.82C604.76 404.76 599.23 425.4 581.23 442.59C579.96 443.81 578.62 444.98 577.33 446.18C577.24 446.27 577.25 446.46 577.19 446.73C577.635 447.086 578.114 447.397 578.62 447.66C584.284 449.878 589.725 452.627 594.87 455.87C595.067 456.036 595.297 456.16 595.544 456.233C595.791 456.306 596.051 456.326 596.307 456.293C596.563 456.26 596.809 456.175 597.03 456.042C597.251 455.908 597.441 455.731 597.59 455.52C601.009 451.801 604.765 448.406 608.81 445.38C612.712 442.418 616.927 439.893 621.38 437.85C621.782 437.655 622.172 437.438 622.55 437.2C623.55 436.62 623.75 435.81 623.07 435.04C622.58 434.48 622 434.04 621.49 433.47C615.677 427.454 611.618 419.964 609.75 411.81C607.337 401.721 608.625 391.1 613.38 381.88C616.101 376.236 619.967 371.22 624.733 367.152C629.498 363.083 635.059 360.052 641.06 358.25C647.865 356.015 655.128 355.557 662.16 356.92C672.665 358.828 682.165 364.368 689 372.57C695.764 380.391 699.566 390.341 699.74 400.68C700.05 413.95 695.34 425.01 686.18 434.38C685.835 434.669 685.532 435.006 685.28 435.38C685.188 435.497 685.121 435.632 685.083 435.775C685.044 435.919 685.035 436.069 685.055 436.217C685.076 436.364 685.126 436.506 685.202 436.633C685.279 436.761 685.38 436.872 685.5 436.96C685.986 437.299 686.498 437.6 687.03 437.86C703.8 445.86 716.03 458.43 723.79 475.16C728.332 484.569 730.662 494.892 730.6 505.34C730.52 510.55 730.53 515.76 730.6 520.96C730.7 529.36 727.75 536.68 722.67 543.19C718.025 549.061 711.69 553.365 704.52 555.52C701.807 556.316 698.986 556.684 696.16 556.61C681.16 556.61 666.16 556.61 651.08 556.61H647.08C642.89 556.61 643.24 556.61 643.18 560.49C642.88 579.03 634.48 592.82 618.58 602.12C614.053 604.695 609.09 606.414 603.94 607.19C601.285 607.501 598.61 607.591 595.94 607.46C559.34 607.46 522.74 607.46 486.15 607.46C473.15 607.46 462.55 602.4 453.6 593.39C444.65 584.38 440.77 573.58 440.19 561.24C440.19 560.5 440.19 559.76 440.19 559.01C440.08 556.78 439.92 556.62 437.49 556.58C435.41 556.58 433.32 556.58 431.24 556.58C416.51 556.58 401.78 556.44 387.05 556.63C376.37 556.76 367.76 552.52 360.61 544.96C355.953 539.894 352.802 533.629 351.51 526.87C351.176 524.815 351.062 522.73 351.17 520.65C351.17 513.797 351.21 506.953 351.29 500.12C351.511 495.353 352.399 490.64 353.93 486.12C360.51 464.22 374 448.05 394.58 437.9C395.249 437.582 395.879 437.189 396.46 436.73C396.631 436.584 396.739 436.378 396.762 436.154C396.784 435.93 396.719 435.707 396.58 435.53C396.206 435.079 395.806 434.652 395.38 434.25C388.74 427.5 384.16 419.52 382.64 410.25C380.76 398.77 382.47 387.73 388.94 377.76C394.745 368.459 403.722 361.574 414.21 358.38C421.588 356.021 429.466 355.703 437.01 357.46C450.89 360.71 461.07 368.61 467.81 381.01C471.09 387.031 472.867 393.755 472.99 400.61C473.29 413.67 468.67 424.69 459.7 434.03C457.7 436.16 457.7 436.62 460.18 437.79C469.186 442.079 477.275 448.072 484 455.44C485.75 457.31 486.18 457.44 488.13 456.19C493.267 452.931 498.701 450.165 504.36 447.93C504.967 447.599 505.542 447.214 506.08 446.78ZM541.36 589.78H598.93C600.563 589.887 602.202 589.762 603.8 589.41C613.08 586.75 619.73 581.13 623.56 572.2C625.116 568.32 625.92 564.18 625.93 560C626.1 554.06 626.12 548.1 625.93 542.16C625.822 537.552 625.418 532.956 624.72 528.4C623.917 523.714 622.72 519.104 621.14 514.62C614.36 494.97 601.79 480.07 584.14 469.47C574.404 463.694 563.55 460.057 552.3 458.8C540.46 457.283 528.434 458.271 517 461.7C505.603 465.135 495.103 471.042 486.25 479C467.86 495.43 458.47 516 457.66 540.59C457.43 547.42 457.66 554.27 457.6 561.12C457.513 565.906 458.715 570.628 461.08 574.79C466.62 584.27 474.51 589.94 486.02 589.85C504.47 589.69 522.91 589.8 541.36 589.8V589.78ZM471.77 467.87C470.89 466.87 469.97 465.76 468.95 464.73C464.444 460.191 459.203 456.445 453.45 453.65C449.189 451.553 444.699 449.959 440.07 448.9C434.22 447.57 428.27 447.61 422.33 447.9C419.375 448.035 416.44 448.464 413.57 449.18C408.366 450.426 403.364 452.399 398.71 455.04C379.34 466.37 369.37 483.4 368.22 505.68C367.98 510.28 368.22 514.9 368.16 519.5C368.172 522.322 368.725 525.116 369.79 527.73C371.138 531.227 373.547 534.213 376.68 536.27C379.512 538.189 382.882 539.155 386.3 539.03C402.8 538.88 419.3 538.96 435.81 538.96C436.55 538.96 437.29 538.96 438.04 538.96C439.84 538.89 440.13 538.65 440.32 536.96C440.4 536.22 440.45 535.48 440.49 534.74C440.939 527.173 442.319 519.689 444.6 512.46C449.351 496.757 457.876 482.457 469.43 470.81C470.436 470.034 471.239 469.025 471.77 467.87ZM671.57 539C680.05 539 688.57 539 697 539C698.781 539.028 700.544 538.641 702.15 537.87C709.46 534.37 713.15 528.34 713.45 520.52C713.73 513.42 713.9 506.28 712.86 499.16C711.878 492.095 709.697 485.25 706.41 478.92C698.99 464.71 683.28 451.33 663.79 448.53C656.152 447.295 648.35 447.505 640.79 449.15C630.165 451.552 620.449 456.944 612.79 464.69C612.25 465.198 611.743 465.739 611.27 466.31C611.043 466.602 610.931 466.966 610.955 467.335C610.979 467.703 611.138 468.05 611.4 468.31C611.78 468.76 612.29 469.1 612.71 469.52C619.737 476.383 625.733 484.228 630.51 492.81C636.707 503.838 640.711 515.961 642.3 528.51C642.819 531.436 643.11 534.399 643.17 537.37C643.17 538.49 643.78 538.95 644.84 538.95H671.6L671.57 539ZM543.36 440.42C551.656 440.072 559.66 437.262 566.352 432.348C573.044 427.433 578.121 420.637 580.935 412.826C583.75 405.015 584.174 396.542 582.155 388.489C580.135 380.435 575.763 373.166 569.595 367.607C563.428 362.048 555.745 358.452 547.526 357.277C539.306 356.102 530.923 357.402 523.445 361.01C515.968 364.618 509.734 370.371 505.538 377.536C501.343 384.701 499.377 392.953 499.89 401.24C501.06 422.05 518.78 441.5 543.36 440.42ZM427.32 430C440.84 430.88 455.45 419.23 455.64 402.3C455.737 398.549 455.086 394.817 453.726 391.32C452.366 387.823 450.324 384.631 447.719 381.931C445.113 379.232 441.996 377.077 438.55 375.594C435.103 374.11 431.396 373.328 427.644 373.291C423.893 373.255 420.171 373.965 416.696 375.381C413.222 376.797 410.064 378.891 407.406 381.539C404.748 384.188 402.645 387.339 401.217 390.809C399.789 394.279 399.066 397.998 399.09 401.75C399 418.29 413.09 430.75 427.32 430ZM654 430C668.32 430.87 682.53 418.66 682.58 402.09C682.592 394.587 679.623 387.387 674.326 382.073C669.029 376.759 661.838 373.767 654.335 373.755C646.832 373.743 639.632 376.712 634.318 382.009C629.004 387.306 626.012 394.497 626 402C626 418.51 640.08 430.63 654 430Z" fill="white"/>
<path d="M539.86 213.54C550.36 213.41 559.44 213.54 568.45 214.76C574.45 215.57 580.45 216.27 586.45 217.36C594.497 218.82 602.45 220.633 610.31 222.8C645.567 232.63 678.358 249.778 706.546 273.126C734.735 296.474 757.688 325.499 773.91 358.31C781.466 373.624 787.495 389.644 791.91 406.14C794.397 415.307 796.357 424.609 797.78 434C798.85 441.05 799.78 448.13 800.21 455.22C800.71 463.67 800.52 472.17 800.61 480.65C800.61 481.98 800.49 483.32 800.49 484.65C800.412 491.486 799.837 498.307 798.77 505.06C798.36 507.85 798.15 510.65 797.71 513.45C794.565 533.408 789.108 552.933 781.45 571.63C781.009 572.734 780.466 573.795 779.83 574.8C777.49 578.43 772.5 579.97 768.83 578C764.21 575.47 763 570.81 764.34 567.46C764.73 566.46 765.01 565.46 765.41 564.53C771.352 550.277 775.806 535.448 778.7 520.28C780.04 513.44 781.12 506.58 781.79 499.62C782.79 488.81 783.79 478 783.24 467.13C782.89 460.61 782.45 454.13 781.81 447.58C780.073 430.584 776.526 413.823 771.23 397.58C763.593 373.769 752.185 351.337 737.44 331.14C720.167 307.245 698.666 286.713 674 270.56C660.707 261.849 646.597 254.454 631.87 248.48C620.046 243.702 607.874 239.838 595.46 236.92C589.27 235.43 582.98 234.38 576.65 233.48C563.708 231.585 550.64 230.686 537.56 230.79C530.27 230.87 523.03 231.66 515.76 232.22C509.68 232.68 503.71 233.83 497.69 234.63C493.856 235.208 490.056 235.999 486.31 237C473.761 239.982 461.447 243.882 449.47 248.67C433.64 255.092 418.53 263.163 404.39 272.75C384.156 286.423 366.171 303.16 351.08 322.36C349.35 324.55 347.62 326.73 344.72 327.74C341.27 328.94 338.6 327.74 336.24 325.52C335.034 324.504 334.171 323.14 333.77 321.615C333.369 320.09 333.45 318.478 334 317C334.65 315.334 335.576 313.789 336.74 312.43C355.222 289.059 377.539 268.997 402.74 253.1C416.811 244.222 431.728 236.758 447.27 230.82C456.686 227.232 466.294 224.171 476.05 221.65C485.233 219.23 494.544 217.327 503.94 215.95C516.31 214.15 528.75 213 539.86 213.54Z" fill="white"/>
<path d="M540.53 732.85C535.17 732.85 529.81 733.05 524.47 732.79C519.419 732.6 514.386 732.089 509.4 731.26C506.34 730.72 503.22 730.64 500.13 730.12C493.25 728.95 486.4 727.65 479.63 725.97C471.42 723.97 463.33 721.57 455.34 718.79C443.144 714.555 431.286 709.4 419.87 703.37C362.546 673.173 318.535 622.694 296.43 561.79C291.84 548.772 288.164 535.45 285.43 521.92C284.6 518.01 283.99 514.05 283.48 510.08C283.203 507.864 283.146 505.627 283.31 503.4C283.64 498.77 289.46 495 293.86 496.49C295.357 496.955 296.709 497.799 297.784 498.939C298.86 500.08 299.623 501.478 300 503C300.467 504.569 300.801 506.175 301 507.8C302.271 518.705 304.49 529.479 307.63 540C319.453 582.182 342.678 620.289 374.75 650.13C393.416 667.659 414.736 682.128 437.92 693C450.806 699.081 464.222 703.968 478 707.6C485.44 709.6 493 711.12 500.63 712.39C514.125 714.577 527.769 715.72 541.44 715.81C549.62 715.9 557.76 714.97 565.91 714.35C572 713.88 577.91 712.68 583.99 711.97C587.812 711.417 591.596 710.629 595.32 709.61C603.96 707.48 612.55 705.17 620.96 702.24C628.25 699.69 635.37 696.77 642.39 693.56C658.747 686.08 674.205 676.775 688.47 665.82C704.167 653.759 718.326 639.818 730.63 624.31C731.522 623.118 732.494 621.989 733.54 620.93C734.889 619.509 736.712 618.633 738.664 618.467C740.616 618.301 742.561 618.857 744.13 620.03C745.895 621.175 747.166 622.94 747.694 624.976C748.221 627.012 747.967 629.172 746.98 631.03C746.269 632.336 745.435 633.572 744.49 634.72C724.663 659.709 700.435 680.864 673 697.14C647.254 712.321 619.091 722.966 589.74 728.61C584.222 729.819 578.63 730.657 573 731.12C570.21 731.28 567.41 731.77 564.62 732.12C556.62 732.969 548.567 733.213 540.53 732.85Z" fill="white"/>
<path d="M315.31 353.58C320.31 352.86 326.21 359.08 323.58 365.15C321.75 369.37 319.8 373.52 317.94 377.72C314.19 386.263 311.004 395.041 308.4 404C307.886 406.325 306.595 408.406 304.74 409.9C301.84 412.04 298.74 412.43 295.56 410.66C294.017 409.891 292.753 408.659 291.943 407.138C291.133 405.616 290.817 403.879 291.04 402.17C291.186 400.845 291.468 399.538 291.88 398.27C295.808 385.517 300.644 373.062 306.35 361C306.888 359.777 307.523 358.6 308.25 357.48C309.93 355.08 312.15 353.47 315.31 353.58Z" fill="white"/>
<path d="M281.47 455C281.8 451.06 282.02 448 282.35 444.88C282.498 443.853 282.763 442.847 283.14 441.88C284.76 437.19 288.39 435.05 293.14 435.97C295.184 436.397 297.01 437.536 298.292 439.185C299.574 440.833 300.229 442.884 300.14 444.97C300.14 445.56 300.02 446.15 299.96 446.74C299.72 449.24 299.49 451.74 299.24 454.25C299.164 456.484 298.472 458.654 297.24 460.52C295.09 463.42 291.33 464.88 288.24 463.91C286.514 463.437 284.964 462.468 283.784 461.122C282.603 459.776 281.844 458.113 281.6 456.34C281.502 455.9 281.458 455.45 281.47 455Z" fill="white"/>
</g>
<defs>
<linearGradient id="paint0_linear_1804_394" x1="238.35" y1="810.14" x2="301.92" y2="810.14" gradientUnits="userSpaceOnUse">
<stop stop-color="#0C6EFF"/>
<stop offset="0.62" stop-color="#348CFF"/>
</linearGradient>
<clipPath id="clip0_1804_394">
<rect width="1080" height="1080" fill="white"/>
</clipPath>
</defs>
</svg>
