<svg id="E_Classes_Logo" data-name="E Classes Logo" xmlns="http://www.w3.org/2000/svg" xmlns:xlink="http://www.w3.org/1999/xlink" viewBox="0 0 645.92 658.56"><defs><style>.cls-1{fill:url(#linear-gradient);}.cls-2{fill:url(#linear-gradient-2);}.cls-3{fill:#fff;}.cls-4{fill:url(#linear-gradient-3);}.cls-5{fill:url(#linear-gradient-4);}.cls-6{fill:url(#linear-gradient-5);}.cls-7{fill:url(#linear-gradient-6);}.cls-8{fill:url(#linear-gradient-7);}.cls-9{fill:url(#linear-gradient-8);}.cls-10{fill:url(#linear-gradient-9);}.cls-11{fill:url(#linear-gradient-10);}.cls-12{fill:url(#linear-gradient-11);}.cls-13{fill:url(#linear-gradient-12);}.cls-14{fill:url(#linear-gradient-13);}</style><linearGradient id="linear-gradient" y1="599.51" x2="101.16" y2="599.51" gradientUnits="userSpaceOnUse"><stop offset="0" stop-color="#0c6eff"/><stop offset="0.62" stop-color="#348cff"/></linearGradient><linearGradient id="linear-gradient-2" x1="725.02" y1="810.15" x2="788.58" y2="810.15" xlink:href="#linear-gradient"/><linearGradient id="linear-gradient-3" x1="569.7" y1="810.49" x2="637.11" y2="810.49" xlink:href="#linear-gradient"/><linearGradient id="linear-gradient-4" x1="647.38" y1="810.49" x2="714.8" y2="810.49" xlink:href="#linear-gradient"/><linearGradient id="linear-gradient-5" x1="798.28" y1="810.47" x2="865.7" y2="810.47" xlink:href="#linear-gradient"/><linearGradient id="linear-gradient-6" x1="424.98" y1="810.35" x2="482.94" y2="810.35" xlink:href="#linear-gradient"/><linearGradient id="linear-gradient-7" x1="336.63" y1="810.64" x2="412.38" y2="810.64" xlink:href="#linear-gradient"/><linearGradient id="linear-gradient-8" x1="491.88" y1="810.78" x2="563.02" y2="810.78" xlink:href="#linear-gradient"/><linearGradient id="linear-gradient-9" x1="351.09" y1="473.38" x2="730.56" y2="473.38" xlink:href="#linear-gradient"/><linearGradient id="linear-gradient-10" x1="333.5" y1="396.14" x2="800.61" y2="396.14" xlink:href="#linear-gradient"/><linearGradient id="linear-gradient-11" x1="283.18" y1="614.57" x2="747.97" y2="614.57" xlink:href="#linear-gradient"/><linearGradient id="linear-gradient-12" x1="291" y1="382.66" x2="324.23" y2="382.66" xlink:href="#linear-gradient"/><linearGradient id="linear-gradient-13" x1="281.46" y1="450.02" x2="300.08" y2="450.02" xlink:href="#linear-gradient"/></defs><rect class="cls-1" y="540.45" width="101.16" height="118.11" rx="24.27"/><path class="cls-2" d="M739.75,803h8.39l27.67.2a17.63,17.63,0,0,1,1.78,0,7,7,0,0,1,1,13.7,18.15,18.15,0,0,1-4.88.3c-9.07-.07-18.14-.21-27.21-.21-2.31,0-4.72-.4-6.91.83-.6,2.18-.23,4.41-.28,6.61-.07,4-.08,8-.07,12,0,1.52.25,1.78,1.85,1.82,7.58.15,15.17.29,22.75.36,5.21,0,10.41,0,15.62,0a22.11,22.11,0,0,1,3.55.15,6.51,6.51,0,0,1,5.58,6.94,6.7,6.7,0,0,1-5.93,6.69,35.81,35.81,0,0,1-4,.12q-22.32-.11-44.63-.24c-5.13,0-7-1.72-8.39-6.76a16.42,16.42,0,0,1-.6-4.39q.08-16.73.13-33.46c0-6.85,0-13.69-.06-20.53a71.45,71.45,0,0,1,.66-10.23,9.5,9.5,0,0,1,9.16-8.65c.59,0,1.19,0,1.79-.06l41.93-.52a21.09,21.09,0,0,1,3.56.13,7,7,0,0,1-.51,13.92c-1.18.11-2.37.05-3.56.05l-33,.16c-1.34,0-2.68,0-4,.07-1.53.07-1.86.38-1.91,1.79,0,1.19,0,2.38,0,3.57q.06,6.26.15,12.49C739.35,800.94,739.13,802,739.75,803Z" transform="translate(-219.78 -213.4)"/><path class="cls-3" d="M252.48,782.25c.07,7,.13,13.83.26,20.78.86.06,1.42.13,2,.13l33.9.07c.74,0,1.49,0,2.23,0A6.94,6.94,0,0,1,292,816.91a19.4,19.4,0,0,1-5.32.32q-13.83-.12-27.65-.23c-1.49,0-3,.07-4.46.2s-1.9.39-1.91,1.83c0,6,0,11.9-.05,17.84a1.26,1.26,0,0,0,1.29,1.44c1.78.09,3.56.21,5.34.22q16.29.09,32.56.14a31.37,31.37,0,0,1,4.45.16,6.46,6.46,0,0,1,5.68,6.84,6.65,6.65,0,0,1-6.29,6.79c-1.63.12-3.27.09-4.91.08l-42.83-.21c-.74,0-1.49,0-2.22-.05a7,7,0,0,1-6.37-5.36,22.87,22.87,0,0,1-1-6.13c.15-13.09.19-26.17.23-39.26,0-4.76-.05-9.51-.1-14.27a68.65,68.65,0,0,1,.64-10.23c.68-5,4.08-8.35,9.11-8.69,2.52-.17,5.05-.16,7.58-.19q18.06-.21,36.13-.4a22.1,22.1,0,0,1,3.55.12,7,7,0,0,1-.45,13.89c-1.18.11-2.38,0-3.57,0q-16.73.08-33.46.16A28.67,28.67,0,0,0,252.48,782.25Z" transform="translate(-219.78 -213.4)"/><path class="cls-4" d="M598.91,767.58a45.69,45.69,0,0,1,21.86,5.19,26.88,26.88,0,0,1,11.49,10.86c2,3.43,2.09,7.11,1.72,10.81-.31,3-3,5.17-6.22,5.35-3.5.19-6.33-1.53-7.3-4.61a11.52,11.52,0,0,1-.54-3.5,5,5,0,0,0-1.89-3.86,15.41,15.41,0,0,0-1.69-1.45,31.42,31.42,0,0,0-25.12-4.55,12.48,12.48,0,0,0-4.38,2.13,6.76,6.76,0,0,0-.45,10.77,23.9,23.9,0,0,0,6.94,3.94c5.14,1.94,10.31,3.77,15.49,5.6a145.55,145.55,0,0,1,13.68,5.33,39.2,39.2,0,0,1,7.28,4.29c9.16,7.1,8.73,17,4.18,24.65a20.09,20.09,0,0,1-4.73,5.3,37.23,37.23,0,0,1-11.15,6.4,50.15,50.15,0,0,1-27.63,2.19,27,27,0,0,1-9-3.65,19.41,19.41,0,0,1-7.42-8.68,57.71,57.71,0,0,1-3.4-12,6.45,6.45,0,0,1,4.7-7.57,7.25,7.25,0,0,1,8.47,3.25,12.76,12.76,0,0,1,.92,2.51,35.85,35.85,0,0,1,1,4.33c.74,5.37,4.09,8.1,9.16,8.83,8.52,1.21,16.59-.15,23.93-4.82a8.08,8.08,0,0,0,3.76-4.78,5,5,0,0,0-1.42-5.26,15.12,15.12,0,0,0-4.1-2.66,93,93,0,0,0-13.7-5.25,163.56,163.56,0,0,1-18-6.57,34.43,34.43,0,0,1-10-6.64c-8.32-7.94-7.12-21.93.7-28.71,5.16-4.47,11.23-6.54,17.89-7.18C595.63,767.45,597.27,767.58,598.91,767.58Z" transform="translate(-219.78 -213.4)"/><path class="cls-5" d="M676.64,767.58a45.77,45.77,0,0,1,21.86,5.21A26.9,26.9,0,0,1,710,783.68c2,3.43,2,7.11,1.68,10.81-.28,2.86-2.87,5-5.81,5.27-3.47.34-6.51-1.28-7.58-4.2a9.33,9.33,0,0,1-.64-3.48,5.71,5.71,0,0,0-2.25-4.61,20.05,20.05,0,0,0-5.63-3.57,31.85,31.85,0,0,0-20.45-2.17,13.08,13.08,0,0,0-5.15,2.53,6.72,6.72,0,0,0-.36,10.19,23.07,23.07,0,0,0,7.28,4.23c5,1.9,10,3.7,15.06,5.47a141.8,141.8,0,0,1,14.11,5.46,37.79,37.79,0,0,1,7.27,4.3c9.18,7.14,8.66,17.08,4.12,24.67a21.39,21.39,0,0,1-5.08,5.57,41.37,41.37,0,0,1-17.22,8,48.78,48.78,0,0,1-21.24.26,26.82,26.82,0,0,1-9-3.67,19.37,19.37,0,0,1-7.39-8.69,56.56,56.56,0,0,1-3.39-12,6.44,6.44,0,0,1,4.75-7.54,7.23,7.23,0,0,1,8.44,3.32,15.43,15.43,0,0,1,1,2.94c.46,1.72.92,3.45,1.28,5.19.82,4,3.36,6,7.13,7.09a25.92,25.92,0,0,0,8.84.75,35.83,35.83,0,0,0,13.75-3.39,16.06,16.06,0,0,0,5.1-3.54c2.5-2.81,3-6.61-.81-9.16a34.8,34.8,0,0,0-4.68-2.56A94.8,94.8,0,0,0,681,816.69a165.13,165.13,0,0,1-17.56-6.4,35.69,35.69,0,0,1-10-6.52c-8.69-8-7.55-22.4.79-29.32a31.05,31.05,0,0,1,17.56-6.85C673.36,767.45,675,767.58,676.64,767.58Z" transform="translate(-219.78 -213.4)"/><path class="cls-6" d="M827.5,767.58a45.71,45.71,0,0,1,21.87,5.2,26.88,26.88,0,0,1,11.49,10.86c1.95,3.43,2.08,7.11,1.7,10.81-.31,3-3,5.16-6.22,5.34-3.5.19-6.33-1.54-7.3-4.61a12.3,12.3,0,0,1-.54-3.51,5.27,5.27,0,0,0-1.88-3.87,19.32,19.32,0,0,0-5.93-3.88,32,32,0,0,0-20.46-2.2,13.82,13.82,0,0,0-4.81,2.23,6.76,6.76,0,0,0-.44,10.77,23.86,23.86,0,0,0,6.95,3.94c5,1.9,10,3.71,15.06,5.48a142.68,142.68,0,0,1,14.11,5.45,38.8,38.8,0,0,1,7.27,4.29c9.17,7.11,8.72,17,4.18,24.66a20.64,20.64,0,0,1-5.08,5.58A41.22,41.22,0,0,1,842,851.67a49.62,49.62,0,0,1-23,.75,26.65,26.65,0,0,1-9-3.66,19.39,19.39,0,0,1-7.41-8.68,56.17,56.17,0,0,1-3.4-12,6.43,6.43,0,0,1,4.7-7.56,7.22,7.22,0,0,1,8.46,3.26,14.79,14.79,0,0,1,1,2.94c.6,2.15,1.15,4.3,1.71,6.46a7.24,7.24,0,0,0,4.59,5.08,19.39,19.39,0,0,0,6,1.52,39.19,39.19,0,0,0,17-2.63,20.49,20.49,0,0,0,6.1-3.62,7.63,7.63,0,0,0,2.45-4.13,4.67,4.67,0,0,0-1.24-4.5,13.6,13.6,0,0,0-4.4-3,91.92,91.92,0,0,0-13.7-5.25,161.59,161.59,0,0,1-18-6.58,34.05,34.05,0,0,1-10-6.64c-8.32-7.93-7.12-21.93.71-28.71,5.16-4.47,11.23-6.53,17.88-7.17C824.22,767.45,825.87,767.58,827.5,767.58Z" transform="translate(-219.78 -213.4)"/><path class="cls-7" d="M454,853.33c-6.39,0-12.79,0-19.19,0a12.2,12.2,0,0,1-3.53-.32,6.79,6.79,0,0,1-5-5.19,17.43,17.43,0,0,1-.36-3.54q-.49-33.69-.94-67.38a28.13,28.13,0,0,1,.07-3.56,6.69,6.69,0,0,1,5.8-5.88c3.71-.44,6.55,1.28,7.74,4.58a12.92,12.92,0,0,1,.44,4.41c.08,9.07.09,18.15.24,27.22.18,11.15.47,22.31.71,33.46l0,.89a1.23,1.23,0,0,0,1.38,1.34c4.47,0,8.93-.08,13.39-.12l18.74-.19a24.93,24.93,0,0,1,3.12.05,7.08,7.08,0,0,1,6.28,7,6.94,6.94,0,0,1-5.71,7,19.18,19.18,0,0,1-3.56.16H454Z" transform="translate(-219.78 -213.4)"/><path class="cls-8" d="M379,839.93a26.52,26.52,0,0,0,8.6-1.1c4.74-1.38,8.1-4.25,9.5-9.14a48.28,48.28,0,0,1,1.89-5.94,7,7,0,0,1,13.28,4,53.55,53.55,0,0,1-3.69,11,24.45,24.45,0,0,1-11.18,11.13,41.67,41.67,0,0,1-23.4,4,46.78,46.78,0,0,1-11.31-2.42,32.91,32.91,0,0,1-15.45-10.89,49,49,0,0,1-10.56-29.72,41,41,0,0,1,5.11-20.09,52.76,52.76,0,0,1,11-13.91c9.22-8.43,26.64-13,40.5-6.61a29.12,29.12,0,0,1,7.2,4.39,75,75,0,0,1,9.59,10.55,6.62,6.62,0,0,1,1.16,6.31A7,7,0,0,1,400,794.73a18.32,18.32,0,0,1-2.08-2.31c-1.07-1.25-2.07-2.54-3.17-3.75-6.08-6.71-13.51-8.67-22.24-6.5-13.56,3.37-25.61,19-20.86,36.2A40.3,40.3,0,0,0,357,830.08a19.85,19.85,0,0,0,10.78,8.18A32.37,32.37,0,0,0,379,839.93Z" transform="translate(-219.78 -213.4)"/><path class="cls-9" d="M563,846.15a7.22,7.22,0,0,1-5.33,6.92,7.06,7.06,0,0,1-7.77-3,24.57,24.57,0,0,1-1.66-3.65c-2.09-5.24-4.2-10.48-6.22-15.75-1.19-3.1-1.6-2.48-3.49-2.45l-22.76.43c-.44,0-.89,0-1.34.06a2.24,2.24,0,0,0-2.21,1.8c-1.08,3.24-2.22,6.46-3.39,9.67-1.07,2.93-2.16,5.85-3.31,8.75a6.61,6.61,0,0,1-6.14,4.42,7,7,0,0,1-7.4-8.39,10.74,10.74,0,0,1,.55-1.69c3.94-10.89,7.73-21.84,11.87-32.66,4.72-12.35,9.87-24.53,14.24-37,1-2.89,2.75-4.95,6-5.28,3.6-.39,6.3,1.37,8.44,4a12.84,12.84,0,0,1,1.53,3.21q13.49,32.76,27,65.53A15.18,15.18,0,0,1,563,846.15Zm-36.71-51.83c-.5,1.17-.95,2.18-1.37,3.2-2,4.92-4,9.84-6,14.78-.56,1.39-.18,2,1.28,2q5.32,0,10.64-.22c1.27,0,2.59.23,3.81-.37C533.48,809.35,528.29,797.25,526.31,794.32Z" transform="translate(-219.78 -213.4)"/><path class="cls-10" d="M506.08,446.78c-.24-1.5-1.45-2-2.32-2.73a59.91,59.91,0,0,1-17.21-24,58.94,58.94,0,0,1-3.62-27.51,57.48,57.48,0,0,1,10.29-27.6,58.47,58.47,0,0,1,31.86-23.08A54.63,54.63,0,0,1,555,341c21.59,5.58,35.69,19.09,43.23,39.82,6.53,23.94,1,44.58-17,61.77-1.27,1.22-2.61,2.39-3.9,3.59-.09.09-.08.28-.14.55a8.78,8.78,0,0,0,1.43.93,96.35,96.35,0,0,1,16.25,8.21,1.86,1.86,0,0,0,2.72-.35,81.77,81.77,0,0,1,11.22-10.14,67,67,0,0,1,12.57-7.53,12.06,12.06,0,0,0,1.17-.65c1-.58,1.2-1.39.52-2.16-.49-.56-1.07-1-1.58-1.57a45.93,45.93,0,0,1-11.74-21.66,43.32,43.32,0,0,1,3.63-29.93,45.14,45.14,0,0,1,27.68-23.63,42,42,0,0,1,21.1-1.33A45.53,45.53,0,0,1,689,372.57a44.11,44.11,0,0,1,10.74,28.11c.31,13.27-4.4,24.33-13.56,33.7a4.8,4.8,0,0,0-.9,1,1.11,1.11,0,0,0,.22,1.58,11.59,11.59,0,0,0,1.53.9c16.77,8,29,20.57,36.76,37.3a68.49,68.49,0,0,1,6.81,30.18c-.08,5.21-.07,10.42,0,15.62.1,8.4-2.85,15.72-7.93,22.23a36.56,36.56,0,0,1-18.15,12.33,27.17,27.17,0,0,1-8.36,1.09c-15,0-30,0-45.08,0h-4c-4.19,0-3.84,0-3.9,3.88-.3,18.54-8.7,32.33-24.6,41.63a42.38,42.38,0,0,1-14.64,5.07,48.34,48.34,0,0,1-8,.27c-36.6,0-73.2,0-109.79,0-13,0-23.6-5.06-32.55-14.07s-12.83-19.81-13.41-32.15c0-.74,0-1.48,0-2.23-.11-2.23-.27-2.39-2.7-2.43-2.08,0-4.17,0-6.25,0-14.73,0-29.46-.14-44.19.05-10.68.13-19.29-4.11-26.44-11.67a37,37,0,0,1-9.1-18.09,29.31,29.31,0,0,1-.34-6.22q0-10.28.12-20.53a51,51,0,0,1,2.64-14c6.58-21.9,20.07-38.07,40.65-48.22a9.85,9.85,0,0,0,1.88-1.17.87.87,0,0,0,.12-1.2,14.44,14.44,0,0,0-1.2-1.28c-6.64-6.75-11.22-14.73-12.74-24-1.88-11.48-.17-22.52,6.3-32.49a45.37,45.37,0,0,1,25.27-19.38,42.9,42.9,0,0,1,22.8-.92c13.88,3.25,24.06,11.15,30.8,23.55a42.56,42.56,0,0,1,5.18,19.6c.3,13.06-4.32,24.08-13.29,33.42-2,2.13-2,2.59.48,3.76a77.17,77.17,0,0,1,23.82,17.65c1.75,1.87,2.18,2,4.13.75a96.39,96.39,0,0,1,16.23-8.26A11.47,11.47,0,0,0,506.08,446.78Zm35.28,143h57.57a17.36,17.36,0,0,0,4.87-.37c9.28-2.66,15.93-8.28,19.76-17.21A33,33,0,0,0,625.93,560c.17-5.94.19-11.9,0-17.84a107.37,107.37,0,0,0-1.21-13.76,84.36,84.36,0,0,0-3.58-13.78c-6.78-19.65-19.35-34.55-37-45.15A79.76,79.76,0,0,0,552.3,458.8,85.19,85.19,0,0,0,517,461.7,80.94,80.94,0,0,0,486.25,479c-18.39,16.43-27.78,37-28.59,61.59-.23,6.83,0,13.68-.06,20.53a26.69,26.69,0,0,0,3.48,13.67c5.54,9.48,13.43,15.15,24.94,15.06C504.47,589.69,522.91,589.8,541.36,589.8ZM471.77,467.87c-.88-1-1.8-2.11-2.82-3.14a56.82,56.82,0,0,0-15.5-11.08,61.26,61.26,0,0,0-13.38-4.75c-5.85-1.33-11.8-1.29-17.74-1a44.62,44.62,0,0,0-8.76,1.28,57,57,0,0,0-14.86,5.86c-19.37,11.33-29.34,28.36-30.49,50.64-.24,4.6,0,9.22-.06,13.82a22.07,22.07,0,0,0,1.63,8.23,17.93,17.93,0,0,0,6.89,8.54,16.1,16.1,0,0,0,9.62,2.76c16.5-.15,33-.07,49.51-.07.74,0,1.48,0,2.23,0,1.8-.07,2.09-.31,2.28-2,.08-.74.13-1.48.17-2.22a92.18,92.18,0,0,1,4.11-22.28,100.45,100.45,0,0,1,24.83-41.65A7.86,7.86,0,0,0,471.77,467.87ZM671.57,539c8.48,0,17,0,25.43,0a11.48,11.48,0,0,0,5.15-1.13c7.31-3.5,11-9.53,11.3-17.35.28-7.1.45-14.24-.59-21.36a62.64,62.64,0,0,0-6.45-20.24c-7.42-14.21-23.13-27.59-42.62-30.39a61.78,61.78,0,0,0-23,.62,57.08,57.08,0,0,0-28,15.54,17.88,17.88,0,0,0-1.52,1.62,1.51,1.51,0,0,0,.13,2c.38.45.89.79,1.31,1.21a101.66,101.66,0,0,1,17.8,23.29,98,98,0,0,1,11.79,35.7,57.31,57.31,0,0,1,.87,8.86c0,1.12.61,1.58,1.67,1.58h26.76ZM543.36,440.42a41.8,41.8,0,1,0-43.47-39.18C501.06,422.05,518.78,441.5,543.36,440.42ZM427.32,430c13.52.88,28.13-10.77,28.32-27.7a28.28,28.28,0,1,0-56.55-.55C399,418.29,413.09,430.75,427.32,430ZM654,430c14.32.87,28.53-11.34,28.58-27.91A28.29,28.29,0,1,0,626,402C626,418.51,640.08,430.63,654,430Z" transform="translate(-219.78 -213.4)"/><path class="cls-11" d="M539.86,213.54c10.5-.13,19.58,0,28.59,1.22,6,.81,12,1.51,18,2.6q12.07,2.19,23.86,5.44A260.57,260.57,0,0,1,773.91,358.31a260.05,260.05,0,0,1,18,47.83A248.49,248.49,0,0,1,797.78,434c1.07,7.05,2,14.13,2.43,21.22.5,8.45.31,16.95.4,25.43,0,1.33-.12,2.67-.12,4a141,141,0,0,1-1.72,20.41c-.41,2.79-.62,5.59-1.06,8.39a260.5,260.5,0,0,1-16.26,58.18,19.31,19.31,0,0,1-1.62,3.17c-2.34,3.63-7.33,5.17-11,3.2-4.62-2.53-5.83-7.19-4.49-10.54.39-1,.67-2,1.07-2.93a224.16,224.16,0,0,0,13.29-44.25c1.34-6.84,2.42-13.7,3.09-20.66,1-10.81,2-21.62,1.45-32.49-.35-6.52-.79-13-1.43-19.55a240,240,0,0,0-10.58-50,233.75,233.75,0,0,0-33.79-66.44A241.6,241.6,0,0,0,674,270.56a244.55,244.55,0,0,0-42.13-22.08,249.59,249.59,0,0,0-36.41-11.56c-6.19-1.49-12.48-2.54-18.81-3.44a255.72,255.72,0,0,0-39.09-2.69c-7.29.08-14.53.87-21.8,1.43-6.08.46-12.05,1.61-18.07,2.41A104.44,104.44,0,0,0,486.31,237a263.1,263.1,0,0,0-36.84,11.67,243.32,243.32,0,0,0-45.08,24.08,235.55,235.55,0,0,0-53.31,49.61c-1.73,2.19-3.46,4.37-6.36,5.38-3.45,1.2-6.12,0-8.48-2.22A7.65,7.65,0,0,1,334,317a15.92,15.92,0,0,1,2.74-4.57,263.11,263.11,0,0,1,66-59.33,252,252,0,0,1,44.53-22.28,271.93,271.93,0,0,1,28.78-9.17,253.88,253.88,0,0,1,27.89-5.7C516.31,214.15,528.75,213,539.86,213.54Z" transform="translate(-219.78 -213.4)"/><path class="cls-12" d="M540.53,732.85c-5.36,0-10.72.2-16.06-.06a119.29,119.29,0,0,1-15.07-1.53c-3.06-.54-6.18-.62-9.27-1.14-6.88-1.17-13.73-2.47-20.5-4.15-8.21-2-16.3-4.4-24.29-7.18a255.22,255.22,0,0,1-35.47-15.42A260.46,260.46,0,0,1,296.43,561.79a296.57,296.57,0,0,1-11-39.87c-.83-3.91-1.44-7.87-1.95-11.84a33.88,33.88,0,0,1-.17-6.68c.33-4.63,6.15-8.4,10.55-6.91A9.11,9.11,0,0,1,300,503a29.35,29.35,0,0,1,1,4.8A189.12,189.12,0,0,0,307.63,540a238.26,238.26,0,0,0,67.12,110.13A243,243,0,0,0,437.92,693,233.11,233.11,0,0,0,478,707.6c7.44,2,15,3.52,22.63,4.79a266,266,0,0,0,40.81,3.42c8.18.09,16.32-.84,24.47-1.46,6.09-.47,12-1.67,18.08-2.38a93.8,93.8,0,0,0,11.33-2.36c8.64-2.13,17.23-4.44,25.64-7.37,7.29-2.55,14.41-5.47,21.43-8.68a238.51,238.51,0,0,0,46.08-27.74,242.16,242.16,0,0,0,42.16-41.51,32.55,32.55,0,0,1,2.91-3.38,8,8,0,0,1,10.59-.9,8.41,8.41,0,0,1,2.85,11,23.41,23.41,0,0,1-2.49,3.69A261.73,261.73,0,0,1,673,697.14a260.93,260.93,0,0,1-83.26,31.47A126.75,126.75,0,0,1,573,731.12c-2.79.16-5.59.65-8.38,1A159.8,159.8,0,0,1,540.53,732.85Z" transform="translate(-219.78 -213.4)"/><path class="cls-13" d="M315.31,353.58c5-.72,10.9,5.5,8.27,11.57-1.83,4.22-3.78,8.37-5.64,12.57A213.93,213.93,0,0,0,308.4,404a10.48,10.48,0,0,1-3.66,5.9c-2.9,2.14-6,2.53-9.18.76a8.29,8.29,0,0,1-4.52-8.49,19.53,19.53,0,0,1,.84-3.9A279.72,279.72,0,0,1,306.35,361a24.8,24.8,0,0,1,1.9-3.52C309.93,355.08,312.15,353.47,315.31,353.58Z" transform="translate(-219.78 -213.4)"/><path class="cls-14" d="M281.47,455c.33-3.94.55-7,.88-10.12a13.6,13.6,0,0,1,.79-3c1.62-4.69,5.25-6.83,10-5.91a8.81,8.81,0,0,1,7,9c0,.59-.12,1.18-.18,1.77-.24,2.5-.47,5-.72,7.51a12.13,12.13,0,0,1-2,6.27c-2.15,2.9-5.91,4.36-9,3.39a9.14,9.14,0,0,1-6.64-7.57A5.46,5.46,0,0,1,281.47,455Z" transform="translate(-219.78 -213.4)"/></svg>