<svg width="44" height="44" viewBox="0 0 44 44" fill="none" xmlns="http://www.w3.org/2000/svg">
<rect x="1" y="1" width="42" height="42" rx="21" fill="#E7E7E7"/>
<path d="M28 16C27.39 16 26.83 15.65 26.55 15.11L25.83 13.66C25.37 12.75 24.17 12 23.15 12H20.86C19.83 12 18.63 12.75 18.17 13.66L17.45 15.11C17.17 15.65 16.61 16 16 16C13.83 16 12.11 17.83 12.25 19.99L12.77 28.25C12.89 30.31 14 32 16.76 32H27.24C30 32 31.1 30.31 31.23 28.25L31.75 19.99C31.89 17.83 30.17 16 28 16ZM20.5 17.25H23.5C23.91 17.25 24.25 17.59 24.25 18C24.25 18.41 23.91 18.75 23.5 18.75H20.5C20.09 18.75 19.75 18.41 19.75 18C19.75 17.59 20.09 17.25 20.5 17.25ZM22 28.12C20.14 28.12 18.62 26.61 18.62 24.74C18.62 22.87 20.13 21.36 22 21.36C23.87 21.36 25.38 22.87 25.38 24.74C25.38 26.61 23.86 28.12 22 28.12Z" fill="#494949"/>
<rect x="1" y="1" width="42" height="42" rx="21" stroke="#FAFAFA" stroke-width="2"/>
</svg>
