<svg width="22" height="22" viewBox="0 0 22 22" fill="none" xmlns="http://www.w3.org/2000/svg">
<path d="M11 0L0 5.92308L2.93333 7.44615V10.3231C2.05333 10.6615 1.46667 11.6769 1.46667 12.6923C1.46667 13.7077 2.05333 14.7231 2.93333 15.0615V15.2308L1.61333 18.7846C1.17333 20.3077 1.46667 22 3.66667 22C5.86667 22 6.16 20.3077 5.72 18.7846L4.4 15.2308C5.28 14.7231 5.86667 13.8769 5.86667 12.6923C5.86667 11.5077 5.28 10.6615 4.4 10.3231V8.29231L11 11.8462L22 5.92308L11 0ZM17.4533 11L10.8533 14.3846L7.33333 12.5231V12.6923C7.33333 13.8769 6.89333 14.8923 6.16 15.7385L7.04 18.1077V18.2769C7.18667 18.9538 7.33333 19.6308 7.18667 20.3077C8.21333 20.8154 9.38667 21.1538 10.8533 21.1538C15.6933 21.1538 17.4533 17.7692 17.4533 16.0769V11Z" fill="#FF9F71"/>
</svg>
