<svg width="40" height="40" viewBox="0 0 40 40" fill="none" xmlns="http://www.w3.org/2000/svg">
<path d="M40 20C40 31.0457 31.0457 40 20 40C8.9543 40 0 31.0457 0 20C0 8.9543 8.9543 0 20 0C31.0457 0 40 8.9543 40 20Z" fill="#DB1D1D"/>
<path d="M16.141 20.5066L10.6951 15.0606C9.7683 14.1339 9.7683 12.6311 10.6951 11.7043C11.6219 10.7771 13.1246 10.7771 14.051 11.7043L19.4978 17.1503L24.9528 11.6948C25.8796 10.7684 27.3819 10.7684 28.3087 11.6948C29.2359 12.6215 29.2359 14.1243 28.3087 15.0511L22.8537 20.5066L28.2939 25.9469C29.2207 26.8732 29.2207 28.3764 28.2939 29.3027C27.3667 30.2295 25.8644 30.2295 24.9372 29.3027L19.4978 23.8629L14.0549 29.3049C13.1281 30.2317 11.6258 30.2317 10.6986 29.3049C9.77222 28.3781 9.77222 26.8754 10.6986 25.949L16.141 20.5066Z" fill="white"/>
</svg>
