<svg width="25" height="24" viewBox="0 0 25 24" fill="none" xmlns="http://www.w3.org/2000/svg">
<path d="M18.3516 12.8438C15.2758 12.8438 12.7734 15.3461 12.7734 18.4219C12.7734 21.4977 15.2758 24 18.3516 24C21.4532 24 23.9766 21.4977 23.9766 18.4219C23.9766 15.3461 21.4532 12.8438 18.3516 12.8438ZM20.0636 17.747L18.1886 19.997C18.0541 20.1583 17.8557 20.25 17.6485 20.25C17.6215 20.25 17.5945 20.2485 17.5673 20.2453C17.3317 20.2179 17.1256 20.0736 17.0195 19.8613L16.2695 18.3613C16.0958 18.014 16.2367 17.5916 16.584 17.418C16.9312 17.2442 17.3536 17.3851 17.5273 17.7324L17.7965 18.2708L18.9833 16.8467C19.2319 16.5485 19.6753 16.5082 19.9735 16.7567C20.2719 17.0053 20.3122 17.4487 20.0636 17.747Z" fill="#FF7C3C"/>
<path d="M18.0485 4.00561L15.1956 1.05534C15.1943 1.05394 15.1928 1.05248 15.1915 1.05108C14.5346 0.383109 13.6206 0 12.6839 0H3.63281C2.4697 0 1.52344 0.946266 1.52344 2.10938V20.3438C1.52344 21.5069 2.4697 22.4531 3.63281 22.4531H12.6511C11.8428 21.3135 11.3672 19.9223 11.3672 18.4219C11.3672 14.5707 14.5004 11.4375 18.3516 11.4375C18.5888 11.4375 18.8234 11.4494 19.0547 11.4723V6.46781C19.0547 5.54114 18.6974 4.66688 18.0485 4.00561ZM8.97656 15.7031H5.22656C4.83825 15.7031 4.52344 15.3883 4.52344 15C4.52344 14.6117 4.83825 14.2969 5.22656 14.2969H8.97656C9.36487 14.2969 9.67969 14.6117 9.67969 15C9.67969 15.3883 9.36487 15.7031 8.97656 15.7031ZM8.97656 11.9531H5.22656C4.83825 11.9531 4.52344 11.6383 4.52344 11.25C4.52344 10.8617 4.83825 10.5469 5.22656 10.5469H8.97656C9.36487 10.5469 9.67969 10.8617 9.67969 11.25C9.67969 11.6383 9.36487 11.9531 8.97656 11.9531ZM8.97656 8.20312H5.22656C4.83825 8.20312 4.52344 7.88831 4.52344 7.5C4.52344 7.11169 4.83825 6.79688 5.22656 6.79688H8.97656C9.36487 6.79688 9.67969 7.11169 9.67969 7.5C9.67969 7.88831 9.36487 8.20312 8.97656 8.20312ZM13.4766 11.9531H12.7266C12.3383 11.9531 12.0234 11.6383 12.0234 11.25C12.0234 10.8617 12.3383 10.5469 12.7266 10.5469H13.4766C13.8649 10.5469 14.1797 10.8617 14.1797 11.25C14.1797 11.6383 13.8649 11.9531 13.4766 11.9531ZM13.4766 8.20312H12.7266C12.3383 8.20312 12.0234 7.88831 12.0234 7.5C12.0234 7.11169 12.3383 6.79688 12.7266 6.79688H13.4766C13.8649 6.79688 14.1797 7.11169 14.1797 7.5C14.1797 7.88831 13.8649 8.20312 13.4766 8.20312Z" fill="#FF7C3C"/>
</svg>
