<svg width="29" height="23" viewBox="0 0 29 23" fill="none" xmlns="http://www.w3.org/2000/svg">
<path d="M28.9426 11.1595C27.8058 8.11759 25.8322 5.48686 23.2659 3.59244C20.6996 1.69802 17.653 0.622921 14.5026 0.5C11.3521 0.622921 8.3055 1.69802 5.7392 3.59244C3.1729 5.48686 1.19938 8.11759 0.0625057 11.1595C-0.0143248 11.3793 -0.0143248 11.62 0.0625057 11.8397C1.19938 14.8817 3.1729 17.5124 5.7392 19.4068C8.3055 21.3013 11.3521 22.3764 14.5026 22.4993C17.653 22.3764 20.6996 21.3013 23.2659 19.4068C25.8322 17.5124 27.8058 14.8817 28.9426 11.8397C29.0195 11.62 29.0195 11.3793 28.9426 11.1595ZM14.5026 18.0005C13.6718 18.0096 12.8475 17.8482 12.0774 17.5255C11.3073 17.2029 10.6067 16.7256 10.0161 16.121C9.42552 15.5165 8.95667 14.7968 8.6367 14.0036C8.31672 13.2104 8.15197 12.3595 8.15197 11.5C8.15197 10.6405 8.31672 9.78956 8.6367 8.99637C8.95667 8.20319 9.42552 7.48351 10.0161 6.87898C10.6067 6.27445 11.3073 5.79707 12.0774 5.47446C12.8475 5.15185 13.6718 4.99041 14.5026 4.99949C15.8596 5.01298 17.1769 5.47458 18.2625 6.31699C19.348 7.15939 20.145 8.33853 20.5373 9.68244C20.7093 10.2717 20.7932 10.8848 20.7861 11.5004C20.7837 13.2237 20.1208 14.8758 18.9428 16.0944C17.7648 17.313 16.1678 17.9987 14.5019 18.0012L14.5026 18.0005Z" fill="#DB1D1D"/>
</svg>
