<svg width="40" height="40" viewBox="0 0 40 40" fill="none" xmlns="http://www.w3.org/2000/svg">
<rect width="40" height="40" rx="20" fill="#ECF4FF"/>
<path d="M18.1571 10.6788C19.219 9.77375 20.781 9.77375 21.8429 10.6788L22.6344 11.3533C23.0895 11.7411 23.6553 11.9754 24.2513 12.023L25.288 12.1057C26.6788 12.2167 27.7833 13.3212 27.8943 14.712L27.977 15.7487C28.0246 16.3447 28.2589 16.9105 28.6467 17.3656L29.3212 18.1571C30.2263 19.219 30.2262 20.781 29.3212 21.8429L28.6467 22.6344C28.2589 23.0895 28.0246 23.6553 27.977 24.2513L27.8943 25.288C27.7833 26.6788 26.6788 27.7833 25.288 27.8943L24.2513 27.977C23.6553 28.0246 23.0895 28.2589 22.6344 28.6467L21.8429 29.3212C20.781 30.2263 19.219 30.2262 18.1571 29.3212L17.3656 28.6467C16.9105 28.2589 16.3447 28.0246 15.7487 27.977L14.712 27.8943C13.3212 27.7833 12.2167 26.6788 12.1057 25.288L12.023 24.2513C11.9754 23.6553 11.7411 23.0895 11.3533 22.6344L10.6788 21.8429C9.77375 20.781 9.77375 19.219 10.6788 18.1571L11.3533 17.3656C11.7411 16.9105 11.9754 16.3447 12.023 15.7487L12.1057 14.712C12.2167 13.3212 13.3212 12.2167 14.712 12.1057L15.7487 12.023C16.3447 11.9754 16.9105 11.7411 17.3656 11.3533L18.1571 10.6788Z" fill="#348CFF"/>
<path d="M19.5434 17.0383C19.7699 16.4938 20.5413 16.4938 20.7677 17.0383L21.2526 18.2041C21.3481 18.4337 21.564 18.5905 21.8118 18.6104L23.0705 18.7113C23.6583 18.7584 23.8967 19.492 23.4488 19.8757L22.4898 20.6971C22.301 20.8589 22.2186 21.1126 22.2762 21.3545L22.5692 22.5827C22.7061 23.1563 22.082 23.6097 21.5788 23.3023L20.5012 22.6441C20.289 22.5145 20.0222 22.5145 19.81 22.6441L18.7324 23.3023C18.2291 23.6097 17.6051 23.1563 17.7419 22.5827L18.0349 21.3545C18.0926 21.1126 18.0102 20.8589 17.8213 20.6971L16.8624 19.8757C16.4145 19.492 16.6529 18.7584 17.2407 18.7113L18.4994 18.6104C18.7472 18.5905 18.9631 18.4337 19.0585 18.2041L19.5434 17.0383Z" fill="white"/>
</svg>
