<svg width="17" height="16" viewBox="0 0 17 16" fill="none" xmlns="http://www.w3.org/2000/svg">
<path d="M14.48 0.666992H12.52C11.94 0.666992 11.5133 0.906992 11.32 1.33366C11.2133 1.52699 11.1666 1.75366 11.1666 2.02033V3.98033C11.1666 4.82699 11.6733 5.33366 12.52 5.33366H14.48C14.7466 5.33366 14.9733 5.28699 15.1666 5.18033C15.5933 4.98699 15.8333 4.56033 15.8333 3.98033V2.02033C15.8333 1.17366 15.3266 0.666992 14.48 0.666992ZM15.1066 3.28699C15.04 3.35366 14.94 3.40033 14.8333 3.40699H13.8933V3.74699L13.9 4.33366C13.8933 4.44699 13.8533 4.54033 13.7733 4.62033C13.7066 4.68699 13.6066 4.73366 13.5 4.73366C13.28 4.73366 13.1 4.55366 13.1 4.33366V3.40033L12.1666 3.40699C11.9466 3.40699 11.7666 3.22033 11.7666 3.00033C11.7666 2.78033 11.9466 2.60033 12.1666 2.60033L12.7533 2.60699H13.1V1.67366C13.1 1.45366 13.28 1.26699 13.5 1.26699C13.72 1.26699 13.9 1.45366 13.9 1.67366L13.8933 2.14699V2.60033H14.8333C15.0533 2.60033 15.2333 2.78033 15.2333 3.00033C15.2266 3.11366 15.18 3.20699 15.1066 3.28699Z" fill="white"/>
<path d="M6.5 6.9204C7.37629 6.9204 8.08666 6.21003 8.08666 5.33374C8.08666 4.45745 7.37629 3.74707 6.5 3.74707C5.6237 3.74707 4.91333 4.45745 4.91333 5.33374C4.91333 6.21003 5.6237 6.9204 6.5 6.9204Z" fill="white"/>
<path d="M14.48 5.33301H14.1667V8.40634L14.08 8.33301C13.56 7.88634 12.72 7.88634 12.2 8.33301L9.42671 10.713C8.90671 11.1597 8.06671 11.1597 7.54671 10.713L7.32004 10.5263C6.84671 10.113 6.09337 10.073 5.56004 10.433L3.06671 12.1063C2.92004 11.733 2.83337 11.2997 2.83337 10.793V5.20634C2.83337 3.32634 3.82671 2.33301 5.70671 2.33301H11.1667V2.01967C11.1667 1.75301 11.2134 1.52634 11.32 1.33301H5.70671C3.28004 1.33301 1.83337 2.77967 1.83337 5.20634V10.793C1.83337 11.5197 1.96004 12.153 2.20671 12.6863C2.78004 13.953 4.00671 14.6663 5.70671 14.6663H11.2934C13.72 14.6663 15.1667 13.2197 15.1667 10.793V5.17967C14.9734 5.28634 14.7467 5.33301 14.48 5.33301Z" fill="white"/>
</svg>
