<svg width="22" height="26" viewBox="0 0 22 26" fill="none" xmlns="http://www.w3.org/2000/svg">
<path d="M11.7909 1.25868C11.3347 0.871456 10.6653 0.871455 10.2091 1.25868L0.352889 9.62475C0.129045 9.81475 1.21655e-05 10.0935 1.18486e-05 10.3871L0 21.3651C-3.95745e-06 23.3902 1.64162 25.0318 3.66667 25.0318H6.83333C7.10947 25.0318 7.33333 24.8079 7.33333 24.5318V20.1429C7.33333 18.7929 8.42775 17.6984 9.77778 17.6984H12.2222C13.5723 17.6984 14.6667 18.7929 14.6667 20.1429V24.5318C14.6667 24.8079 14.8905 25.0318 15.1667 25.0318H18.3333C20.3584 25.0318 22 23.3902 22 21.3651V10.3871C22 10.0935 21.871 9.81475 21.6471 9.62475L11.7909 1.25868Z" fill="white"/>
</svg>
