<svg width="19" height="18" viewBox="0 0 19 18" fill="none" xmlns="http://www.w3.org/2000/svg">
<path d="M13.0427 2.67V1.5C13.0427 1.1925 12.7877 0.9375 12.4802 0.9375C12.1727 0.9375 11.9177 1.1925 11.9177 1.5V2.625H7.04265V1.5C7.04265 1.1925 6.78765 0.9375 6.48015 0.9375C6.17265 0.9375 5.91765 1.1925 5.91765 1.5V2.67C3.89265 2.8575 2.91015 4.065 2.76015 5.8575C2.74515 6.075 2.92515 6.255 3.13515 6.255H15.8252C16.0427 6.255 16.2227 6.0675 16.2002 5.8575C16.0502 4.065 15.0677 2.8575 13.0427 2.67Z" fill="#348CFF"/>
<path d="M15.4801 7.37988H3.4801C3.0676 7.37988 2.7301 7.71738 2.7301 8.12988V12.7499C2.7301 14.9999 3.8551 16.4999 6.4801 16.4999H12.4801C15.1051 16.4999 16.2301 14.9999 16.2301 12.7499V8.12988C16.2301 7.71738 15.8926 7.37988 15.4801 7.37988ZM7.3876 13.6574C7.3501 13.6874 7.3126 13.7249 7.2751 13.7474C7.2301 13.7774 7.1851 13.7999 7.1401 13.8149C7.0951 13.8374 7.0501 13.8524 7.0051 13.8599C6.9526 13.8674 6.9076 13.8749 6.8551 13.8749C6.7576 13.8749 6.6601 13.8524 6.5701 13.8149C6.4726 13.7774 6.3976 13.7249 6.3226 13.6574C6.1876 13.5149 6.1051 13.3199 6.1051 13.1249C6.1051 12.9299 6.1876 12.7349 6.3226 12.5924C6.3976 12.5249 6.4726 12.4724 6.5701 12.4349C6.7051 12.3749 6.8551 12.3599 7.0051 12.3899C7.0501 12.3974 7.0951 12.4124 7.1401 12.4349C7.1851 12.4499 7.2301 12.4724 7.2751 12.5024C7.3126 12.5324 7.3501 12.5624 7.3876 12.5924C7.5226 12.7349 7.6051 12.9299 7.6051 13.1249C7.6051 13.3199 7.5226 13.5149 7.3876 13.6574ZM7.3876 11.0324C7.2451 11.1674 7.0501 11.2499 6.8551 11.2499C6.6601 11.2499 6.4651 11.1674 6.3226 11.0324C6.1876 10.8899 6.1051 10.6949 6.1051 10.4999C6.1051 10.3049 6.1876 10.1099 6.3226 9.96738C6.5326 9.75738 6.8626 9.68988 7.1401 9.80988C7.2376 9.84738 7.3201 9.89988 7.3876 9.96738C7.5226 10.1099 7.6051 10.3049 7.6051 10.4999C7.6051 10.6949 7.5226 10.8899 7.3876 11.0324ZM10.0126 13.6574C9.8701 13.7924 9.6751 13.8749 9.4801 13.8749C9.2851 13.8749 9.0901 13.7924 8.9476 13.6574C8.8126 13.5149 8.7301 13.3199 8.7301 13.1249C8.7301 12.9299 8.8126 12.7349 8.9476 12.5924C9.2251 12.3149 9.7351 12.3149 10.0126 12.5924C10.1476 12.7349 10.2301 12.9299 10.2301 13.1249C10.2301 13.3199 10.1476 13.5149 10.0126 13.6574ZM10.0126 11.0324C9.9751 11.0624 9.9376 11.0924 9.9001 11.1224C9.8551 11.1524 9.8101 11.1749 9.7651 11.1899C9.7201 11.2124 9.6751 11.2274 9.6301 11.2349C9.5776 11.2424 9.5326 11.2499 9.4801 11.2499C9.2851 11.2499 9.0901 11.1674 8.9476 11.0324C8.8126 10.8899 8.7301 10.6949 8.7301 10.4999C8.7301 10.3049 8.8126 10.1099 8.9476 9.96738C9.0151 9.89988 9.0976 9.84738 9.1951 9.80988C9.4726 9.68988 9.8026 9.75738 10.0126 9.96738C10.1476 10.1099 10.2301 10.3049 10.2301 10.4999C10.2301 10.6949 10.1476 10.8899 10.0126 11.0324ZM12.6376 13.6574C12.4951 13.7924 12.3001 13.8749 12.1051 13.8749C11.9101 13.8749 11.7151 13.7924 11.5726 13.6574C11.4376 13.5149 11.3551 13.3199 11.3551 13.1249C11.3551 12.9299 11.4376 12.7349 11.5726 12.5924C11.8501 12.3149 12.3601 12.3149 12.6376 12.5924C12.7726 12.7349 12.8551 12.9299 12.8551 13.1249C12.8551 13.3199 12.7726 13.5149 12.6376 13.6574ZM12.6376 11.0324C12.6001 11.0624 12.5626 11.0924 12.5251 11.1224C12.4801 11.1524 12.4351 11.1749 12.3901 11.1899C12.3451 11.2124 12.3001 11.2274 12.2551 11.2349C12.2026 11.2424 12.1501 11.2499 12.1051 11.2499C11.9101 11.2499 11.7151 11.1674 11.5726 11.0324C11.4376 10.8899 11.3551 10.6949 11.3551 10.4999C11.3551 10.3049 11.4376 10.1099 11.5726 9.96738C11.6476 9.89988 11.7226 9.84738 11.8201 9.80988C11.9551 9.74988 12.1051 9.73488 12.2551 9.76488C12.3001 9.77238 12.3451 9.78738 12.3901 9.80988C12.4351 9.82488 12.4801 9.84738 12.5251 9.87738C12.5626 9.90738 12.6001 9.93738 12.6376 9.96738C12.7726 10.1099 12.8551 10.3049 12.8551 10.4999C12.8551 10.6949 12.7726 10.8899 12.6376 11.0324Z" fill="#348CFF"/>
</svg>
