<svg width="26" height="32" viewBox="0 0 26 32" fill="none" xmlns="http://www.w3.org/2000/svg">
<path d="M13 21.9078C16.4469 21.9078 19.25 19.1047 19.25 15.6578V6.28281C19.25 2.81875 16.4609 0 13.0328 0C12.9228 0.000660788 12.8133 0.013765 12.7063 0.0390625C11.102 0.116844 9.58895 0.808366 8.48028 1.97055C7.37161 3.13273 6.75212 4.67663 6.75 6.28281V15.6578C6.75 19.1047 9.55312 21.9078 13 21.9078Z" fill="#FF7C3C"/>
<path d="M11.4375 28.0504V31.2832H14.5625V28.0504C20.7172 27.277 25.5 22.0223 25.5 15.6582H22.375C22.375 20.8285 18.1703 25.0332 13 25.0332C7.82969 25.0332 3.625 20.8285 3.625 15.6582H0.5C0.5 22.0207 5.28281 27.277 11.4375 28.0504Z" fill="#FF7C3C"/>
</svg>
