<svg width="56" height="56" viewBox="0 0 56 56" fill="none" xmlns="http://www.w3.org/2000/svg">
<rect width="56" height="56" rx="10" fill="#0F70FF"/>
<path d="M33 18H23C20.24 18 18 20.23 18 22.98V28.96V29.96C18 32.71 20.24 34.94 23 34.94H24.5C24.77 34.94 25.13 35.12 25.3 35.34L26.8 37.33C27.46 38.21 28.54 38.21 29.2 37.33L30.7 35.34C30.89 35.09 31.19 34.94 31.5 34.94H33C35.76 34.94 38 32.71 38 29.96V22.98C38 20.23 35.76 18 33 18ZM24 28C23.44 28 23 27.55 23 27C23 26.45 23.45 26 24 26C24.55 26 25 26.45 25 27C25 27.55 24.56 28 24 28ZM28 28C27.44 28 27 27.55 27 27C27 26.45 27.45 26 28 26C28.55 26 29 26.45 29 27C29 27.55 28.56 28 28 28ZM32 28C31.44 28 31 27.55 31 27C31 26.45 31.45 26 32 26C32.55 26 33 26.45 33 27C33 27.55 32.56 28 32 28Z" fill="#E7E7E7"/>
</svg>
