<svg width="20" height="22" viewBox="0 0 20 22" fill="none" xmlns="http://www.w3.org/2000/svg">
<path d="M19.2161 13.8774L17.2528 11.8239V9.10345C17.2505 7.22346 16.5819 5.41113 15.3762 4.01688C14.1705 2.62264 12.5134 1.74554 10.7253 1.55517V0H9.27474V1.55517C7.48663 1.74554 5.82951 2.62264 4.62382 4.01688C3.41813 5.41113 2.74952 7.22346 2.74727 9.10345V11.8239L0.783947 13.8774C0.647922 14.0197 0.571483 14.2126 0.571442 14.4138V16.6897C0.571442 16.8909 0.647854 17.0838 0.78387 17.2261C0.919885 17.3684 1.10436 17.4483 1.29672 17.4483H6.37364V18.2069C6.37364 19.2129 6.7557 20.1777 7.43578 20.889C8.11586 21.6004 9.03824 22 10 22C10.9618 22 11.8842 21.6004 12.5642 20.889C13.2443 20.1777 13.6264 19.2129 13.6264 18.2069V17.4483H18.7033C18.8957 17.4483 19.0801 17.3684 19.2162 17.2261C19.3522 17.0838 19.4286 16.8909 19.4286 16.6897V14.4138C19.4285 14.2126 19.3521 14.0197 19.2161 13.8774ZM12.1758 18.2069C12.1758 18.8105 11.9466 19.3894 11.5386 19.8162C11.1305 20.243 10.5771 20.4828 10 20.4828C9.42295 20.4828 8.86952 20.243 8.46147 19.8162C8.05343 19.3894 7.82419 18.8105 7.82419 18.2069V17.4483H12.1758V18.2069Z" fill="white"/>
</svg>
