<svg width="22" height="22" viewBox="0 0 22 22" fill="none" xmlns="http://www.w3.org/2000/svg">
<path d="M13.75 0H2.75C2.02065 0 1.32118 0.231785 0.805456 0.644365C0.289731 1.05694 0 1.61652 0 2.2V19.8C0 20.3835 0.289731 20.9431 0.805456 21.3556C1.32118 21.7682 2.02065 22 2.75 22H19.25C19.9793 22 20.6788 21.7682 21.1945 21.3556C21.7103 20.9431 22 20.3835 22 19.8V6.6L13.75 0ZM7.55975 15.609C7.13488 15.928 6.50787 16.071 5.77775 16.071C5.63618 16.0722 5.49468 16.0656 5.35425 16.0512V17.6198H4.125V13.2902C4.67975 13.224 5.24029 13.1938 5.80112 13.2C6.567 13.2 7.1115 13.3166 7.47863 13.5509C7.82788 13.7731 8.06437 14.1372 8.06437 14.5662C8.063 14.9974 7.88425 15.3615 7.55975 15.609ZM12.7944 17.0995C12.2169 17.4834 11.3383 17.666 10.2644 17.666C9.62088 17.666 9.16575 17.633 8.85637 17.6V13.2913C9.41133 13.2265 9.97169 13.196 10.5325 13.2C11.5734 13.2 12.2499 13.3496 12.7779 13.6686C13.3485 14.0074 13.706 14.5475 13.706 15.323C13.706 16.1623 13.3224 16.742 12.7944 17.0995ZM17.875 14.047H15.7685V15.0491H17.7375V15.8565H15.7685V17.6209H14.5228V13.233H17.875V14.047ZM13.75 7.7H12.375V2.2L19.25 7.7H13.75Z" fill="white"/>
</svg>
