<svg width="31" height="30" viewBox="0 0 31 30" fill="none" xmlns="http://www.w3.org/2000/svg">
<path d="M25.7632 7.68698V12.2838C25.7632 12.2838 22.6211 12.2992 22.6053 12.2838V7.68698H17.8684C17.8684 7.68698 17.8842 4.62756 17.8684 4.61219H22.6053V0H25.7632V4.61219H30.5V7.68698H25.7632ZM21.0263 13.8366V9.22438H16.2895V4.61219H3.65789C1.92105 4.61219 0.5 5.99585 0.5 7.68698V26.1357C0.5 27.8269 1.92105 29.2105 3.65789 29.2105H22.6053C24.3421 29.2105 25.7632 27.8269 25.7632 26.1357V13.8366H21.0263ZM3.65789 26.1357L8.39474 19.9862L11.5526 24.5983L16.2895 18.4488L22.6053 26.1357H3.65789Z" fill="#FF7C3C"/>
</svg>
