<svg width="121" height="121" viewBox="0 0 121 121" fill="none" xmlns="http://www.w3.org/2000/svg">
<path d="M12.6914 44.0633C12.6392 44.0633 12.5814 44.066 12.5292 44.0578C11.7729 43.9698 11.2339 43.2878 11.3219 42.5343C14.1269 18.2848 34.6804 0 59.1252 0H61.8752C86.2842 0 106.835 18.2572 109.673 42.4655C109.761 43.2163 109.219 43.8983 108.466 43.989C107.718 44.0853 107.03 43.5408 106.942 42.7845C104.266 19.9595 84.8899 2.75 61.8752 2.75H59.1252C36.0747 2.75 16.6982 19.987 14.0527 42.8505C13.9729 43.549 13.3789 44.0633 12.6914 44.0633Z" fill="#0F70FF"/>
<path d="M55.0002 12.375H66.0002C83.9082 12.375 99.4457 22.4537 107.3 37.2405C102.385 16.6787 83.9384 1.375 61.8752 1.375H59.1252C37.0619 1.375 18.6149 16.6787 13.7007 37.2405C21.5547 22.4537 37.0922 12.375 55.0002 12.375Z" fill="#0F70FF"/>
<path d="M107.302 38.6128C106.805 38.6128 106.332 38.3405 106.087 37.8812C98.1805 22.9955 82.8218 13.75 66.0028 13.75H55.0028C38.1838 13.75 22.8223 22.9955 14.916 37.8812C14.5915 38.4917 13.8573 38.764 13.2165 38.522C12.5675 38.28 12.2018 37.5897 12.364 36.916C17.5588 15.1827 36.7868 0 59.125 0H61.8778C84.0923 0 103.23 15.0122 108.551 36.5557C108.666 36.7537 108.732 36.9875 108.732 37.2378C108.732 37.9995 108.048 38.5193 107.335 38.6128H107.302ZM55 11H66.0028C80.1185 11 93.2635 17.138 102.292 27.5247C94.71 12.5427 79.2963 2.75 61.8778 2.75H59.125C41.7065 2.75 26.2928 12.5427 18.711 27.5247C27.7393 17.138 40.8843 11 55 11Z" fill="#0F70FF"/>
<path d="M31.5671 15.169C31.1656 15.169 30.7641 14.993 30.4946 14.6547C30.0188 14.0635 30.1123 13.1972 30.7036 12.7187C38.7006 6.28925 48.7958 2.75 59.1276 2.75H61.8776C68.3346 2.75 74.5743 4.07275 80.4181 6.6825C81.1111 6.99325 81.4218 7.8045 81.1138 8.50025C80.8031 9.1905 79.9918 9.5095 79.2961 9.196C73.8071 6.74575 67.9468 5.5 61.8776 5.5H59.1276C49.4201 5.5 39.9353 8.82475 32.4278 14.8637C32.1748 15.0672 31.8696 15.169 31.5671 15.169Z" fill="white"/>
<path d="M12.375 83.875H15.125V50.875H12.375C6.30025 50.875 1.375 55.8002 1.375 61.875V72.875C1.375 78.9498 6.30025 83.875 12.375 83.875Z" fill="#0F70FF"/>
<path d="M9.79 84.9423C9.68275 84.9423 9.5755 84.9341 9.4655 84.9066C3.894 83.5646 0 78.6146 0 72.8753V61.8753C0 56.2791 3.773 51.3593 9.17675 49.9211C9.90275 49.7203 10.6645 50.1548 10.8598 50.8891C11.055 51.6233 10.6205 52.3768 9.88625 52.5721C5.68425 53.6941 2.75 57.5193 2.75 61.8753V72.8753C2.75 77.3386 5.77775 81.1886 10.1117 82.2336C10.8488 82.4096 11.3025 83.1521 11.1238 83.8891C10.9725 84.5188 10.4115 84.9423 9.79 84.9423Z" fill="#0F70FF"/>
<path d="M4.125 74.2495C3.366 74.2495 2.75 73.6335 2.75 72.8745V61.8745C2.75 57.7165 5.40375 54.0425 9.35275 52.7362C10.0733 52.5025 10.8543 52.8875 11.0908 53.608C11.33 54.3285 10.9395 55.1067 10.219 55.346C7.39475 56.281 5.5 58.9045 5.5 61.8745V72.8745C5.5 73.6335 4.884 74.2495 4.125 74.2495Z" fill="#E8EAF6"/>
<path d="M22 89.375H19.25C16.9703 89.375 15.125 87.527 15.125 85.25V49.5C15.125 47.223 16.9703 45.375 19.25 45.375H22C24.2797 45.375 26.125 47.223 26.125 49.5V85.25C26.125 87.527 24.2797 89.375 22 89.375Z" fill="#0F70FF"/>
<path d="M22 90.7505H19.25C16.2168 90.7505 13.75 88.2865 13.75 85.2505V49.5005C13.75 46.4645 16.2168 44.0005 19.25 44.0005H22C25.0333 44.0005 27.5 46.4645 27.5 49.5005V85.2505C27.5 88.2865 25.0333 90.7505 22 90.7505ZM19.25 46.7505C17.7348 46.7505 16.5 47.9852 16.5 49.5005V85.2505C16.5 86.7657 17.7348 88.0005 19.25 88.0005H22C23.5153 88.0005 24.75 86.7657 24.75 85.2505V49.5005C24.75 47.9852 23.5153 46.7505 22 46.7505H19.25Z" fill="#0F70FF"/>
<path d="M17.875 83.875C17.116 83.875 16.5 83.259 16.5 82.5V49.5C16.5 47.9847 17.7348 46.75 19.25 46.75H20.625C21.384 46.75 22 47.366 22 48.125C22 48.884 21.384 49.5 20.625 49.5H19.25V82.5C19.25 83.259 18.634 83.875 17.875 83.875Z" fill="white"/>
<path d="M70.125 116.875H50.875C50.116 116.875 49.5 116.259 49.5 115.5C49.5 114.741 50.116 114.125 50.875 114.125H70.125C84.3507 114.125 97.5095 105.826 103.645 92.9806C103.972 92.2958 104.792 92.0043 105.476 92.3316C106.164 92.6588 106.452 93.4783 106.125 94.1658C99.5362 107.96 85.4067 116.875 70.125 116.875Z" fill="#0F70FF"/>
<path d="M70.125 119.624H53.625C52.107 119.624 50.875 118.395 50.875 116.874V114.124C50.875 112.603 52.107 111.374 53.625 111.374H70.125C71.643 111.374 72.875 112.603 72.875 114.124V116.874C72.875 118.395 71.643 119.624 70.125 119.624Z" fill="#E0B315"/>
<path d="M70.125 121H53.625C51.3508 121 49.5 119.149 49.5 116.875V114.125C49.5 111.85 51.3508 110 53.625 110H70.125C72.3993 110 74.25 111.85 74.25 114.125V116.875C74.25 119.149 72.3993 121 70.125 121ZM53.625 112.75C52.866 112.75 52.25 113.368 52.25 114.125V116.875C52.25 117.631 52.866 118.25 53.625 118.25H70.125C70.884 118.25 71.5 117.631 71.5 116.875V114.125C71.5 113.368 70.884 112.75 70.125 112.75H53.625Z" fill="#0F70FF"/>
<path d="M53.625 116.874C52.866 116.874 52.25 116.258 52.25 115.499V114.124C52.25 113.365 52.866 112.749 53.625 112.749H67.375C68.134 112.749 68.75 113.365 68.75 114.124C68.75 114.883 68.134 115.499 67.375 115.499H55C55 116.258 54.384 116.874 53.625 116.874Z" fill="#FFF8E0"/>
<path d="M108.625 83.875H105.875V50.875H108.625C114.7 50.875 119.625 55.8002 119.625 61.875V72.875C119.625 78.9498 114.7 83.875 108.625 83.875Z" fill="#0F70FF"/>
<path d="M111.235 84.936C110.616 84.936 110.052 84.518 109.901 83.8883C109.719 83.1513 110.173 82.4088 110.91 82.2273C115.233 81.1768 118.25 77.3295 118.25 72.8745V61.8745C118.25 57.5295 115.324 53.707 111.133 52.5768C110.401 52.3815 109.964 51.628 110.159 50.8938C110.357 50.1623 111.119 49.725 111.848 49.9258C117.238 51.375 121 56.2893 121 61.8745V72.8745C121 78.6028 117.117 83.5473 111.559 84.9003C111.449 84.9278 111.342 84.936 111.235 84.936Z" fill="#0F70FF"/>
<path d="M108.625 81.125C107.866 81.125 107.25 80.509 107.25 79.75V55C107.25 54.241 107.866 53.625 108.625 53.625C109.384 53.625 110 54.241 110 55V79.75C110 80.509 109.384 81.125 108.625 81.125Z" fill="#E8EAF6"/>
<path d="M101.75 89.375H99C96.7203 89.375 94.875 87.527 94.875 85.25V49.5C94.875 47.223 96.7203 45.375 99 45.375H101.75C104.03 45.375 105.875 47.223 105.875 49.5V85.25C105.875 87.527 104.03 89.375 101.75 89.375Z" fill="#0F70FF"/>
<path d="M101.75 90.7505H99C95.9668 90.7505 93.5 88.2865 93.5 85.2505V49.5005C93.5 46.4645 95.9668 44.0005 99 44.0005H101.75C104.783 44.0005 107.25 46.4645 107.25 49.5005V85.2505C107.25 88.2865 104.783 90.7505 101.75 90.7505ZM99 46.7505C97.4848 46.7505 96.25 47.9852 96.25 49.5005V85.2505C96.25 86.7657 97.4848 88.0005 99 88.0005H101.75C103.265 88.0005 104.5 86.7657 104.5 85.2505V49.5005C104.5 47.9852 103.265 46.7505 101.75 46.7505H99Z" fill="#0F70FF"/>
<path d="M97.625 83.875C96.866 83.875 96.25 83.259 96.25 82.5V49.5C96.25 47.9847 97.4848 46.75 99 46.75H100.375C101.134 46.75 101.75 47.366 101.75 48.125C101.75 48.884 101.134 49.5 100.375 49.5H99V82.5C99 83.259 98.384 83.875 97.625 83.875Z" fill="white"/>
<path d="M34.375 39.874V75.624C34.375 77.1448 35.607 78.374 37.125 78.374H60.5L69.1872 88.4363C69.5337 88.7855 70.125 88.538 70.125 88.0513V78.374H83.875C85.393 78.374 86.625 77.1448 86.625 75.624V39.874C86.625 38.3533 85.393 37.124 83.875 37.124H37.125C35.607 37.124 34.375 38.3533 34.375 39.874Z" fill="#F5F5F5"/>
<path d="M69.5695 89.9735C69.0608 89.9735 68.5795 89.7728 68.2138 89.407L59.8703 79.749H37.125C34.8508 79.749 33 77.8983 33 75.624V39.874C33 37.5998 34.8508 35.749 37.125 35.749H83.875C86.1493 35.749 88 37.5998 88 39.874V75.624C88 77.8983 86.1493 79.749 83.875 79.749H71.5V88.0485C71.5 88.5848 71.2828 89.0853 70.8923 89.4483C70.532 89.7865 70.0645 89.9735 69.5695 89.9735ZM37.125 38.499C36.366 38.499 35.75 39.1178 35.75 39.874V75.624C35.75 76.3803 36.366 76.999 37.125 76.999H60.5C60.9015 76.999 61.281 77.1723 61.5395 77.4775L68.75 85.8265V78.374C68.75 77.615 69.366 76.999 70.125 76.999H83.875C84.634 76.999 85.25 76.3803 85.25 75.624V39.874C85.25 39.1178 84.634 38.499 83.875 38.499H37.125Z" fill="#0F70FF"/>
<path d="M37.125 74.25C36.366 74.25 35.75 73.634 35.75 72.875V39.875C35.75 39.116 36.366 38.5 37.125 38.5H81.125C81.884 38.5 82.5 39.116 82.5 39.875C82.5 40.634 81.884 41.25 81.125 41.25H38.5V72.875C38.5 73.634 37.884 74.25 37.125 74.25Z" fill="white"/>
<path d="M67.375 66H42.625C41.866 66 41.25 65.384 41.25 64.625C41.25 63.866 41.866 63.25 42.625 63.25H67.375C68.134 63.25 68.75 63.866 68.75 64.625C68.75 65.384 68.134 66 67.375 66Z" fill="#0F70FF"/>
<path d="M78.375 57.7495H42.625C41.866 57.7495 41.25 57.1335 41.25 56.3745C41.25 55.6155 41.866 54.9995 42.625 54.9995H78.375C79.134 54.9995 79.75 55.6155 79.75 56.3745C79.75 57.1335 79.134 57.7495 78.375 57.7495Z" fill="#0F70FF"/>
<path d="M78.375 49.499H42.625C41.866 49.499 41.25 48.883 41.25 48.124C41.25 47.365 41.866 46.749 42.625 46.749H78.375C79.134 46.749 79.75 47.365 79.75 48.124C79.75 48.883 79.134 49.499 78.375 49.499Z" fill="#0F70FF"/>
</svg>
