<svg width="16" height="16" viewBox="0 0 16 16" fill="none" xmlns="http://www.w3.org/2000/svg">
<path d="M14.1667 12.3137L13.0667 12.5737C12.82 12.6337 12.6267 12.8204 12.5733 13.0671L12.34 14.0471C12.2133 14.5804 11.5333 14.7471 11.18 14.3271L9.18667 12.0337C9.02667 11.8471 9.11334 11.5537 9.35334 11.4937C10.5333 11.2071 11.5933 10.5471 12.3733 9.60707C12.5 9.45373 12.7267 9.43373 12.8667 9.57373L14.3467 11.0537C14.8533 11.5604 14.6733 12.1937 14.1667 12.3137Z" fill="#16AD64"/>
<path d="M1.79999 12.3137L2.89999 12.5737C3.14665 12.6337 3.33999 12.8204 3.39332 13.0671L3.62665 14.0471C3.75332 14.5804 4.43332 14.7471 4.78665 14.3271L6.77999 12.0337C6.93999 11.8471 6.85332 11.5537 6.61332 11.4937C5.43332 11.2071 4.37332 10.5471 3.59332 9.60707C3.46665 9.45373 3.23999 9.43373 3.09999 9.57373L1.61999 11.0537C1.11332 11.5604 1.29332 12.1937 1.79999 12.3137Z" fill="#16AD64"/>
<path d="M8.00001 1.33301C5.42001 1.33301 3.33334 3.41967 3.33334 5.99967C3.33334 6.96634 3.62001 7.85301 4.11334 8.59301C4.83334 9.65967 5.97334 10.413 7.30001 10.6063C7.52668 10.6463 7.76001 10.6663 8.00001 10.6663C8.24001 10.6663 8.47334 10.6463 8.70001 10.6063C10.0267 10.413 11.1667 9.65967 11.8867 8.59301C12.38 7.85301 12.6667 6.96634 12.6667 5.99967C12.6667 3.41967 10.58 1.33301 8.00001 1.33301ZM10.04 5.85301L9.48668 6.40634C9.39334 6.49967 9.34001 6.67967 9.37334 6.81301L9.53334 7.49967C9.66001 8.03967 9.37334 8.25301 8.89334 7.96634L8.22668 7.57301C8.10668 7.49967 7.90668 7.49967 7.78668 7.57301L7.12001 7.96634C6.64001 8.24634 6.35334 8.03967 6.48001 7.49967L6.64001 6.81301C6.66668 6.68634 6.62001 6.49967 6.52668 6.40634L5.96001 5.85301C5.63334 5.52634 5.74001 5.19967 6.19334 5.12634L6.90668 5.00634C7.02668 4.98634 7.16668 4.87967 7.22001 4.77301L7.61334 3.98634C7.82668 3.55967 8.17334 3.55967 8.38668 3.98634L8.78001 4.77301C8.83334 4.87967 8.97334 4.98634 9.10001 5.00634L9.81334 5.12634C10.26 5.19967 10.3667 5.52634 10.04 5.85301Z" fill="#16AD64"/>
</svg>
