<svg width="42" height="42" viewBox="0 0 42 42" fill="none" xmlns="http://www.w3.org/2000/svg">
<circle cx="21" cy="21" r="19.5" fill="#0F70FF" stroke="white" stroke-width="3"/>
<path d="M26.0196 29.4996C25.2571 29.4996 24.186 29.2239 22.5821 28.3278C20.6317 27.234 19.1231 26.2242 17.1833 24.2895C15.313 22.4203 14.4028 21.2102 13.129 18.8922C11.6899 16.275 11.9352 14.9032 12.2094 14.3168C12.536 13.616 13.018 13.1969 13.6411 12.7809C13.995 12.549 14.3695 12.3503 14.7598 12.1871C14.7989 12.1703 14.8352 12.1543 14.8676 12.1399C15.061 12.0528 15.354 11.9211 15.7251 12.0617C15.9727 12.1547 16.1938 12.345 16.5399 12.6867C17.2497 13.3867 18.2196 14.9457 18.5774 15.7114C18.8176 16.2274 18.9766 16.568 18.977 16.95C18.977 17.3973 18.752 17.7422 18.479 18.1145C18.4278 18.1844 18.377 18.2512 18.3278 18.316C18.0305 18.7067 17.9653 18.8196 18.0083 19.0211C18.0954 19.4262 18.745 20.6321 19.8126 21.6973C20.8801 22.7625 22.0512 23.3711 22.4579 23.4578C22.668 23.5028 22.7833 23.4348 23.1864 23.127C23.2442 23.0828 23.3036 23.0371 23.3657 22.9914C23.7821 22.6817 24.111 22.4625 24.5477 22.4625H24.5501C24.9301 22.4625 25.2555 22.6274 25.7946 22.8992C26.4977 23.2539 28.1036 24.2114 28.8079 24.9219C29.1505 25.2672 29.3415 25.4875 29.4348 25.7348C29.5755 26.1071 29.443 26.3989 29.3567 26.5942C29.3423 26.6266 29.3262 26.6621 29.3094 26.7016C29.145 27.0913 28.9451 27.465 28.7122 27.818C28.2969 28.4391 27.8762 28.92 27.1739 29.2469C26.8132 29.4175 26.4185 29.5039 26.0196 29.4996Z" fill="white"/>
</svg>
