<svg width="41" height="46" viewBox="0 0 41 46" fill="none" xmlns="http://www.w3.org/2000/svg">
<circle cx="20.0527" cy="25.3153" r="18.5527" fill="#FF7C3C" stroke="white" stroke-width="3"/>
<path d="M24.8081 33.3677C24.0857 33.3677 23.071 33.1064 21.5515 32.2575C19.7038 31.2213 18.2746 30.2647 16.4368 28.4317C14.665 26.661 13.8027 25.5145 12.5959 23.3185C11.2326 20.8391 11.465 19.5394 11.7248 18.984C12.0342 18.3201 12.4908 17.923 13.0811 17.5289C13.4163 17.3092 13.7711 17.1209 14.141 16.9664C14.178 16.9504 14.2124 16.9353 14.2431 16.9216C14.4263 16.839 14.7038 16.7143 15.0554 16.8476C15.29 16.9356 15.4995 17.1159 15.8273 17.4397C16.4998 18.1028 17.4186 19.5798 17.7576 20.3051C17.9852 20.7939 18.1358 21.1166 18.1362 21.4786C18.1362 21.9023 17.923 22.2291 17.6644 22.5817C17.6159 22.648 17.5678 22.7113 17.5211 22.7727C17.2395 23.1428 17.1777 23.2497 17.2184 23.4407C17.3009 23.8244 17.9164 24.9668 18.9278 25.976C19.9391 26.9852 21.0486 27.5617 21.4338 27.6439C21.6329 27.6864 21.7421 27.622 22.124 27.3304C22.1788 27.2886 22.235 27.2453 22.2939 27.202C22.6884 26.9086 23 26.7009 23.4137 26.7009H23.4159C23.776 26.7009 24.0843 26.8571 24.595 27.1147C25.2611 27.4507 26.7824 28.3577 27.4496 29.0309C27.7742 29.358 27.9552 29.5667 28.0436 29.801C28.1768 30.1537 28.0514 30.4301 27.9696 30.6151C27.9559 30.6458 27.9407 30.6795 27.9248 30.7169C27.769 31.0861 27.5796 31.4401 27.359 31.7746C26.9656 32.363 26.567 32.8185 25.9017 33.1283C25.56 33.2899 25.1861 33.3717 24.8081 33.3677Z" fill="white"/>
<circle cx="29.5264" cy="11.105" r="9.97369" fill="url(#paint0_linear_1216_1923)" stroke="white"/>
<path d="M31.1621 11.6883C31.2275 11.6883 31.4725 11.7981 31.8971 12.0175C32.3218 12.2369 32.5467 12.369 32.5718 12.4139C32.5819 12.4388 32.5869 12.4762 32.5869 12.5261C32.5869 12.6907 32.5442 12.8802 32.4587 13.0946C32.3783 13.2891 32.1999 13.4524 31.9235 13.5845C31.6471 13.7167 31.3908 13.7827 31.1546 13.7827C30.8681 13.7827 30.3907 13.6281 29.7223 13.319C29.2298 13.0946 28.8026 12.8004 28.4408 12.4363C28.0789 12.0723 27.707 11.6111 27.3251 11.0526C26.9632 10.519 26.7848 10.0353 26.7899 9.60144V9.5416C26.8049 9.08782 26.9909 8.69387 27.3477 8.35977C27.4683 8.25006 27.599 8.19521 27.7397 8.19521C27.7699 8.19521 27.8151 8.19895 27.8754 8.20643C27.9357 8.21391 27.9834 8.21765 28.0186 8.21765C28.1141 8.21765 28.1807 8.23386 28.2184 8.26627C28.2561 8.29868 28.295 8.36725 28.3352 8.47197C28.3754 8.5717 28.4584 8.79111 28.584 9.1302C28.7096 9.46929 28.7725 9.65629 28.7725 9.6912C28.7725 9.79592 28.6858 9.93928 28.5124 10.1213C28.339 10.3033 28.2523 10.4192 28.2523 10.4691C28.2523 10.504 28.2649 10.5414 28.29 10.5813C28.4609 10.9453 28.7172 11.2869 29.0589 11.6061C29.3404 11.8704 29.7198 12.1222 30.1972 12.3615C30.2575 12.3964 30.3128 12.4139 30.3631 12.4139C30.4384 12.4139 30.5741 12.293 30.7701 12.0511C30.9661 11.8093 31.0968 11.6883 31.1621 11.6883ZM29.6318 15.6527C30.2701 15.6527 30.8819 15.5281 31.4674 15.2787C32.0529 15.0294 32.5567 14.6953 32.9789 14.2764C33.401 13.8575 33.7377 13.3576 33.989 12.7767C34.2403 12.1957 34.3659 11.5886 34.3659 10.9553C34.3659 10.322 34.2403 9.71489 33.989 9.13394C33.7377 8.553 33.401 8.05309 32.9789 7.63421C32.5567 7.21534 32.0529 6.88123 31.4674 6.6319C30.8819 6.38257 30.2701 6.2579 29.6318 6.2579C28.9936 6.2579 28.3817 6.38257 27.7962 6.6319C27.2108 6.88123 26.7069 7.21534 26.2848 7.63421C25.8626 8.05309 25.5259 8.553 25.2746 9.13394C25.0234 9.71489 24.8977 10.322 24.8977 10.9553C24.8977 11.9676 25.1993 12.8851 25.8023 13.7079L25.2068 15.4508L27.0311 14.8748C27.8251 15.3934 28.692 15.6527 29.6318 15.6527ZM29.6318 5.31543C30.4008 5.31543 31.1357 5.46503 31.8368 5.76423C32.5379 6.06342 33.1422 6.46485 33.6498 6.9685C34.1574 7.47215 34.5619 8.07179 34.8635 8.76743C35.165 9.46306 35.3158 10.1924 35.3158 10.9553C35.3158 11.7183 35.165 12.4476 34.8635 13.1432C34.5619 13.8388 34.1574 14.4385 33.6498 14.9421C33.1422 15.4458 32.5379 15.8472 31.8368 16.1464C31.1357 16.4456 30.4008 16.5952 29.6318 16.5952C28.6518 16.5952 27.7347 16.3608 26.8803 15.8921L23.7368 16.8944L24.762 13.865C24.2193 12.9774 23.9479 12.0075 23.9479 10.9553C23.9479 10.1924 24.0987 9.46306 24.4002 8.76743C24.7017 8.07179 25.1063 7.47215 25.6139 6.9685C26.1215 6.46485 26.7258 6.06342 27.4269 5.76423C28.1279 5.46503 28.8629 5.31543 29.6318 5.31543Z" fill="white"/>
<defs>
<linearGradient id="paint0_linear_1216_1923" x1="29.5264" y1="1.63135" x2="29.5264" y2="20.5787" gradientUnits="userSpaceOnUse">
<stop stop-color="#57D063"/>
<stop offset="1" stop-color="#2DB842"/>
</linearGradient>
</defs>
</svg>
