<svg width="339" height="173" viewBox="0 0 339 173" fill="none" xmlns="http://www.w3.org/2000/svg">
<ellipse cx="169.5" cy="142" rx="169.5" ry="31" fill="url(#paint0_linear_1201_3878)"/>
<g clip-path="url(#clip0_1201_3878)">
<path d="M229.243 79.9419C249.175 79.9419 265.333 69.6444 265.333 56.9419C265.333 44.2393 249.175 33.9419 229.243 33.9419C209.311 33.9419 193.153 44.2393 193.153 56.9419C193.153 69.6444 209.311 79.9419 229.243 79.9419Z" fill="#0F70FF"/>
<path d="M216.223 68.5221C214.223 68.5221 212.263 67.9221 210.563 66.7621C208.283 65.2121 206.773 62.8521 206.293 60.1321C205.393 54.9221 208.853 49.7421 214.003 48.5621C218.243 47.6021 222.553 49.4121 224.823 53.0821L247.993 48.3021C249.873 47.9121 251.773 49.0321 252.243 50.8021C252.493 51.7421 252.343 52.7121 251.833 53.5321C251.323 54.3521 250.523 54.9121 249.573 55.1121L248.963 55.2421C248.783 55.2821 248.633 55.3921 248.543 55.5521C248.453 55.7121 248.443 55.9021 248.503 56.0721L248.913 57.1321C249.193 57.8521 248.933 58.6621 248.293 59.0521C247.803 59.3621 247.463 59.8921 247.393 60.4621C247.313 61.1721 246.843 61.7121 246.193 61.8521L245.713 61.9521C245.063 62.0821 244.413 61.7721 244.063 61.1521C243.643 60.4321 242.813 60.0621 241.993 60.2321C241.173 60.4021 240.553 61.0721 240.453 61.9021C240.363 62.6121 239.893 63.1521 239.243 63.2921L238.773 63.3921C238.133 63.5221 237.473 63.2121 237.123 62.5921C236.833 62.0921 236.313 61.7321 235.733 61.6521C234.993 61.5421 234.433 60.9021 234.403 60.1321L234.353 58.9921C234.353 58.8121 234.263 58.6421 234.113 58.5321C233.973 58.4221 233.793 58.3721 233.603 58.4121L226.223 59.9321C225.593 64.1121 222.443 67.4621 218.273 68.3221C217.583 68.4621 216.893 68.5321 216.203 68.5321L216.223 68.5221ZM214.223 49.5421C209.583 50.5921 206.473 55.2721 207.283 59.9621C207.703 62.4121 209.073 64.5421 211.123 65.9421C213.173 67.3421 215.653 67.8421 218.083 67.3321C221.953 66.5321 224.843 63.3621 225.293 59.4421L225.333 59.0821L233.423 57.4121C233.893 57.3121 234.373 57.4321 234.753 57.7221C235.133 58.0121 235.353 58.4521 235.373 58.9321L235.423 60.0721C235.433 60.3621 235.643 60.6021 235.903 60.6421C236.793 60.7721 237.563 61.2921 238.013 62.0721C238.123 62.2621 238.333 62.4421 238.603 62.3921L239.073 62.2921C239.333 62.2421 239.463 61.9821 239.483 61.7621C239.633 60.5021 240.573 59.4921 241.813 59.2321C243.053 58.9721 244.313 59.5421 244.943 60.6321C245.053 60.8221 245.263 61.0121 245.533 60.9521L246.013 60.8521C246.273 60.8021 246.403 60.5421 246.423 60.3321C246.523 59.4421 247.023 58.6621 247.783 58.1821C248.003 58.0421 248.093 57.7321 247.993 57.4721L247.583 56.4121C247.413 55.9721 247.443 55.4721 247.673 55.0521C247.903 54.6321 248.303 54.3421 248.763 54.2421L249.373 54.1121C250.053 53.9721 250.623 53.5721 250.983 52.9921C251.343 52.4021 251.453 51.7121 251.273 51.0421C250.943 49.7821 249.563 48.9921 248.193 49.2721L224.323 54.2021L224.143 53.8921C222.143 50.4021 218.163 48.6421 214.223 49.5421ZM216.233 64.8321C214.993 64.8321 213.783 64.4721 212.723 63.7721C211.293 62.8321 210.313 61.3921 209.973 59.7121C209.623 58.0321 209.953 56.3221 210.893 54.8921C211.833 53.4621 213.273 52.4921 214.953 52.1421C216.633 51.7921 218.343 52.1221 219.773 53.0621C221.203 54.0021 222.173 55.4421 222.523 57.1221C222.873 58.8021 222.543 60.5021 221.603 61.9321C220.663 63.3621 219.223 64.3421 217.543 64.6821C217.113 64.7721 216.673 64.8121 216.233 64.8121V64.8321ZM216.263 53.0221C215.893 53.0221 215.523 53.0621 215.153 53.1321C213.743 53.4221 212.523 54.2521 211.733 55.4521C210.943 56.6621 210.663 58.1021 210.953 59.5121C211.243 60.9221 212.073 62.1421 213.273 62.9321C214.483 63.7221 215.923 64.0021 217.333 63.7121C218.753 63.4221 219.963 62.5921 220.753 61.3921C221.543 60.1821 221.823 58.7421 221.533 57.3321C221.243 55.9121 220.413 54.7021 219.213 53.9021C218.323 53.3121 217.303 53.0121 216.263 53.0121V53.0221Z" fill="white"/>
<path opacity="0.6" d="M199.873 93.4218C206.423 93.4218 211.733 90.037 211.733 85.8618C211.733 81.6865 206.423 78.3018 199.873 78.3018C193.322 78.3018 188.013 81.6865 188.013 85.8618C188.013 90.037 193.322 93.4218 199.873 93.4218Z" fill="#0F70FF"/>
<path opacity="0.3" d="M181.003 96.5218C183.692 96.5218 185.873 95.1339 185.873 93.4218C185.873 91.7097 183.692 90.3218 181.003 90.3218C178.313 90.3218 176.133 91.7097 176.133 93.4218C176.133 95.1339 178.313 96.5218 181.003 96.5218Z" fill="#0F70FF"/>
</g>
<g clip-path="url(#clip1_1201_3878)">
<path d="M153.52 55.8311L145.825 57.8877L139.101 32.7278C136.166 21.7455 124.744 15.2262 113.638 18.1944C102.533 21.1625 95.8864 32.5107 98.8216 43.493L105.546 68.6529L97.8509 70.7095L91.1266 45.5497C87.0765 30.3724 96.2623 14.6883 111.608 10.5868C126.954 6.48537 142.74 15.4955 146.796 30.6712L153.52 55.8311Z" fill="#72716F"/>
<path d="M159.125 41.5409L85.8731 61.1185C84.2251 61.559 83.2423 63.2371 83.6778 64.8668L96.257 111.933C96.6926 113.563 98.3816 114.527 100.03 114.086L173.281 94.5087C174.929 94.0683 175.912 92.3902 175.476 90.7605L162.897 43.6941C162.462 42.0645 160.773 41.1004 159.125 41.5409Z" fill="#F2CB30"/>
<path d="M142.637 45.947C142.637 45.947 147.064 36.0276 145.547 27.0358L150.07 43.9604L142.637 45.947Z" fill="#5C5A5A"/>
<path d="M175.476 90.7605L167.769 61.9223C149.032 88.5618 116.263 105.448 97.2883 113.503C98.0273 114.098 99.0349 114.352 100.03 114.086L173.281 94.5087C174.929 94.0683 175.912 92.3901 175.476 90.7605Z" fill="#EAB531"/>
<path d="M133.991 68.0877C133.035 64.5114 129.33 62.3963 125.713 63.3629C122.097 64.3295 119.941 68.0112 120.896 71.5875C121.466 73.7177 123.017 75.3234 124.94 76.0754L126.769 91.2725L138.722 88.0778L132.726 73.9944C134.018 72.3864 134.561 70.2208 133.991 68.0877Z" fill="#72716F"/>
<path d="M126.768 91.2692C126.768 91.2692 135.164 85.2402 133.174 75.0436L138.722 88.0746L126.768 91.2692Z" fill="#5C5A5A"/>
</g>
<defs>
<linearGradient id="paint0_linear_1201_3878" x1="169.5" y1="111" x2="169.5" y2="173" gradientUnits="userSpaceOnUse">
<stop stop-color="#007CFF" stop-opacity="0.19"/>
<stop offset="0.376207" stop-color="#D9D9D9" stop-opacity="0"/>
</linearGradient>
<clipPath id="clip0_1201_3878">
<rect width="89.2" height="62.59" fill="white" transform="translate(176.133 33.9419)"/>
</clipPath>
<clipPath id="clip1_1201_3878">
<rect width="82" height="97" fill="white" transform="translate(72 21.1729) rotate(-14.9634)"/>
</clipPath>
</defs>
</svg>
