<svg width="339" height="159" viewBox="0 0 339 159" fill="none" xmlns="http://www.w3.org/2000/svg">
<ellipse cx="169.5" cy="128" rx="169.5" ry="31" fill="url(#paint0_linear_1201_3712)"/>
<g clip-path="url(#clip0_1201_3712)">
<path d="M175.71 0C159.83 0 146.9 12.78 146.9 28.49V31.27H154.87V28.49C154.87 17.12 164.22 7.87 175.72 7.87C187.22 7.87 196.57 17.12 196.57 28.49V54.53H204.54V28.49C204.54 12.78 191.62 0 175.73 0H175.71Z" fill="#72716F"/>
<path d="M213.62 42.1699H137.8C136.09 42.1699 134.71 43.5399 134.71 45.2199V93.9399C134.71 95.6299 136.09 96.9899 137.8 96.9899H213.62C215.33 96.9899 216.71 95.6199 216.71 93.9399V45.2299C216.71 43.5399 215.33 42.1799 213.62 42.1799V42.1699Z" fill="#F2CB30"/>
<path d="M196.55 42.1699C196.55 42.1699 203.39 33.7299 204.24 24.6499V42.1699H196.55Z" fill="#5C5A5A"/>
<path d="M216.71 93.9501V64.1001C191.73 85.0001 155.71 92.8501 135.3 95.7301C135.86 96.5001 136.77 97.0001 137.8 97.0001H213.62C215.33 97.0001 216.71 95.6301 216.71 93.9501Z" fill="#EAB531"/>
<path d="M182.49 61.3299C182.49 57.6299 179.46 54.6299 175.71 54.6299C171.96 54.6299 168.93 57.6299 168.93 61.3299C168.93 63.5299 170.01 65.4899 171.68 66.7099L169.52 81.8599H181.89L179.73 66.7099C181.39 65.4899 182.48 63.5399 182.48 61.3299H182.49Z" fill="#72716F"/>
<path d="M169.52 81.8598C169.52 81.8598 179.19 78.1998 179.9 67.8398L181.9 81.8598H169.53H169.52Z" fill="#5C5A5A"/>
<path d="M159.25 48.5H120.11C115.079 48.5 111 52.5787 111 57.61C111 62.6413 115.079 66.72 120.11 66.72H159.25C164.281 66.72 168.36 62.6413 168.36 57.61C168.36 52.5787 164.281 48.5 159.25 48.5Z" fill="#0F70FF"/>
<path d="M124.3 53.1998V55.4998C124.3 55.7298 124.52 55.8798 124.74 55.8098L126.85 55.0798C127.02 55.0198 127.2 55.1098 127.26 55.2698L127.9 56.9398C127.96 57.1098 127.88 57.2898 127.72 57.3598L125.55 58.2698C125.36 58.3498 125.29 58.5898 125.41 58.7598L126.78 60.6998C126.88 60.8498 126.85 61.0498 126.71 61.1498L125.31 62.1898C125.17 62.2998 124.96 62.2698 124.85 62.1198L123.37 60.1698C123.24 59.9998 122.97 59.9998 122.84 60.1698L121.39 62.1198C121.28 62.2598 121.08 62.2998 120.94 62.1898L119.45 61.1398C119.3 61.0398 119.27 60.8298 119.37 60.6798L120.76 58.6598C120.88 58.4798 120.81 58.2398 120.61 58.1698L118.44 57.3398C118.27 57.2798 118.19 57.0898 118.25 56.9198L118.86 55.2598C118.92 55.0898 119.1 54.9998 119.27 55.0598L121.47 55.7898C121.68 55.8598 121.9 55.6998 121.9 55.4798V53.1698C121.9 52.9898 122.05 52.8398 122.23 52.8398H123.99C124.17 52.8398 124.32 52.9898 124.32 53.1698L124.3 53.1998Z" fill="white"/>
<path d="M135.33 53.1998V55.4998C135.33 55.7298 135.55 55.8798 135.77 55.8098L137.88 55.0798C138.05 55.0198 138.23 55.1098 138.29 55.2698L138.93 56.9398C138.99 57.1098 138.91 57.2898 138.75 57.3598L136.58 58.2698C136.39 58.3498 136.32 58.5898 136.44 58.7598L137.81 60.6998C137.91 60.8498 137.88 61.0498 137.74 61.1498L136.34 62.1898C136.2 62.2998 135.99 62.2698 135.88 62.1198L134.4 60.1698C134.27 59.9998 134 59.9998 133.87 60.1698L132.42 62.1198C132.31 62.2598 132.11 62.2998 131.97 62.1898L130.48 61.1398C130.33 61.0398 130.3 60.8298 130.4 60.6798L131.79 58.6598C131.91 58.4798 131.84 58.2398 131.64 58.1698L129.47 57.3398C129.3 57.2798 129.22 57.0898 129.28 56.9198L129.89 55.2598C129.95 55.0898 130.13 54.9998 130.3 55.0598L132.5 55.7898C132.71 55.8598 132.93 55.6998 132.93 55.4798V53.1698C132.93 52.9898 133.08 52.8398 133.26 52.8398H135.02C135.2 52.8398 135.35 52.9898 135.35 53.1698L135.33 53.1998Z" fill="white"/>
<path d="M146.51 53.1998V55.4998C146.51 55.7298 146.73 55.8798 146.95 55.8098L149.06 55.0798C149.23 55.0198 149.41 55.1098 149.47 55.2698L150.11 56.9398C150.17 57.1098 150.09 57.2898 149.93 57.3598L147.76 58.2698C147.57 58.3498 147.5 58.5898 147.62 58.7598L148.99 60.6998C149.09 60.8498 149.06 61.0498 148.92 61.1498L147.52 62.1898C147.38 62.2998 147.17 62.2698 147.06 62.1198L145.58 60.1698C145.45 59.9998 145.18 59.9998 145.05 60.1698L143.6 62.1198C143.49 62.2598 143.29 62.2998 143.15 62.1898L141.66 61.1398C141.51 61.0398 141.48 60.8298 141.58 60.6798L142.97 58.6598C143.09 58.4798 143.02 58.2398 142.82 58.1698L140.65 57.3398C140.48 57.2798 140.4 57.0898 140.46 56.9198L141.07 55.2598C141.13 55.0898 141.31 54.9998 141.48 55.0598L143.68 55.7898C143.89 55.8598 144.11 55.6998 144.11 55.4798V53.1698C144.11 52.9898 144.26 52.8398 144.44 52.8398H146.2C146.38 52.8398 146.53 52.9898 146.53 53.1698L146.51 53.1998Z" fill="white"/>
<path d="M157.54 53.1998V55.4998C157.54 55.7298 157.76 55.8798 157.98 55.8098L160.09 55.0798C160.26 55.0198 160.44 55.1098 160.5 55.2698L161.14 56.9398C161.2 57.1098 161.12 57.2898 160.96 57.3598L158.79 58.2698C158.6 58.3498 158.53 58.5898 158.65 58.7598L160.02 60.6998C160.12 60.8498 160.09 61.0498 159.95 61.1498L158.55 62.1898C158.41 62.2998 158.2 62.2698 158.09 62.1198L156.61 60.1698C156.48 59.9998 156.21 59.9998 156.08 60.1698L154.63 62.1198C154.52 62.2598 154.32 62.2998 154.18 62.1898L152.69 61.1398C152.54 61.0398 152.51 60.8298 152.61 60.6798L154 58.6598C154.12 58.4798 154.05 58.2398 153.85 58.1698L151.68 57.3398C151.51 57.2798 151.43 57.0898 151.49 56.9198L152.1 55.2598C152.16 55.0898 152.34 54.9998 152.51 55.0598L154.71 55.7898C154.92 55.8598 155.14 55.6998 155.14 55.4798V53.1698C155.14 52.9898 155.29 52.8398 155.47 52.8398H157.23C157.41 52.8398 157.56 52.9898 157.56 53.1698L157.54 53.1998Z" fill="white"/>
</g>
<defs>
<linearGradient id="paint0_linear_1201_3712" x1="169.5" y1="97" x2="169.5" y2="159" gradientUnits="userSpaceOnUse">
<stop stop-color="#007CFF" stop-opacity="0.19"/>
<stop offset="0.376207" stop-color="#D9D9D9" stop-opacity="0"/>
</linearGradient>
<clipPath id="clip0_1201_3712">
<rect width="105.71" height="97" fill="white" transform="translate(111)"/>
</clipPath>
</defs>
</svg>
