<svg width="38" height="38" viewBox="0 0 38 38" fill="none" xmlns="http://www.w3.org/2000/svg">
<path d="M34.8333 28.6407C34.8333 29.4382 34.1866 30.0835 33.3906 30.0835L21.7761 30.0835C21.3935 30.0835 21.0265 29.9315 20.7559 29.6609C20.4853 29.3904 20.3333 29.0234 20.3333 28.6407C20.3333 28.2581 20.4853 27.8911 20.7559 27.6206C21.0265 27.35 21.3935 27.198 21.7761 27.198L33.3906 27.198C33.7732 27.198 34.1402 27.35 34.4108 27.6206C34.6813 27.8911 34.8333 28.2581 34.8333 28.6407ZM34.8333 19.9335C34.8333 20.731 34.1866 21.3762 33.3906 21.3762L7.27609 21.3762C6.89345 21.3762 6.52648 21.2242 6.25591 20.9537C5.98535 20.6831 5.83334 20.3161 5.83334 19.9335C5.83334 19.5509 5.98535 19.1839 6.25591 18.9133C6.52648 18.6428 6.89345 18.4908 7.27609 18.4908L33.3906 18.4907C33.7732 18.4907 34.1402 18.6428 34.4108 18.9133C34.6813 19.1839 34.8333 19.5509 34.8333 19.9335ZM33.3906 12.669C33.7732 12.669 34.1402 12.517 34.4108 12.2464C34.6813 11.9759 34.8333 11.6089 34.8333 11.2263C34.8333 10.8436 34.6813 10.4766 34.4108 10.2061C34.1402 9.9355 33.7732 9.7835 33.3906 9.7835L15.9761 9.7835C15.5935 9.7835 15.2265 9.93551 14.9559 10.2061C14.6853 10.4766 14.5333 10.8436 14.5333 11.2263C14.5333 11.6089 14.6853 11.9759 14.9559 12.2464C15.2265 12.517 15.5935 12.669 15.9761 12.669L33.3906 12.669Z" fill="white"/>
</svg>
