<svg width="16" height="16" viewBox="0 0 16 16" fill="none" xmlns="http://www.w3.org/2000/svg">
<path d="M11.3333 1.62012H4.66668C2.66668 1.62012 1.33334 2.95345 1.33334 4.95345V8.95345C1.33334 10.9535 2.66668 12.2868 4.66668 12.2868V13.7068C4.66668 14.2401 5.26001 14.5601 5.70001 14.2601L8.66668 12.2868H11.3333C13.3333 12.2868 14.6667 10.9535 14.6667 8.95345V4.95345C14.6667 2.95345 13.3333 1.62012 11.3333 1.62012ZM8.00001 9.73345C7.72001 9.73345 7.50001 9.50678 7.50001 9.23345C7.50001 8.96012 7.72001 8.73345 8.00001 8.73345C8.28001 8.73345 8.50001 8.96012 8.50001 9.23345C8.50001 9.50678 8.28001 9.73345 8.00001 9.73345ZM8.84001 6.96678C8.58001 7.14012 8.50001 7.25345 8.50001 7.44012V7.58012C8.50001 7.85345 8.27334 8.08012 8.00001 8.08012C7.72668 8.08012 7.50001 7.85345 7.50001 7.58012V7.44012C7.50001 6.66678 8.06668 6.28678 8.28001 6.14012C8.52668 5.97345 8.60668 5.86012 8.60668 5.68678C8.60668 5.35345 8.33334 5.08012 8.00001 5.08012C7.66668 5.08012 7.39334 5.35345 7.39334 5.68678C7.39334 5.96012 7.16668 6.18678 6.89334 6.18678C6.62001 6.18678 6.39334 5.96012 6.39334 5.68678C6.39334 4.80012 7.11334 4.08012 8.00001 4.08012C8.88668 4.08012 9.60668 4.80012 9.60668 5.68678C9.60668 6.44678 9.04668 6.82678 8.84001 6.96678Z" fill="#FF7C3C"/>
</svg>
