<svg width="19" height="20" viewBox="0 0 19 20" fill="none" xmlns="http://www.w3.org/2000/svg">
<path d="M0 3.29492C0 2.66503 0.250223 2.06094 0.695621 1.61554C1.14102 1.17014 1.74511 0.919922 2.375 0.919922L16.625 0.919922C17.2549 0.919922 17.859 1.17014 18.3044 1.61554C18.7498 2.06094 19 2.66503 19 3.29492V12.7949C19 13.4248 18.7498 14.0289 18.3044 14.4743C17.859 14.9197 17.2549 15.1699 16.625 15.1699H5.24162C4.92671 15.17 4.62471 15.2951 4.40206 15.5179L1.01413 18.9058C0.931154 18.989 0.825373 19.0457 0.710167 19.0687C0.594963 19.0917 0.475512 19.0801 0.366936 19.0352C0.25836 18.9903 0.165541 18.9142 0.100222 18.8166C0.0349045 18.7189 2.47955e-05 18.6041 0 18.4866V3.29492ZM13.0625 8.04492C13.0625 8.35987 13.1876 8.66191 13.4103 8.88461C13.633 9.10731 13.9351 9.23242 14.25 9.23242C14.5649 9.23242 14.867 9.10731 15.0897 8.88461C15.3124 8.66191 15.4375 8.35987 15.4375 8.04492C15.4375 7.72998 15.3124 7.42793 15.0897 7.20523C14.867 6.98253 14.5649 6.85742 14.25 6.85742C13.9351 6.85742 13.633 6.98253 13.4103 7.20523C13.1876 7.42793 13.0625 7.72998 13.0625 8.04492ZM8.3125 8.04492C8.3125 8.35987 8.43761 8.66191 8.66031 8.88461C8.88301 9.10731 9.18506 9.23242 9.5 9.23242C9.81494 9.23242 10.117 9.10731 10.3397 8.88461C10.5624 8.66191 10.6875 8.35987 10.6875 8.04492C10.6875 7.72998 10.5624 7.42793 10.3397 7.20523C10.117 6.98253 9.81494 6.85742 9.5 6.85742C9.18506 6.85742 8.88301 6.98253 8.66031 7.20523C8.43761 7.42793 8.3125 7.72998 8.3125 8.04492ZM4.75 9.23242C5.06494 9.23242 5.36699 9.10731 5.58969 8.88461C5.81239 8.66191 5.9375 8.35987 5.9375 8.04492C5.9375 7.72998 5.81239 7.42793 5.58969 7.20523C5.36699 6.98253 5.06494 6.85742 4.75 6.85742C4.43506 6.85742 4.13301 6.98253 3.91031 7.20523C3.68761 7.42793 3.5625 7.72998 3.5625 8.04492C3.5625 8.35987 3.68761 8.66191 3.91031 8.88461C4.13301 9.10731 4.43506 9.23242 4.75 9.23242Z" fill="#16AD64"/>
</svg>
