<svg width="22" height="22" viewBox="0 0 22 22" fill="none" xmlns="http://www.w3.org/2000/svg">
<g clip-path="url(#clip0_1246_21905)">
<path d="M11 19.25C17.0758 19.25 22 15.2496 22 10.3125C22 5.37539 17.0758 1.375 11 1.375C4.92419 1.375 -2.59122e-05 5.37539 -2.59122e-05 10.3125C-2.59122e-05 12.2504 0.760521 14.0422 2.04958 15.5074C1.96794 16.5602 1.55974 17.4969 1.13005 18.2102C0.893724 18.6055 0.653099 18.9234 0.476927 19.1383C0.386693 19.2457 0.317943 19.3273 0.26638 19.3832C0.240599 19.409 0.223412 19.4305 0.210521 19.4434L0.19763 19.4562C-2.59113e-05 19.6539 -0.0558853 19.9461 0.0515366 20.2039C0.158958 20.4617 0.408177 20.6293 0.687474 20.6293C1.92068 20.6293 3.16247 20.2469 4.19372 19.8C5.17771 19.3703 6.0156 18.859 6.52693 18.4852C7.89333 18.9793 9.40583 19.2543 11 19.2543V19.25ZM5.49997 11.6875C4.73943 11.6875 4.12497 11.073 4.12497 10.3125C4.12497 9.55195 4.73943 8.9375 5.49997 8.9375C6.26052 8.9375 6.87497 9.55195 6.87497 10.3125C6.87497 11.073 6.26052 11.6875 5.49997 11.6875ZM11 11.6875C10.2394 11.6875 9.62497 11.073 9.62497 10.3125C9.62497 9.55195 10.2394 8.9375 11 8.9375C11.7605 8.9375 12.375 9.55195 12.375 10.3125C12.375 11.073 11.7605 11.6875 11 11.6875ZM17.875 10.3125C17.875 11.073 17.2605 11.6875 16.5 11.6875C15.7394 11.6875 15.125 11.073 15.125 10.3125C15.125 9.55195 15.7394 8.9375 16.5 8.9375C17.2605 8.9375 17.875 9.55195 17.875 10.3125Z" fill="white"/>
</g>
<defs>
<clipPath id="clip0_1246_21905">
<rect width="22" height="22" fill="white"/>
</clipPath>
</defs>
</svg>
