<svg width="150" height="150" viewBox="0 0 150 150" fill="none" xmlns="http://www.w3.org/2000/svg">
<g clip-path="url(#clip0_1234_3707)">
<path d="M76.4137 148.473C90.6327 148.42 104.265 142.721 114.291 132.639C124.318 122.556 129.94 108.893 129.914 94.673C129.887 80.454 124.214 66.812 114.15 56.766C104.086 46.721 90.4327 41.073 76.2137 41.073C61.9947 41.073 48.3417 46.721 38.2777 56.766C28.2137 66.811 22.5407 80.454 22.5137 94.673C22.5347 108.947 28.2277 122.643 38.3307 132.727C48.4327 142.811 62.1397 148.478 76.4137 148.473Z" fill="#EAEEF9"/>
<path d="M66.9128 75.9731L65.5128 72.0731C65.3488 71.5971 65.0378 71.1851 64.6238 70.8971C64.2108 70.6101 63.7158 70.4611 63.2128 70.4731H38.6128C37.9598 70.4601 37.3148 70.6241 36.7478 70.9471C36.1798 71.2701 35.7098 71.7401 35.3868 72.3081C35.0638 72.8751 34.8998 73.5201 34.9128 74.1731V120.173H118.913V81.2731C118.926 80.6201 118.762 79.9751 118.439 79.4081C118.116 78.8401 117.646 78.3701 117.078 78.0471C116.511 77.7241 115.866 77.5601 115.213 77.5731H69.2128C68.7128 77.5711 68.2238 77.4171 67.8138 77.1311C67.4028 76.8461 67.0888 76.4421 66.9128 75.9731Z" fill="white"/>
<path d="M37.314 44.1731L54.114 73.3731C54.372 73.8521 54.433 74.4131 54.284 74.9361C54.134 75.4591 53.786 75.9031 53.314 76.1731L24.714 92.1731C24.235 92.4311 23.674 92.4921 23.151 92.3431C22.628 92.1931 22.184 91.8451 21.914 91.3731L0.81404 53.5731C0.61204 53.2641 0.50304 52.9031 0.50104 52.5341C0.49804 52.1641 0.60204 51.8021 0.79904 51.4901C0.99604 51.1781 1.27904 50.9291 1.61404 50.7731L22.414 39.1731L37.314 44.1731Z" fill="white"/>
<path d="M22.2144 47.2732L8.41442 54.9732C8.31342 55.0432 8.19242 55.0802 8.06942 55.0782C7.94642 55.0772 7.82642 55.0372 7.72742 54.9642C7.62742 54.8922 7.55342 54.7902 7.51442 54.6732C7.44942 54.5782 7.41142 54.4662 7.40542 54.3512C7.39842 54.2352 7.42442 54.1202 7.47842 54.0192C7.53342 53.9172 7.61442 53.8322 7.71442 53.7732L21.5144 46.1732C21.6604 46.0832 21.8354 46.0552 22.0024 46.0932C22.1694 46.1322 22.3144 46.2342 22.4054 46.3782C22.4974 46.5232 22.5294 46.6982 22.4934 46.8652C22.4574 47.0322 22.3574 47.1792 22.2144 47.2732Z" fill="#D5DDEA"/>
<path d="M15.5138 55.373L10.2138 58.273C10.1298 58.338 10.0278 58.376 9.92183 58.382C9.81583 58.388 9.71083 58.362 9.61983 58.307C9.52883 58.252 9.45683 58.17 9.41383 58.073C9.34883 57.978 9.31083 57.866 9.30483 57.751C9.29783 57.635 9.32383 57.52 9.37783 57.419C9.43283 57.317 9.51383 57.232 9.61383 57.173L14.8138 54.273C14.9088 54.208 15.0208 54.17 15.1358 54.164C15.2518 54.157 15.3668 54.183 15.4678 54.237C15.5698 54.292 15.6548 54.373 15.7138 54.473C16.0138 54.673 15.9138 55.173 15.5138 55.373Z" fill="#D5DDEA"/>
<path d="M22.4131 39.1731L27.0131 47.2731C27.3551 47.8031 27.8821 48.1891 28.4911 48.3551C29.1001 48.5211 29.7491 48.4561 30.3131 48.1731L37.6131 44.1731" fill="#D5DDEA"/>
<path d="M39.0145 61.9729C38.0985 59.999 36.8845 58.178 35.4145 56.573C35.0285 56.165 34.5635 55.839 34.0475 55.616C33.5325 55.392 32.9765 55.2759 32.4145 55.2729C31.1855 55.3239 29.9855 55.6669 28.9145 56.2729C26.8695 57.1119 24.8965 58.1149 23.0145 59.2729C21.1465 60.2079 19.4545 61.459 18.0145 62.9729C16.3145 65.273 17.2145 67.573 18.4145 69.9729C19.3305 71.9469 20.5445 73.768 22.0145 75.373C22.5695 75.953 23.2775 76.3639 24.0555 76.5579C24.8345 76.7529 25.6525 76.7229 26.4145 76.4729C28.5145 75.9729 32.4145 73.7729 34.2145 72.6729C35.8145 71.6729 37.7145 70.773 38.9145 69.273C41.2145 66.973 40.4145 64.573 39.0145 61.9729ZM25.0145 64.4729C24.7145 63.8729 24.9145 63.3729 25.7145 63.4729C27.8145 63.573 29.8145 63.573 31.8145 63.673C32.6145 63.673 32.8145 64.073 32.5145 64.773C31.5145 66.473 30.5145 68.2729 29.5145 70.0729C29.1145 70.6729 28.6145 70.6729 28.3145 70.1729C28.0145 69.8729 25.3145 64.9729 25.0145 64.4729Z" fill="#D5DDEA"/>
<path d="M100.914 95.173L100.014 94.573C99.9523 94.526 99.9053 94.461 99.8823 94.387C99.8583 94.313 99.8583 94.233 99.8823 94.159C99.9053 94.085 99.9523 94.02 100.014 93.973C100.104 93.883 100.221 93.825 100.347 93.807C100.474 93.789 100.602 93.812 100.714 93.873L101.614 94.473C101.814 94.573 101.814 94.873 101.714 95.073C101.601 95.159 101.468 95.214 101.328 95.231C101.187 95.249 101.044 95.229 100.914 95.173Z" fill="#E3EAF2"/>
<path d="M98.5137 93.273L93.4137 89.273C93.2137 89.173 93.2137 88.873 93.3137 88.673C93.4137 88.473 93.7137 88.473 94.0137 88.573L99.1137 92.573C99.3137 92.673 99.3137 92.973 99.2137 93.173C99.1617 93.244 99.0917 93.3 99.0107 93.335C98.9297 93.37 98.8417 93.383 98.7537 93.372C98.6667 93.361 98.5837 93.327 98.5137 93.273Z" fill="#E3EAF2"/>
<path d="M150.413 67.5731L131.313 92.2731C131.115 92.5531 130.841 92.7711 130.524 92.9021C130.207 93.0331 129.859 93.0711 129.521 93.0131C129.183 92.9551 128.868 92.8021 128.613 92.5731L104.813 73.8731C104.533 73.6751 104.315 73.4011 104.184 73.0841C104.053 72.7671 104.015 72.4191 104.073 72.0811C104.131 71.7431 104.284 71.4281 104.513 71.1731L129.313 39.6731C129.511 39.3931 129.785 39.1751 130.102 39.0441C130.419 38.9131 130.767 38.8751 131.105 38.9331C131.443 38.9911 131.758 39.1441 132.013 39.3731L149.313 52.9731L150.413 67.5731Z" fill="white"/>
<path d="M142.314 55.673L130.814 46.673C130.682 46.567 130.598 46.412 130.579 46.244C130.561 46.076 130.61 45.907 130.716 45.774C130.821 45.642 130.976 45.557 131.144 45.538C131.312 45.519 131.481 45.568 131.614 45.673L143.114 54.673C143.231 54.789 143.304 54.942 143.323 55.105C143.341 55.269 143.302 55.434 143.214 55.573C143.108 55.705 142.953 55.79 142.785 55.809C142.616 55.827 142.447 55.779 142.314 55.673Z" fill="#D5DDEA"/>
<path d="M133.114 52.873L128.814 49.373C128.697 49.257 128.624 49.104 128.605 48.941C128.587 48.777 128.626 48.612 128.714 48.473C128.914 48.173 129.214 48.173 129.614 48.373L133.914 51.873C134.031 51.989 134.104 52.142 134.123 52.305C134.141 52.469 134.102 52.634 134.014 52.773C133.907 52.904 133.753 52.988 133.584 53.007C133.416 53.025 133.247 52.977 133.114 52.873Z" fill="#D5DDEA"/>
<path d="M149.313 52.9731L144.013 59.6731C143.655 60.1371 143.496 60.7251 143.571 61.3061C143.646 61.8871 143.949 62.4151 144.413 62.7731L150.513 67.5731" fill="#D5DDEA"/>
<path d="M143.013 69.0731L137.013 64.4731L130.813 59.5731L125.113 55.0731C124.904 54.9101 124.655 54.8071 124.393 54.7741C124.13 54.7401 123.863 54.7781 123.621 54.8841C123.378 54.9891 123.168 55.1581 123.013 55.3731L114.813 65.7731C114.575 66.0841 114.464 66.4731 114.501 66.8621C114.538 67.2521 114.721 67.6131 115.013 67.8731L133.013 82.0731C133.222 82.2361 133.471 82.3391 133.733 82.3721C133.996 82.4061 134.263 82.3681 134.505 82.2621C134.748 82.1571 134.958 81.9881 135.113 81.7731L143.313 71.3731C143.566 71.0241 143.676 70.5911 143.621 70.1631C143.565 69.7361 143.347 69.3451 143.013 69.0731ZM124.013 68.9731L125.813 66.5731L131.313 70.8731L129.513 73.2731L124.013 68.9731ZM129.013 73.9731L127.313 76.1731L121.813 71.8731L123.513 69.6731L129.013 73.9731ZM133.713 67.8731L131.913 70.2731L126.413 65.9731L128.213 63.5731L133.713 67.8731ZM128.713 62.8731L130.713 60.4731L136.213 64.7731L134.413 67.1731L128.713 62.8731ZM138.713 75.5731L132.613 70.7731L134.413 68.3731L140.513 73.1731L138.713 75.5731ZM125.713 65.3731L119.813 60.7731L121.613 58.3731L127.513 62.9731L125.713 65.3731ZM119.213 61.4731L125.113 66.0731L123.313 68.4731L117.413 63.8731L119.213 61.4731ZM132.113 71.4731L138.213 76.2731L136.413 78.6731L130.313 73.8731L132.113 71.4731ZM142.613 70.6731L141.113 72.5731L135.013 67.7731L136.813 65.3731L142.413 69.7731C142.521 69.8231 142.612 69.9051 142.671 70.0091C142.731 70.1121 142.758 70.2311 142.747 70.3501C142.737 70.4691 142.69 70.5821 142.613 70.6731ZM124.513 55.5731L129.913 59.8731L128.113 62.2731L122.213 57.6731L123.713 55.7731C123.803 55.6531 123.932 55.5671 124.077 55.5311C124.223 55.4941 124.377 55.5091 124.513 55.5731ZM115.513 66.1731L116.813 64.5731L122.713 69.1731L121.013 71.3731L115.513 67.0731C115.416 66.9431 115.363 66.7851 115.363 66.6231C115.363 66.4611 115.416 66.3031 115.513 66.1731ZM133.613 81.0731L128.013 76.6731L129.713 74.4731L135.813 79.2731L134.413 80.9731C134.38 81.0831 134.306 81.1751 134.206 81.2311C134.106 81.2861 133.988 81.3011 133.877 81.2721C133.767 81.2421 133.672 81.1711 133.613 81.0731Z" fill="#D5DDEA"/>
<path d="M93.8143 91.3731L88.1143 90.7731C88.0193 90.7711 87.9283 90.7381 87.8543 90.6801C87.7793 90.6211 87.7253 90.5411 87.7003 90.4491C87.6753 90.3581 87.6803 90.2611 87.7143 90.1731C87.7143 89.8731 88.0143 89.6731 88.4143 89.7731L94.1143 90.3731C94.2093 90.3751 94.3003 90.4081 94.3743 90.4661C94.4493 90.5251 94.5033 90.6051 94.5283 90.6971C94.5533 90.7881 94.5483 90.8851 94.5143 90.9731C94.4143 91.2731 94.1143 91.5731 93.8143 91.3731Z" fill="white"/>
<path d="M120.614 96.773L114.414 124.473C114.014 126.073 112.114 127.373 109.714 127.373H42.414C40.114 127.373 38.114 126.173 37.714 124.473L32.614 101.773C32.214 100.073 34.114 98.473 36.514 98.473H74.514C75.008 98.493 75.498 98.384 75.937 98.156C76.376 97.928 76.747 97.589 77.014 97.173L78.114 94.773C78.374 94.351 78.744 94.007 79.185 93.778C79.625 93.549 80.119 93.444 80.614 93.473H116.814C119.114 93.473 120.914 95.073 120.614 96.773Z" fill="white"/>
<path d="M125.514 93.0731L118.614 135.573C118.408 136.803 117.773 137.921 116.821 138.726C115.869 139.532 114.661 139.974 113.414 139.973H38.4138C37.1618 139.992 35.9448 139.557 34.9888 138.748C34.0328 137.939 33.4018 136.811 33.2138 135.573L27.5138 100.673C27.3848 99.8381 27.4978 98.9831 27.8388 98.2101C28.1808 97.4361 28.7368 96.7771 29.4408 96.3101C30.1448 95.8431 30.9688 95.5871 31.8138 95.5731H74.1138C74.7418 95.5601 75.3498 95.3501 75.8518 94.9741C76.3538 94.5971 76.7258 94.0721 76.9138 93.4731L78.1138 89.7731C78.3018 89.1741 78.6738 88.6491 79.1758 88.2721C79.6777 87.8961 80.2858 87.6861 80.9138 87.6731H121.214C122.067 87.7651 122.881 88.0821 123.572 88.5911C124.263 89.0991 124.807 89.7821 125.148 90.5701C125.489 91.3571 125.615 92.2211 125.514 93.0731Z" fill="white"/>
<path d="M102.714 37.4731L99.5139 72.1731C99.4839 72.5561 99.3489 72.9231 99.1229 73.2341C98.8979 73.5451 98.5909 73.7881 98.2369 73.9361C97.8819 74.0841 97.4939 74.1321 97.1139 74.0731L63.3139 70.5731C62.7329 70.5151 62.1969 70.2301 61.8229 69.7821C61.4499 69.3331 61.2669 68.7551 61.3139 68.1731L65.9139 23.6731C65.9439 23.2901 66.0789 22.9231 66.3049 22.6121C66.5299 22.3011 66.8369 22.0581 67.1909 21.9101C67.5459 21.7621 67.9339 21.7141 68.3139 21.7731L92.8139 24.2731L102.714 37.4731Z" fill="white"/>
<path d="M92.9138 24.373L91.9138 33.873C91.8698 34.534 92.0868 35.186 92.5158 35.69C92.9448 36.194 93.5548 36.511 94.2138 36.573L102.814 37.473" fill="#D5DDEA"/>
<path d="M96.114 62.773L68.414 59.673C68.2 59.665 67.993 59.597 67.815 59.477C67.637 59.358 67.496 59.191 67.408 58.996C67.319 58.801 67.287 58.585 67.314 58.373L69.414 40.673C69.459 40.363 69.617 40.08 69.856 39.877C70.095 39.675 70.401 39.567 70.714 39.573L98.414 42.573C98.628 42.581 98.835 42.649 99.013 42.769C99.191 42.888 99.332 43.055 99.42 43.25C99.509 43.445 99.541 43.661 99.514 43.873L97.414 61.573C97.372 61.893 97.219 62.189 96.981 62.409C96.744 62.628 96.437 62.757 96.114 62.773Z" fill="#ECF0F8"/>
<path d="M83.6135 58.4731L70.8135 56.9731L78.0135 50.4731L83.6135 58.4731Z" fill="#D5DDEA"/>
<path d="M94.2139 59.6731L75.7139 57.4731L86.2139 48.1731L94.2139 59.6731Z" fill="white"/>
<path d="M77.0128 47.6731C77.6758 47.6731 78.3118 47.4091 78.7808 46.9411C79.2488 46.4721 79.5128 45.8361 79.5128 45.1731C79.5128 44.5101 79.2488 43.8741 78.7808 43.4051C78.3118 42.9371 77.6758 42.6731 77.0128 42.6731C76.3498 42.6731 75.7138 42.9371 75.2448 43.4051C74.7768 43.8741 74.5128 44.5101 74.5128 45.1731C74.5088 45.6131 74.6218 46.0461 74.8408 46.4281C75.0588 46.8101 75.3758 47.1271 75.7578 47.3451C76.1398 47.5641 76.5728 47.6771 77.0128 47.6731Z" fill="#D5DDEA"/>
<path d="M87.7145 30.173L70.9145 28.273C70.7145 28.273 70.5145 28.073 70.6145 27.873V27.673C70.6145 27.473 70.8145 27.273 71.0145 27.373L87.8145 29.273C88.0145 29.273 88.2145 29.473 88.1145 29.673V29.873C88.2145 30.073 88.0145 30.273 87.7145 30.173Z" fill="#D5DDEA"/>
<path d="M87.6127 33.373L70.6127 31.473C70.4127 31.473 70.2127 31.273 70.3127 31.073V30.873C70.3127 30.673 70.5127 30.473 70.7127 30.573L87.7127 32.473C87.9127 32.473 88.1127 32.673 88.0127 32.873V33.073C88.1127 33.173 87.8127 33.373 87.6127 33.373Z" fill="#D5DDEA"/>
<path d="M88.2143 66.073L67.1143 63.673C67.0193 63.671 66.9283 63.638 66.8543 63.58C66.7793 63.521 66.7253 63.441 66.7003 63.349C66.6753 63.258 66.6803 63.161 66.7143 63.073C66.7143 62.773 67.0143 62.573 67.4143 62.673L88.4143 65.073C88.5093 65.075 88.6003 65.108 88.6743 65.166C88.7493 65.225 88.8033 65.305 88.8283 65.397C88.8533 65.488 88.8483 65.585 88.8143 65.673C88.7143 65.973 88.5143 66.173 88.2143 66.073Z" fill="#D5DDEA"/>
<path d="M85.1125 36.373L70.3125 34.673C70.2175 34.671 70.1265 34.638 70.0525 34.58C69.9775 34.521 69.9235 34.441 69.8985 34.349C69.8735 34.258 69.8785 34.161 69.9125 34.073C69.9125 33.773 70.2125 33.573 70.6125 33.673L85.4125 35.373C85.5075 35.375 85.5985 35.408 85.6725 35.466C85.7475 35.525 85.8015 35.605 85.8265 35.697C85.8515 35.788 85.8465 35.885 85.8125 35.973C85.7495 36.102 85.6485 36.209 85.5235 36.28C85.3995 36.351 85.2555 36.384 85.1125 36.373Z" fill="#D5DDEA"/>
<path d="M96.0143 70.173L66.6143 66.673C66.5193 66.671 66.4283 66.638 66.3543 66.58C66.2793 66.521 66.2253 66.441 66.2003 66.349C66.1753 66.258 66.1803 66.161 66.2143 66.073C66.2143 65.773 66.5143 65.573 66.9143 65.673L96.3143 69.073C96.4093 69.075 96.5003 69.108 96.5743 69.166C96.6493 69.225 96.7033 69.305 96.7283 69.397C96.7533 69.488 96.7483 69.585 96.7143 69.673C96.6623 69.818 96.5683 69.944 96.4433 70.033C96.3173 70.122 96.1683 70.171 96.0143 70.173Z" fill="#D5DDEA"/>
<path d="M65.5145 17.1731C65.3155 17.2621 65.0885 17.2701 64.8835 17.1961C64.6785 17.1211 64.5095 16.9691 64.4145 16.7731L62.6145 12.2731C62.5295 12.0751 62.5245 11.8521 62.6005 11.6511C62.6775 11.4491 62.8295 11.2861 63.0245 11.1951C63.2195 11.1041 63.4425 11.0921 63.6465 11.1631C63.8495 11.2331 64.0175 11.3811 64.1145 11.5731L65.9145 16.0731C66.2145 16.6731 66.0145 17.0731 65.5145 17.1731Z" fill="#FF7C3C"/>
<path d="M62.2129 21.5731C62.1159 21.6841 61.9869 21.7621 61.8439 21.7981C61.7009 21.8341 61.5509 21.8251 61.4129 21.7731L56.7129 20.8731C56.4919 20.8251 56.2969 20.6951 56.1679 20.5101C56.0379 20.3251 55.9829 20.0971 56.0129 19.8731C56.0369 19.7271 56.1029 19.5901 56.2029 19.4811C56.3029 19.3711 56.4329 19.2931 56.5769 19.2561C56.7209 19.2191 56.8719 19.2251 57.0129 19.2731L61.7129 20.1731C61.9339 20.2211 62.1289 20.3511 62.2579 20.5361C62.3879 20.7211 62.4429 20.9491 62.4129 21.1731C62.3129 21.2731 62.3129 21.4731 62.2129 21.5731Z" fill="#FF7C3C"/>
<path d="M71.7142 16.6732C71.6142 16.6732 71.5142 16.5732 71.3142 16.5732C71.1542 16.4202 71.0562 16.2132 71.0372 15.9922C71.0192 15.7712 71.0822 15.5512 71.2142 15.3732L74.1142 11.5732C74.2602 11.4012 74.4682 11.2952 74.6932 11.2762C74.9172 11.2582 75.1402 11.3302 75.3122 11.4752C75.4842 11.6212 75.5922 11.8292 75.6112 12.0532C75.6302 12.2772 75.5592 12.5012 75.4142 12.6732L72.5142 16.4732C72.2572 16.5752 71.9882 16.6422 71.7142 16.6732Z" fill="#FF7C3C"/>
<path d="M96.7143 133.643C96.3143 135.362 95.7443 137.037 95.0143 138.643C93.1143 142.31 90.1033 145.286 86.4143 147.143C82.4703 149.163 77.9483 149.764 73.6143 148.843C68.5383 147.782 64.0843 144.748 61.2383 140.413C58.3923 136.078 57.3803 130.785 58.4253 125.705C59.4703 120.626 62.4893 116.163 66.8153 113.303C71.1423 110.443 76.4313 109.414 81.5143 110.443C85.2373 111.269 88.6633 113.102 91.4143 115.743C93.7213 118.047 95.4153 120.892 96.3413 124.019C97.2663 127.145 97.3953 130.454 96.7143 133.643Z" fill="white"/>
<path d="M77.9988 145.001C74.6008 145.001 71.3018 143.846 68.6458 141.728C65.9888 139.609 64.1298 136.649 63.3748 133.336C62.6188 130.023 63.0108 126.55 64.4858 123.489C65.9608 120.428 68.4328 117.957 71.4948 116.484C74.5568 115.011 78.0308 114.621 81.3428 115.379C84.6548 116.136 87.6138 117.997 89.7308 120.655C91.8478 123.312 93.0008 126.612 92.9988 130.01C92.9928 133.984 91.4098 137.798 88.5988 140.607C85.7878 143.417 81.9728 144.998 77.9988 145.001ZM76.2908 124.046C75.9738 124.045 75.6608 124.12 75.3778 124.263C75.0158 124.465 74.7298 124.782 74.5668 125.163C74.4598 125.51 74.3728 125.863 74.3058 126.22C74.1208 127.47 74.0378 128.733 74.0598 129.997C74.0478 131.221 74.1198 132.444 74.2768 133.658C74.2918 133.712 74.3038 133.767 74.3128 133.822C74.3768 134.216 74.4808 134.602 74.6238 134.974C74.7758 135.27 75.0068 135.518 75.2898 135.691C75.5738 135.865 75.8998 135.957 76.2318 135.958H76.2898C76.7558 135.89 77.2098 135.754 77.6358 135.553C79.7578 134.556 81.7088 133.227 83.4128 131.616L83.5008 131.53C83.6438 131.383 83.7788 131.228 83.9058 131.067C84.1328 130.763 84.2548 130.393 84.2528 130.013C84.2568 129.605 84.1248 129.206 83.8758 128.882L83.7808 128.782C83.6808 128.677 83.5388 128.517 83.3988 128.382C81.6578 126.74 79.6628 125.391 77.4908 124.387C77.1068 124.224 76.7038 124.109 76.2908 124.046Z" fill="#FF7C3C"/>
</g>
<defs>
<clipPath id="clip0_1234_3707">
<rect width="150" height="150" fill="white"/>
</clipPath>
</defs>
</svg>
