<svg width="150" height="150" viewBox="0 0 150 150" fill="none" xmlns="http://www.w3.org/2000/svg">
<path d="M74.1845 147.178C90.6155 147.211 106.58 141.658 119.444 131.435C132.308 121.212 141.323 106.914 145.002 90.8999C148.681 74.8859 146.81 58.0879 139.698 43.2759C132.585 28.4639 120.645 16.4999 105.847 9.35794C91.0485 2.21594 74.2545 0.311945 58.2325 3.95894C42.2115 7.60594 27.8965 16.5929 17.6475 29.4359C7.39954 42.2799 1.81454 58.2329 1.81454 74.6639C1.79454 87.3809 5.12554 99.8819 11.4715 110.904C17.8165 121.925 26.9555 131.082 37.9645 137.449C48.9725 143.817 61.4675 147.173 74.1845 147.178Z" fill="#EAEEF9"/>
<path d="M128.53 149C130.081 149 131.571 148.383 132.667 147.286C133.764 146.188 134.381 144.699 134.381 143.148C134.381 141.596 133.764 140.107 132.667 139.01C131.57 137.913 130.081 137.296 128.529 137.296C126.978 137.296 125.489 137.913 124.391 139.01C123.294 140.106 122.677 141.596 122.677 143.147C122.679 144.698 123.297 146.187 124.394 147.283C125.49 148.38 126.979 148.998 128.53 149Z" fill="#EAEEF9"/>
<path d="M133.028 18.8669C134.088 18.8669 135.107 18.4449 135.856 17.6949C136.606 16.9459 137.028 15.9269 137.028 14.8669C137.028 13.8069 136.606 12.7879 135.856 12.0389C135.107 11.2889 134.088 10.8669 133.028 10.8669C131.968 10.8669 130.949 11.2889 130.2 12.0389C129.45 12.7879 129.028 13.8069 129.028 14.8669C129.03 15.9269 129.453 16.9429 130.202 17.6929C130.952 18.4419 131.968 18.8649 133.028 18.8669Z" fill="#43D477" fill-opacity="0.5"/>
<path d="M14.499 11.905C15.559 11.905 16.578 11.483 17.327 10.733C18.077 9.98403 18.499 8.96503 18.499 7.90503C18.499 6.84503 18.077 5.82603 17.327 5.07703C16.578 4.32703 15.559 3.90503 14.499 3.90503C13.439 3.90503 12.42 4.32703 11.671 5.07703C10.921 5.82603 10.499 6.84503 10.499 7.90503C10.499 8.96503 10.921 9.98403 11.671 10.733C12.42 11.483 13.439 11.905 14.499 11.905Z" fill="#EAEEF9"/>
<path d="M99.022 32.7549C123.664 32.7549 143.533 50.6689 143.533 72.7089C143.533 85.3699 136.967 96.7089 126.618 104.109V120.709C126.624 121.375 126.379 122.019 125.932 122.514C125.486 123.008 124.87 123.317 124.207 123.379C123.543 123.442 122.881 123.253 122.35 122.85L108.218 111.83C105.235 112.354 102.214 112.631 99.185 112.658C74.544 112.658 54.667 94.7289 54.667 72.7039C54.667 50.6789 74.545 32.7549 99.022 32.7549Z" fill="#CBD4E0"/>
<path d="M55.4899 30.7849C28.0549 30.7849 5.87891 50.6689 5.87891 75.1639C5.87891 89.3099 13.2719 101.971 24.7709 110.022V128.436C24.7509 129.184 25.0209 129.912 25.5249 130.466C26.0289 131.02 26.7279 131.358 27.4749 131.408C28.2219 131.458 28.9599 131.217 29.5339 130.736L45.3039 118.574C48.6029 119.235 51.9599 119.565 55.3249 119.559C82.7599 119.559 104.936 99.6749 104.936 75.1659C104.936 50.6569 82.7589 30.7849 55.4899 30.7849Z" fill="white"/>
<path d="M39.3087 76.976C40.5377 76.977 41.7307 76.56 42.6917 75.794C43.6527 75.029 44.3257 73.959 44.5997 72.761C44.8727 71.563 44.7317 70.3069 44.1997 69.1999C43.6667 68.0929 42.7727 67.199 41.6667 66.666C40.5597 66.132 39.3037 65.991 38.1057 66.264C36.9077 66.537 35.8377 67.209 35.0717 68.17C34.3047 69.13 33.8877 70.323 33.8877 71.552C33.8877 72.504 34.1377 73.439 34.6137 74.264C35.0887 75.088 35.7737 75.773 36.5977 76.249C37.4217 76.725 38.3567 76.976 39.3087 76.976Z" fill="#0F70FF"/>
<path d="M70.0284 76.976C71.2574 76.977 72.4504 76.56 73.4114 75.794C74.3724 75.029 75.0454 73.959 75.3194 72.761C75.5924 71.563 75.4514 70.3069 74.9194 69.1999C74.3864 68.0929 73.4924 67.199 72.3864 66.666C71.2794 66.132 70.0234 65.991 68.8254 66.264C67.6274 66.537 66.5574 67.209 65.7914 68.17C65.0244 69.13 64.6074 70.323 64.6074 71.552C64.6064 72.504 64.8574 73.439 65.3324 74.264C65.8084 75.088 66.4924 75.773 67.3174 76.249C68.1414 76.725 69.0764 76.976 70.0284 76.976Z" fill="#0F70FF"/>
<path d="M61.486 94.2491C61.228 94.2601 60.971 94.2041 60.74 94.0861C60.51 93.9691 60.314 93.7941 60.171 93.5781C59.535 92.6971 58.694 91.9831 57.722 91.4991C56.749 91.0141 55.673 90.7721 54.587 90.7951C53.524 90.7741 52.471 91.0171 51.525 91.5021C50.579 91.9881 49.768 92.7011 49.166 93.5781C48.901 93.9161 48.514 94.1371 48.088 94.1931C47.663 94.2491 47.232 94.1361 46.888 93.8791C46.544 93.6211 46.315 93.2391 46.25 92.8151C46.184 92.3911 46.287 91.9571 46.537 91.6081C47.464 90.2901 48.694 89.2141 50.124 88.4711C51.553 87.7291 53.141 87.3411 54.752 87.3401C56.359 87.3601 57.94 87.7561 59.366 88.4971C60.793 89.2381 62.025 90.3041 62.965 91.6081C63.216 91.9531 63.325 92.3821 63.27 92.8051C63.214 93.2291 62.998 93.6151 62.666 93.8831C62.334 94.1521 61.912 94.2831 61.486 94.2491Z" fill="#0F70FF"/>
<path d="M43.2709 26.6009H42.6769C42.2049 26.4319 41.8069 26.1009 41.5539 25.6679C41.2999 25.2349 41.2069 24.7269 41.2909 24.2319L44.6579 13.3259C44.7929 12.8319 45.1179 12.4109 45.5609 12.1549C46.0039 11.8979 46.5309 11.8269 47.0269 11.9569C47.5219 12.0869 47.9469 12.4069 48.2079 12.8469C48.4689 13.2879 48.5449 13.8139 48.4209 14.3109L45.2519 25.2169C45.1239 25.6359 44.8599 25.9999 44.4999 26.2509C44.1409 26.5019 43.7079 26.6249 43.2709 26.6009Z" fill="#B5BCCE"/>
<path d="M34.9519 28.9871C34.5289 28.9521 34.1219 28.8051 33.7739 28.5621C33.4259 28.3191 33.1489 27.9871 32.9709 27.6021L27.8209 11.9431C27.6389 11.4451 27.6619 10.8941 27.8839 10.4131C28.1059 9.93111 28.5099 9.55711 29.0069 9.37211C29.5039 9.18711 30.0549 9.20711 30.5379 9.42611C31.0199 9.64511 31.3969 10.0471 31.5849 10.5431L36.7339 26.2161C36.9019 26.7151 36.8729 27.2601 36.6519 27.7371C36.4309 28.2151 36.0349 28.5901 35.5459 28.7851C35.4689 28.8611 35.3749 28.9191 35.2719 28.9541C35.1689 28.9891 35.0599 29.0001 34.9519 28.9871Z" fill="#B5BCCE"/>
<path d="M27.2261 32.755C26.9651 32.762 26.7061 32.711 26.4661 32.608C26.2261 32.504 26.0121 32.35 25.8381 32.155L19.5001 26.017C19.1471 25.646 18.9521 25.152 18.9581 24.639C18.9631 24.127 19.1691 23.637 19.5301 23.274C19.8921 22.912 20.3811 22.704 20.8941 22.696C21.4061 22.689 21.9011 22.882 22.2731 23.234L28.6111 29.386C28.8621 29.625 29.0431 29.927 29.1361 30.261C29.2281 30.594 29.2281 30.947 29.1361 31.28C29.0431 31.614 28.8621 31.916 28.6111 32.155C28.2381 32.517 27.7451 32.731 27.2261 32.755Z" fill="#B5BCCE"/>
</svg>
