<svg width="318" height="241" viewBox="0 0 318 241" fill="none" xmlns="http://www.w3.org/2000/svg">
<g clip-path="url(#clip0_1234_3999)">
<path d="M160.821 147.48C176.133 147.48 190.833 141.39 201.66 130.563C212.486 119.736 218.575 105.036 218.575 89.724C218.575 74.413 212.486 59.713 201.659 48.886C190.832 38.059 176.131 31.97 160.82 31.97C145.508 31.97 130.808 38.059 119.981 48.886C109.154 59.713 103.065 74.413 103.065 89.725C103.077 105.033 109.17 119.727 119.995 130.551C130.819 141.376 145.513 147.468 160.821 147.48Z" fill="#EAEEF9"/>
<path d="M124.48 73.937H194.292C195.602 73.959 196.854 74.49 197.781 75.417C198.707 76.344 199.238 77.596 199.259 78.906V122.965C199.237 124.275 198.707 125.527 197.78 126.453C196.854 127.38 195.602 127.91 194.292 127.932H124.48C123.17 127.91 121.918 127.38 120.992 126.453C120.065 125.527 119.535 124.275 119.513 122.965V78.906C119.534 77.596 120.065 76.344 120.991 75.417C121.918 74.49 123.17 73.959 124.48 73.937Z" fill="white"/>
<path d="M228.003 75.2871C228.734 74.6121 229.214 73.7081 229.364 72.7241C229.514 71.7411 229.326 70.7351 228.83 69.8731C228.333 69.0101 227.559 68.3411 226.633 67.9771C225.708 67.6121 224.685 67.5721 223.734 67.8641C222.783 68.1571 221.959 68.7631 221.397 69.5851C220.836 70.4061 220.571 71.3951 220.644 72.3871C220.718 73.3791 221.127 74.3171 221.803 75.0471C222.604 75.8821 223.698 76.3751 224.855 76.4191C226.011 76.4641 227.14 76.0581 228.003 75.2871Z" fill="#EAEEF9"/>
<path d="M228.242 55.597C228.606 55.265 228.823 54.801 228.846 54.309C228.868 53.817 228.694 53.336 228.362 52.972C228.03 52.608 227.566 52.391 227.074 52.369C226.582 52.346 226.101 52.52 225.737 52.852C225.373 53.184 225.156 53.648 225.133 54.14C225.111 54.632 225.285 55.113 225.617 55.477C225.828 55.732 226.106 55.923 226.42 56.028C226.733 56.133 227.07 56.148 227.392 56.072C227.714 55.996 228.009 55.831 228.242 55.597Z" fill="#EAEEF9"/>
<path d="M181.35 28.5101C181.566 28.3211 181.712 28.0641 181.764 27.7811C181.815 27.4981 181.769 27.2061 181.632 26.9531C181.496 26.7001 181.278 26.5001 181.013 26.3871C180.749 26.2741 180.454 26.2551 180.177 26.3311C179.9 26.4081 179.657 26.5761 179.488 26.8091C179.319 27.0421 179.234 27.3251 179.247 27.6121C179.26 27.8991 179.371 28.1741 179.56 28.3901C179.786 28.6351 180.098 28.7841 180.431 28.8061C180.764 28.8291 181.093 28.7231 181.35 28.5101Z" fill="#EAEEF9"/>
<path d="M224.626 50.666L207.238 81.651C207.062 81.98 206.799 82.255 206.479 82.446C206.158 82.637 205.792 82.737 205.418 82.735C205.045 82.733 204.68 82.629 204.361 82.435L174.554 65.047C174.225 64.871 173.95 64.609 173.759 64.288C173.568 63.968 173.468 63.601 173.47 63.228C173.471 62.855 173.575 62.49 173.769 62.171L196.647 22.688C196.823 22.359 197.086 22.084 197.406 21.893C197.727 21.702 198.093 21.602 198.466 21.604C198.84 21.606 199.205 21.709 199.524 21.903L221.095 34.454L224.626 50.666Z" fill="#F2F6FA"/>
<path d="M221.096 34.4541L216.129 42.8211C215.809 43.3951 215.726 44.0721 215.897 44.7071C216.067 45.3411 216.479 45.8851 217.044 46.2211L224.496 50.5351" fill="#D5DAE6"/>
<path d="M112.845 37.2001L132.718 57.9861C132.934 58.2101 133.085 58.4901 133.153 58.7941C133.222 59.0981 133.205 59.4161 133.105 59.7111C133.005 60.0061 132.826 60.2691 132.587 60.4691L112.322 79.6861C112.098 79.9031 111.818 80.0541 111.513 80.1221C111.209 80.1901 110.892 80.1731 110.596 80.0731C110.301 79.9741 110.038 79.7941 109.838 79.5551L84.4748 52.7551C84.2588 52.5311 84.1078 52.2511 84.0398 51.9471C83.9708 51.6431 83.9878 51.3251 84.0878 51.0301C84.1878 50.7351 84.3668 50.4721 84.6058 50.2721L99.3798 36.4131L112.845 37.2001Z" fill="#F2F6FA"/>
<path d="M99.248 36.1531L104.739 41.9061C105.123 42.2831 105.64 42.4941 106.177 42.4941C106.715 42.4941 107.232 42.2831 107.616 41.9061L112.716 37.0691" fill="#D5DAE6"/>
<path d="M164.749 69.884L157.035 97.47C156.953 97.775 156.789 98.051 156.56 98.269C156.332 98.486 156.048 98.637 155.739 98.703C155.431 98.77 155.11 98.751 154.812 98.647L128.012 90.803C127.707 90.721 127.431 90.557 127.213 90.329C126.995 90.1 126.845 89.816 126.778 89.507C126.712 89.199 126.731 88.878 126.835 88.58L137.293 53.019C137.375 52.714 137.539 52.438 137.768 52.22C137.996 52.003 138.28 51.852 138.589 51.786C138.897 51.719 139.218 51.738 139.516 51.842L158.997 57.595L164.749 69.884Z" fill="#F2F6FA"/>
<path d="M158.999 57.6431L156.512 65.4431C156.389 65.9621 156.469 66.5091 156.737 66.9711C157.004 67.4331 157.438 67.7751 157.95 67.9271L164.845 69.8751" fill="#D5DAE6"/>
<path d="M227.759 117.08L202.396 130.807C201.98 131.014 201.499 131.047 201.058 130.9C200.617 130.753 200.252 130.438 200.043 130.023L187.362 105.314C187.155 104.898 187.121 104.416 187.268 103.976C187.415 103.535 187.731 103.17 188.146 102.961L221.092 85.5719C221.508 85.3659 221.99 85.3329 222.43 85.4799C222.871 85.6269 223.236 85.9419 223.445 86.3569L232.597 104.267L227.759 117.08Z" fill="#F2F6FA"/>
<path d="M204.04 113.326L204.06 113.075C204.249 110.854 204.674 108.66 205.326 106.529C205.819 105.033 206.636 103.663 207.719 102.518C208.771 101.452 210.166 100.788 211.657 100.645C212.393 100.577 213.136 100.673 213.831 100.926C214.526 101.178 215.157 101.581 215.678 102.106C215.858 102.28 216.02 102.472 216.162 102.679L216.207 102.768C216.343 102.959 216.464 103.16 216.57 103.369L216.611 103.45C216.83 103.915 216.979 104.409 217.053 104.918L217.075 104.962C217.076 104.992 217.073 105.021 217.065 105.05C217.099 105.235 217.114 105.423 217.11 105.611L217.128 105.954C217.123 106.049 217.112 106.143 217.095 106.236C217.086 106.293 217.078 106.343 217.076 106.381L217.074 106.42C217.071 106.504 217.063 106.589 217.05 106.672C218.077 107.158 218.914 107.97 219.43 108.982L219.446 109.014C219.686 109.477 219.849 109.976 219.929 110.492C220.046 111.217 220.002 111.958 219.798 112.664C219.595 113.369 219.237 114.02 218.752 114.571C217.754 115.686 216.404 116.425 214.927 116.664C213.361 116.879 211.766 116.738 210.261 116.254C208.162 115.534 206.143 114.596 204.239 113.456L204.035 113.329L204.04 113.326ZM217.561 110.983C217.497 110.861 217.398 110.762 217.275 110.698C217.153 110.635 217.014 110.611 216.878 110.63C216.704 110.657 216.547 110.75 216.441 110.891C216.334 111.032 216.287 111.208 216.309 111.383C216.336 111.661 216.278 111.941 216.143 112.186C216.008 112.431 215.802 112.629 215.552 112.754L215.53 112.765C215.358 112.834 215.22 112.968 215.145 113.137C215.076 113.306 215.076 113.495 215.145 113.664C215.226 113.81 215.359 113.921 215.516 113.976C215.674 114.03 215.847 114.025 216.001 113.96L216.09 113.915C216.597 113.673 217.016 113.279 217.29 112.789C217.565 112.3 217.682 111.737 217.624 111.178C217.614 111.11 217.592 111.044 217.561 110.982V110.983Z" fill="#D5DAE6" fill-opacity="0.24"/>
<path d="M232.471 104.529L225.411 108.19C224.967 108.474 224.634 108.901 224.467 109.401C224.301 109.901 224.311 110.443 224.496 110.936L227.634 117.211" fill="#D5DAE6"/>
<path d="M200.57 102.307V124.007C200.546 125.352 200.001 126.636 199.05 127.587C198.099 128.538 196.815 129.083 195.47 129.107H123.696C122.351 129.084 121.067 128.538 120.116 127.587C119.165 126.636 118.619 125.352 118.596 124.007V100.477" stroke="#1676EE" stroke-width="3" stroke-linecap="round" stroke-linejoin="round"/>
<path d="M197.824 88.318H173.246C170.857 88.299 168.538 89.134 166.709 90.671L160.172 95.9C158.312 97.383 156.014 98.211 153.636 98.254H125.657C124.305 98.255 123.008 98.793 122.052 99.749C121.096 100.705 120.558 102.002 120.557 103.354C120.536 103.622 120.581 103.892 120.688 104.139L125.788 130.939C125.988 132.157 126.607 133.269 127.538 134.08C128.468 134.891 129.654 135.352 130.888 135.384H190.636C191.863 135.402 193.056 134.974 193.993 134.182C194.931 133.389 195.55 132.283 195.736 131.07L202.927 94.202C203.062 93.317 202.96 92.412 202.629 91.58C202.298 90.749 201.752 90.02 201.046 89.47C200.34 88.919 199.5 88.567 198.613 88.449C198.365 88.342 198.094 88.297 197.824 88.318Z" fill="white"/>
<path d="M204.625 83.48H175.338C172.534 83.513 169.819 84.479 167.625 86.226L159.781 92.632C157.607 94.415 154.879 95.386 152.067 95.378H118.467C117.388 95.377 116.328 95.66 115.393 96.199C114.458 96.738 113.682 97.514 113.143 98.448C112.604 99.383 112.321 100.443 112.322 101.522C112.301 101.833 112.346 102.145 112.453 102.437L118.598 134.992C118.822 136.468 119.563 137.817 120.688 138.798C121.812 139.779 123.25 140.33 124.742 140.352H195.995C197.469 140.337 198.892 139.806 200.014 138.85C201.137 137.895 201.889 136.576 202.14 135.123L210.64 90.541C210.894 88.93 210.5 87.282 209.545 85.96C208.59 84.638 207.149 83.746 205.54 83.481L204.625 83.48Z" fill="white"/>
<path d="M148.145 117.734C148.977 117.734 149.775 117.403 150.363 116.814C150.952 116.226 151.282 115.427 151.282 114.595C151.282 113.763 150.951 112.965 150.363 112.377C149.774 111.789 148.976 111.458 148.144 111.458C147.312 111.458 146.513 111.789 145.925 112.377C145.337 112.965 145.006 113.764 145.006 114.596C145.017 115.425 145.352 116.217 145.938 116.803C146.524 117.389 147.316 117.723 148.145 117.734Z" fill="#FF7C3C"/>
<path d="M172.587 117.212C173.419 117.212 174.218 116.881 174.806 116.293C175.394 115.705 175.725 114.906 175.725 114.074C175.725 113.242 175.394 112.443 174.806 111.855C174.218 111.267 173.419 110.936 172.587 110.936C171.755 110.936 170.956 111.267 170.368 111.855C169.78 112.443 169.449 113.242 169.449 114.074C169.46 114.902 169.795 115.694 170.381 116.28C170.967 116.866 171.759 117.201 172.587 117.212Z" fill="#FF7C3C"/>
<path d="M166.97 122.441H165.27C164.829 121.529 164.149 120.754 163.303 120.198C162.456 119.642 161.475 119.326 160.463 119.283C159.451 119.241 158.446 119.474 157.556 119.957C156.46 120.464 155.579 121.345 155.072 122.441H153.372C154.055 120.627 155.429 119.155 157.191 118.347C158.953 117.54 160.965 117.46 162.785 118.127C163.741 118.521 164.606 119.107 165.326 119.849C166.046 120.591 166.605 121.474 166.97 122.441Z" fill="#FF7C3C"/>
<path d="M140.431 109.237L147.49 105.446" stroke="#989FB0" stroke-width="1.5"/>
<path d="M178.737 107.407L171.677 103.484" stroke="#989FB0" stroke-width="1.5"/>
<path d="M116.259 63.9061L115.96 63.9661C113.312 64.4881 110.616 64.7281 107.917 64.6821C106.007 64.6051 104.138 64.1071 102.443 63.2251C100.852 62.3561 99.6147 60.9561 98.9497 59.2701C98.6257 58.4351 98.4887 57.5391 98.5507 56.6451C98.6137 55.7511 98.8717 54.8821 99.3087 54.1001C99.4517 53.8301 99.6217 53.5761 99.8167 53.3411L99.9047 53.2591C100.081 53.0401 100.272 52.8341 100.478 52.6431L100.558 52.5681C101.026 52.1561 101.553 51.8171 102.122 51.5611L102.165 51.5211C102.199 51.5091 102.236 51.5041 102.272 51.5041C102.476 51.4031 102.69 51.3231 102.911 51.2651L103.304 51.1291C103.415 51.1031 103.528 51.0851 103.642 51.0741C103.712 51.0661 103.772 51.0581 103.816 51.0481L103.862 51.0381C103.962 51.0131 104.063 50.9941 104.165 50.9811C104.387 49.6221 105.055 48.3741 106.062 47.4351L106.094 47.4051C106.553 46.9711 107.08 46.6141 107.653 46.3491C108.458 45.9711 109.337 45.7751 110.227 45.7771C111.116 45.7791 111.995 45.9781 112.798 46.3601C114.426 47.1491 115.736 48.4731 116.507 50.1101C117.28 51.8621 117.649 53.7661 117.587 55.6801C117.449 58.3651 117.031 61.0281 116.339 63.6261L116.258 63.9061H116.259ZM109.016 48.9441C108.895 49.0591 108.813 49.2081 108.78 49.3721C108.747 49.5351 108.766 49.7051 108.833 49.8571C108.922 50.0511 109.084 50.2031 109.283 50.2801C109.482 50.3571 109.704 50.3531 109.9 50.2691C110.215 50.1431 110.561 50.1161 110.891 50.1901C111.222 50.2651 111.523 50.4381 111.753 50.6871L111.773 50.7091C111.911 50.8861 112.113 51.0031 112.335 51.0331C112.555 51.0571 112.776 50.9941 112.95 50.8561C113.093 50.7131 113.178 50.5221 113.188 50.3201C113.199 50.1181 113.135 49.9191 113.009 49.7611L112.928 49.6741C112.477 49.1651 111.879 48.8081 111.217 48.6521C110.555 48.4951 109.86 48.5471 109.229 48.8011C109.15 48.8361 109.078 48.8841 109.015 48.9431L109.016 48.9441Z" fill="#D5DAE6"/>
<path d="M143.946 83.5839L143.777 83.4039C142.278 81.8069 140.953 80.0549 139.824 78.1779C139.054 76.8289 138.592 75.3269 138.47 73.7789C138.384 72.3119 138.815 70.8599 139.688 69.6769C140.123 69.0939 140.681 68.6149 141.322 68.2729C141.964 67.9309 142.673 67.7339 143.399 67.6979C143.646 67.6799 143.894 67.6879 144.14 67.7199L144.237 67.7459C144.463 67.7729 144.686 67.8159 144.906 67.8749L144.992 67.8979C145.477 68.0429 145.938 68.2599 146.359 68.5409L146.405 68.5529C146.428 68.5709 146.447 68.5929 146.463 68.6179C146.62 68.7149 146.767 68.8279 146.902 68.9549L147.164 69.1669C147.23 69.2329 147.291 69.3029 147.348 69.3769C147.384 69.4219 147.415 69.4599 147.441 69.4869L147.468 69.5139C147.528 69.5719 147.584 69.6329 147.636 69.6979C148.667 69.2659 149.814 69.1879 150.894 69.4769L150.929 69.4859C151.425 69.6149 151.898 69.8239 152.327 70.1039C152.933 70.4959 153.445 71.0169 153.826 71.6299C154.206 72.2429 154.447 72.9329 154.529 73.6499C154.686 75.1109 154.338 76.5819 153.543 77.8169C152.67 79.1009 151.519 80.1729 150.176 80.9529C148.27 82.0139 146.258 82.8739 144.174 83.5169L143.949 83.5829L143.946 83.5839ZM151.127 72.1589C150.996 72.1249 150.858 72.1329 150.731 72.1799C150.605 72.2279 150.496 72.3129 150.42 72.4249C150.325 72.5699 150.29 72.7459 150.322 72.9159C150.355 73.0859 150.453 73.2369 150.595 73.3359C150.817 73.4989 150.985 73.7249 151.076 73.9849C151.167 74.2449 151.177 74.5259 151.105 74.7919L151.099 74.8159C151.038 74.9859 151.045 75.1739 151.119 75.3389C151.197 75.5009 151.336 75.6249 151.505 75.6849C151.665 75.7219 151.833 75.6979 151.977 75.6189C152.12 75.5389 152.23 75.4099 152.284 75.2549L152.31 75.1579C152.466 74.6279 152.454 74.0629 152.277 73.5409C152.1 73.0179 151.765 72.5619 151.319 72.2369C151.26 72.1999 151.196 72.1739 151.128 72.1579L151.127 72.1589Z" fill="#D5DAE6" fill-opacity="0.69"/>
<path d="M195.075 63.954L194.903 63.645C193.369 60.895 192.131 57.991 191.21 54.98C190.606 52.833 190.484 50.579 190.852 48.379C191.243 46.302 192.352 44.426 193.983 43.081C194.793 42.42 195.738 41.946 196.752 41.692C197.766 41.439 198.824 41.413 199.849 41.615C200.2 41.677 200.543 41.774 200.874 41.905L200.996 41.973C201.302 42.088 201.6 42.226 201.886 42.385L201.998 42.447C202.624 42.819 203.192 43.282 203.681 43.821L203.741 43.854C203.765 43.887 203.783 43.924 203.795 43.963C203.981 44.152 204.148 44.359 204.292 44.582L204.582 44.972C204.651 45.086 204.712 45.205 204.766 45.327C204.801 45.401 204.831 45.466 204.857 45.512L204.885 45.56C204.948 45.661 205.004 45.766 205.054 45.874C206.645 45.631 208.273 45.923 209.68 46.705L209.725 46.73C210.372 47.083 210.958 47.538 211.459 48.079C212.169 48.835 212.703 49.74 213.022 50.727C213.34 51.714 213.437 52.76 213.303 53.789C213.014 55.88 212.017 57.811 210.478 59.256C208.813 60.745 206.834 61.841 204.688 62.462C201.66 63.278 198.555 63.775 195.423 63.946L195.084 63.958L195.075 63.954ZM209.071 50.526C208.9 50.433 208.705 50.396 208.512 50.418C208.318 50.441 208.137 50.522 207.992 50.652C207.809 50.821 207.699 51.055 207.685 51.303C207.672 51.552 207.756 51.796 207.92 51.984C208.173 52.288 208.328 52.662 208.365 53.055C208.401 53.449 208.317 53.845 208.124 54.19L208.107 54.221C207.96 54.438 207.904 54.704 207.951 54.961C208.003 55.214 208.154 55.436 208.369 55.579C208.579 55.686 208.822 55.711 209.05 55.65C209.278 55.59 209.475 55.447 209.605 55.25L209.671 55.131C210.073 54.447 210.254 53.655 210.189 52.864C210.124 52.073 209.816 51.321 209.307 50.712C209.239 50.637 209.16 50.575 209.072 50.526H209.071Z" fill="#D5DAE6" fill-opacity="0.46"/>
</g>
<path d="M88.0419 187H90.4019L90.6819 178.4H87.7819L88.0419 187ZM87.7819 192H90.6619V188.78H87.7819V192ZM93.6473 187H96.0073L96.2873 178.4H93.3873L93.6473 187ZM93.3873 192H96.2673V188.78H93.3873V192ZM114.487 189.6H112.127V182H107.287C103.787 182 102.827 183.56 102.827 187C102.827 190.44 103.787 192 107.287 192H114.487C114.807 192 114.887 191.54 114.887 190.8C114.887 190.06 114.807 189.6 114.487 189.6ZM107.287 189.6C105.707 189.6 105.507 189.5 105.507 187C105.507 184.5 105.707 184.4 107.287 184.4H109.447V189.6H107.287ZM122.528 189.6H120.148V178H117.468V189.6H114.488C114.168 189.6 114.088 190.06 114.088 190.8C114.088 191.54 114.168 192 114.488 192H122.528C122.848 192 122.928 191.54 122.928 190.8C122.928 190.06 122.848 189.6 122.528 189.6ZM133.295 177.82H130.615V180.54H133.295V177.82ZM140.455 189.6H138.075V187.18C138.075 184.94 137.215 182 133.415 182C130.775 182 129.215 183.42 127.855 185.04V182H125.175V189.6H122.535C122.215 189.6 122.135 190.06 122.135 190.8C122.135 191.54 122.215 192 122.535 192H140.455C140.775 192 140.855 191.54 140.855 190.8C140.855 190.06 140.775 189.6 140.455 189.6ZM127.855 189.6V188.28C128.915 186.88 130.995 184.4 133.415 184.4C134.775 184.4 135.395 185.16 135.395 187.18V189.6H127.855ZM148.785 177.82H146.105V180.54H148.785V177.82ZM153.985 189.6H151.605V182H146.765C143.265 182 142.305 183.56 142.305 187C142.305 188.04 142.385 188.9 142.605 189.6H140.465C140.145 189.6 140.065 190.06 140.065 190.8C140.065 191.54 140.145 192 140.465 192H153.985C154.305 192 154.385 191.54 154.385 190.8C154.385 190.06 154.305 189.6 153.985 189.6ZM144.985 187C144.985 184.5 145.185 184.4 146.765 184.4H148.925V189.6H146.765C145.185 189.6 144.985 189.5 144.985 187ZM160.7 182C159 182 157.52 182.3 156.88 182.54C156.64 183.44 156.3 185.32 156.3 187.24C156.3 188.1 156.36 188.9 156.44 189.6H153.98C153.66 189.6 153.58 190.06 153.58 190.8C153.58 191.54 153.66 192 153.98 192H166.12V187.1C166.12 183.36 164.3 182 160.7 182ZM159.14 189.6C159.04 188.88 158.98 188 158.98 187.24C158.98 186.42 159.06 185.4 159.2 184.5C159.66 184.44 160.18 184.4 160.7 184.4C162.96 184.4 163.44 184.86 163.44 187.1V189.6H159.14ZM182.83 189.6H180.45V187.36C180.45 183.34 178.57 182 175.37 182H173.75V184.4H175.37C177.27 184.4 177.77 184.9 177.77 187.36V189.6H172.71V192H182.83C183.15 192 183.23 191.54 183.23 190.8C183.23 190.06 183.15 189.6 182.83 189.6ZM187.748 182C186.628 182 185.448 182.22 184.268 182.52L184.548 184.7C186.148 184.52 187.028 184.4 187.748 184.4C189.528 184.4 190.368 185.12 190.368 186.54V189.6H182.828C182.508 189.6 182.428 190.06 182.428 190.8C182.428 191.54 182.508 192 182.828 192H193.048V186.54C193.048 183.7 190.868 182 187.748 182ZM186.408 195.96H189.088V193.24H186.408V195.96ZM206.734 189.6H204.354V182H199.514C196.014 182 195.054 183.56 195.054 187C195.054 190.44 196.014 192 199.514 192H201.674V192.12C201.674 193.92 201.114 194.52 199.794 194.52C199.094 194.52 198.174 194.4 197.094 194.16L196.514 196.5C197.594 196.74 198.834 196.92 199.794 196.92C202.834 196.92 204.354 195.02 204.354 192.12V192H206.734C207.054 192 207.134 191.54 207.134 190.8C207.134 190.06 207.054 189.6 206.734 189.6ZM199.514 189.6C197.934 189.6 197.734 189.5 197.734 187C197.734 184.5 197.934 184.4 199.514 184.4H201.674V189.6H199.514ZM209.814 177.82H207.134V180.54H209.814V177.82ZM211.074 177.82V180.54H213.754V177.82H211.074ZM209.114 189.6H206.734C206.414 189.6 206.334 190.06 206.334 190.8C206.334 191.54 206.414 192 206.734 192H211.794V182H209.114V189.6ZM227.494 178V189.6H223.994V180.7H221.314V189.6H218.394V192H230.174V178H227.494Z" fill="#242424"/>
<path d="M59.4971 232C58.5691 232 57.8437 231.861 57.3211 231.584C56.8091 231.296 56.4464 230.859 56.2331 230.272C56.0304 229.675 55.9291 228.917 55.9291 228C55.9291 227.083 56.0304 226.331 56.2331 225.744C56.4464 225.147 56.8091 224.709 57.3211 224.432C57.8437 224.144 58.5691 224 59.4971 224H62.8091V231.36H61.5611V224.592L62.2011 225.136H59.4971C58.8784 225.136 58.3984 225.211 58.0571 225.36C57.7264 225.509 57.4971 225.792 57.3691 226.208C57.2411 226.613 57.1771 227.211 57.1771 228C57.1771 228.789 57.2411 229.392 57.3691 229.808C57.4971 230.213 57.7264 230.491 58.0571 230.64C58.3984 230.789 58.8784 230.864 59.4971 230.864H64.5371V232H59.4971ZM64.5371 232V230.864C64.6757 230.864 64.7611 230.917 64.7931 231.024C64.8357 231.12 64.8571 231.253 64.8571 231.424C64.8571 231.595 64.8357 231.733 64.7931 231.84C64.7611 231.947 64.6757 232 64.5371 232ZM67.7231 232V230.864H69.4511V232H67.7231ZM66.4751 232V220.528H67.7231V232H66.4751ZM64.5391 232V230.864H66.4751V232H64.5391ZM64.5391 232C64.4004 232 64.3151 231.947 64.2831 231.84C64.2404 231.733 64.2191 231.595 64.2191 231.424C64.2191 231.253 64.2404 231.12 64.2831 231.024C64.3151 230.917 64.4004 230.864 64.5391 230.864V232ZM69.4511 232V230.864C69.5897 230.864 69.6751 230.917 69.7071 231.024C69.7497 231.12 69.7711 231.253 69.7711 231.424C69.7711 231.595 69.7497 231.733 69.7071 231.84C69.6751 231.947 69.5897 232 69.4511 232ZM81.3653 232V230.864H83.0933V232H81.3653ZM69.4453 232V230.864H81.2693L80.1173 231.904V228.144C80.1173 227.472 80.0213 226.917 79.8293 226.48C79.648 226.032 79.3706 225.696 78.9973 225.472C78.6346 225.248 78.176 225.136 77.6213 225.136C77.152 225.136 76.7146 225.216 76.3093 225.376C75.9146 225.525 75.5466 225.728 75.2053 225.984C74.864 226.229 74.544 226.507 74.2453 226.816C73.9573 227.115 73.6906 227.419 73.4453 227.728C73.2 228.037 72.976 228.32 72.7733 228.576L72.3733 227.44C72.64 227.109 72.9066 226.779 73.1733 226.448C73.4506 226.117 73.7386 225.808 74.0373 225.52C74.336 225.221 74.6613 224.96 75.0133 224.736C75.376 224.512 75.7706 224.336 76.1973 224.208C76.624 224.069 77.104 224 77.6373 224C78.3946 224 79.0133 224.128 79.4933 224.384C79.984 224.64 80.3626 224.981 80.6293 225.408C80.9066 225.824 81.0986 226.272 81.2053 226.752C81.312 227.232 81.3653 227.696 81.3653 228.144V232H69.4453ZM71.7173 230.864V224H72.9653V230.864H71.7173ZM69.4453 232C69.3066 232 69.2213 231.947 69.1893 231.84C69.1466 231.733 69.1253 231.595 69.1253 231.424C69.1253 231.253 69.1466 231.12 69.1893 231.024C69.2213 230.917 69.3066 230.864 69.4453 230.864V232ZM83.0933 232V230.864C83.232 230.864 83.3173 230.917 83.3493 231.024C83.392 231.12 83.4133 231.253 83.4133 231.424C83.4133 231.595 83.392 231.733 83.3493 231.84C83.3173 231.947 83.232 232 83.0933 232ZM76.0853 222.576V221.136H77.3333V222.576H76.0853ZM91.5819 232V230.864H93.3099V232H91.5819ZM83.0859 232V230.864H91.1659L90.3339 231.584V224.592L90.9899 225.136H88.2699C87.6513 225.136 87.1713 225.211 86.8299 225.36C86.4993 225.509 86.2699 225.792 86.1419 226.208C86.0139 226.613 85.9499 227.211 85.9499 228C85.9499 228.789 86.0139 229.392 86.1419 229.808C86.2699 230.213 86.4993 230.491 86.8299 230.64C87.1713 230.789 87.6513 230.864 88.2699 230.864V231.68C87.3419 231.68 86.6166 231.568 86.0939 231.344C85.5819 231.109 85.2193 230.725 85.0059 230.192C84.8033 229.648 84.7019 228.917 84.7019 228C84.7019 227.083 84.8033 226.331 85.0059 225.744C85.2193 225.147 85.5819 224.709 86.0939 224.432C86.6166 224.144 87.3419 224 88.2699 224H91.5819V232H83.0859ZM83.0859 232C82.9473 232 82.8619 231.947 82.8299 231.84C82.7873 231.733 82.7659 231.595 82.7659 231.424C82.7659 231.253 82.7873 231.12 82.8299 231.024C82.8619 230.917 82.9473 230.864 83.0859 230.864V232ZM93.3099 232V230.864C93.4486 230.864 93.5339 230.917 93.5659 231.024C93.6086 231.12 93.6299 231.253 93.6299 231.424C93.6299 231.595 93.6086 231.733 93.5659 231.84C93.5339 231.947 93.4486 232 93.3099 232ZM87.8859 222.56V221.12H89.1339V222.56H87.8859ZM102.377 232V230.864H104.105V232H102.377ZM93.3047 232V230.864H102.057L101.129 231.52V228.08C101.129 227.333 101.043 226.747 100.873 226.32C100.702 225.893 100.409 225.589 99.9927 225.408C99.5874 225.227 99.0327 225.136 98.3287 225.136C97.8807 225.136 97.4327 225.168 96.9847 225.232C96.5474 225.296 96.206 225.381 95.9607 225.488L96.7127 224.72C96.6487 224.976 96.5847 225.301 96.5207 225.696C96.4567 226.08 96.4034 226.496 96.3607 226.944C96.318 227.392 96.2967 227.84 96.2967 228.288C96.2967 228.747 96.318 229.195 96.3607 229.632C96.4034 230.069 96.4514 230.448 96.5047 230.768C96.558 231.088 96.6007 231.312 96.6327 231.44L95.4487 231.776C95.406 231.637 95.3527 231.397 95.2887 231.056C95.2354 230.715 95.182 230.304 95.1287 229.824C95.086 229.344 95.0647 228.832 95.0647 228.288C95.0647 227.765 95.086 227.259 95.1287 226.768C95.182 226.267 95.2407 225.813 95.3047 225.408C95.3794 225.003 95.4487 224.677 95.5127 224.432C95.7474 224.336 96.1207 224.24 96.6327 224.144C97.1447 224.048 97.71 224 98.3287 224C99.2247 224 99.9714 224.133 100.569 224.4C101.177 224.667 101.63 225.099 101.929 225.696C102.227 226.283 102.377 227.077 102.377 228.08V232H93.3047ZM93.3047 232C93.166 232 93.0807 231.947 93.0487 231.84C93.006 231.733 92.9847 231.595 92.9847 231.424C92.9847 231.253 93.006 231.12 93.0487 231.024C93.0807 230.917 93.166 230.864 93.3047 230.864V232ZM104.105 232V230.864C104.243 230.864 104.329 230.917 104.361 231.024C104.403 231.12 104.425 231.253 104.425 231.424C104.425 231.595 104.403 231.733 104.361 231.84C104.329 231.947 104.243 232 104.105 232ZM106.038 232V220.528H107.286V232H106.038ZM104.102 232V230.864H106.038V232H104.102ZM104.102 232C103.963 232 103.878 231.947 103.846 231.84C103.803 231.733 103.782 231.595 103.782 231.424C103.782 231.253 103.803 231.12 103.846 231.024C103.878 230.917 103.963 230.864 104.102 230.864V232ZM110.044 232V220.528H111.276V232H110.044ZM120.528 232C119.6 232 118.875 231.861 118.352 231.584C117.84 231.296 117.478 230.859 117.264 230.272C117.062 229.675 116.96 228.917 116.96 228C116.96 227.083 117.062 226.331 117.264 225.744C117.478 225.147 117.84 224.709 118.352 224.432C118.875 224.144 119.6 224 120.528 224H123.84V231.36H122.592V224.592L123.232 225.136H120.528C119.91 225.136 119.43 225.211 119.088 225.36C118.758 225.509 118.528 225.792 118.4 226.208C118.272 226.613 118.208 227.211 118.208 228C118.208 228.789 118.272 229.392 118.4 229.808C118.528 230.213 118.758 230.491 119.088 230.64C119.43 230.789 119.91 230.864 120.528 230.864H125.568V232H120.528ZM125.568 232V230.864C125.707 230.864 125.792 230.917 125.824 231.024C125.867 231.12 125.888 231.253 125.888 231.424C125.888 231.595 125.867 231.733 125.824 231.84C125.792 231.947 125.707 232 125.568 232ZM134.642 232V230.864H136.37V232H134.642ZM125.57 232V230.864H134.322L133.394 231.52V228.08C133.394 227.333 133.309 226.747 133.138 226.32C132.968 225.893 132.674 225.589 132.258 225.408C131.853 225.227 131.298 225.136 130.594 225.136C130.146 225.136 129.698 225.168 129.25 225.232C128.813 225.296 128.472 225.381 128.226 225.488L128.978 224.72C128.914 224.976 128.85 225.301 128.786 225.696C128.722 226.08 128.669 226.496 128.626 226.944C128.584 227.392 128.562 227.84 128.562 228.288C128.562 228.747 128.584 229.195 128.626 229.632C128.669 230.069 128.717 230.448 128.77 230.768C128.824 231.088 128.866 231.312 128.898 231.44L127.714 231.776C127.672 231.637 127.618 231.397 127.554 231.056C127.501 230.715 127.448 230.304 127.394 229.824C127.352 229.344 127.33 228.832 127.33 228.288C127.33 227.765 127.352 227.259 127.394 226.768C127.448 226.267 127.506 225.813 127.57 225.408C127.645 225.003 127.714 224.677 127.778 224.432C128.013 224.336 128.386 224.24 128.898 224.144C129.41 224.048 129.976 224 130.594 224C131.49 224 132.237 224.133 132.834 224.4C133.442 224.667 133.896 225.099 134.194 225.696C134.493 226.283 134.642 227.077 134.642 228.08V232H125.57ZM125.57 232C125.432 232 125.346 231.947 125.314 231.84C125.272 231.733 125.25 231.595 125.25 231.424C125.25 231.253 125.272 231.12 125.314 231.024C125.346 230.917 125.432 230.864 125.57 230.864V232ZM136.37 232V230.864C136.509 230.864 136.594 230.917 136.626 231.024C136.669 231.12 136.69 231.253 136.69 231.424C136.69 231.595 136.669 231.733 136.626 231.84C136.594 231.947 136.509 232 136.37 232ZM136.367 232V230.864H138.671L138.095 231.328V224H139.343V232H136.367ZM136.367 232C136.229 232 136.143 231.947 136.111 231.84C136.069 231.733 136.047 231.595 136.047 231.424C136.047 231.253 136.069 231.12 136.111 231.024C136.143 230.917 136.229 230.864 136.367 230.864V232ZM137.967 222.56C137.797 222.347 137.663 222.139 137.567 221.936C137.482 221.733 137.439 221.52 137.439 221.296C137.439 220.987 137.514 220.709 137.663 220.464C137.823 220.219 138.031 220.027 138.287 219.888C138.543 219.749 138.821 219.68 139.119 219.68C139.29 219.68 139.461 219.707 139.631 219.76C139.802 219.803 139.951 219.867 140.079 219.952L139.663 220.672C139.578 220.619 139.493 220.587 139.407 220.576C139.333 220.555 139.253 220.544 139.167 220.544C138.922 220.544 138.725 220.613 138.575 220.752C138.437 220.891 138.367 221.072 138.367 221.296C138.367 221.435 138.394 221.568 138.447 221.696C138.511 221.824 138.602 221.963 138.719 222.112L137.967 222.56ZM137.135 222.56V221.712H140.287V222.56H137.135ZM143.401 232V230.864H145.353V232H143.401ZM142.169 232V220.528H143.401V232H142.169ZM145.353 232V230.864C145.491 230.864 145.577 230.917 145.609 231.024C145.651 231.12 145.673 231.253 145.673 231.424C145.673 231.595 145.651 231.733 145.609 231.84C145.577 231.947 145.491 232 145.353 232ZM145.352 232V230.864H153.432L152.6 231.584V224.592L153.256 225.136H150.536C149.917 225.136 149.437 225.211 149.096 225.36C148.765 225.509 148.536 225.792 148.408 226.208C148.28 226.613 148.216 227.211 148.216 228C148.216 228.789 148.28 229.392 148.408 229.808C148.536 230.213 148.765 230.491 149.096 230.64C149.437 230.789 149.917 230.864 150.536 230.864V231.68C149.608 231.68 148.882 231.568 148.36 231.344C147.848 231.109 147.485 230.725 147.272 230.192C147.069 229.648 146.968 228.917 146.968 228C146.968 227.083 147.069 226.331 147.272 225.744C147.485 225.147 147.848 224.709 148.36 224.432C148.882 224.144 149.608 224 150.536 224H153.848V232H145.352ZM145.352 232C145.213 232 145.128 231.947 145.096 231.84C145.053 231.733 145.032 231.595 145.032 231.424C145.032 231.253 145.053 231.12 145.096 231.024C145.128 230.917 145.213 230.864 145.352 230.864V232ZM149.064 222.56V221.12H150.312V222.56H149.064ZM151.256 222.56V221.12H152.504V222.56H151.256ZM172.442 232V220.528H173.69V232H172.442ZM170.506 232V230.864H172.442V232H170.506ZM170.506 232C170.367 232 170.277 231.947 170.234 231.84C170.202 231.733 170.186 231.595 170.186 231.424C170.186 231.253 170.202 231.12 170.234 231.024C170.277 230.917 170.367 230.864 170.506 230.864V232ZM163.626 235.968C163.007 235.968 162.431 235.877 161.898 235.696C161.365 235.525 160.895 235.28 160.49 234.96C160.095 234.651 159.786 234.277 159.562 233.84C159.338 233.403 159.226 232.923 159.226 232.4C159.226 232.187 159.242 231.904 159.274 231.552C159.317 231.2 159.365 230.805 159.418 230.368C159.482 229.92 159.551 229.467 159.626 229.008L160.858 229.184C160.741 229.899 160.645 230.549 160.57 231.136C160.506 231.723 160.474 232.139 160.474 232.384C160.474 232.864 160.607 233.285 160.874 233.648C161.141 234.021 161.509 234.309 161.978 234.512C162.458 234.725 163.007 234.832 163.626 234.832H168.154C168.965 234.832 169.578 234.608 169.994 234.16C170.421 233.712 170.634 233.056 170.634 232.192V231.664H171.866V232.208C171.866 232.944 171.722 233.595 171.434 234.16C171.146 234.725 170.725 235.168 170.17 235.488C169.626 235.808 168.954 235.968 168.154 235.968H163.626ZM169.706 232C169.343 232 168.975 231.963 168.602 231.888C168.239 231.813 167.877 231.659 167.514 231.424L168.218 230.48C168.367 230.576 168.511 230.656 168.65 230.72C168.789 230.773 168.943 230.811 169.114 230.832C169.285 230.853 169.482 230.864 169.706 230.864H172.73V232H169.706ZM172.73 232V230.864C172.869 230.864 172.954 230.917 172.986 231.024C173.029 231.12 173.05 231.253 173.05 231.424C173.05 231.595 173.029 231.733 172.986 231.84C172.954 231.947 172.869 232 172.73 232ZM163.834 238.88V237.44H165.082V238.88H163.834ZM166.026 238.88V237.44H167.274V238.88H166.026ZM176.434 232V220.528H177.666V232H176.434ZM182.855 235.536C182.716 235.536 182.572 235.525 182.423 235.504C182.263 235.493 182.108 235.483 181.959 235.472L182.103 234.336C182.252 234.347 182.391 234.357 182.519 234.368C182.647 234.389 182.759 234.4 182.855 234.4C183.356 234.4 183.762 234.208 184.071 233.824C184.38 233.451 184.535 232.928 184.535 232.256V224H185.783V232.256C185.783 232.907 185.655 233.477 185.399 233.968C185.154 234.469 184.812 234.853 184.375 235.12C183.938 235.397 183.431 235.536 182.855 235.536ZM189.682 232V230.864H191.634V232H189.682ZM188.45 232V220.528H189.682V232H188.45ZM191.634 232V230.864C191.773 230.864 191.858 230.917 191.89 231.024C191.933 231.12 191.954 231.253 191.954 231.424C191.954 231.595 191.933 231.733 191.89 231.84C191.858 231.947 191.773 232 191.634 232ZM203.665 232V230.864H205.393V232H203.665ZM200.049 232C199.686 232 199.329 231.931 198.977 231.792C198.635 231.653 198.305 231.435 197.985 231.136L198.801 230.288C199.046 230.491 199.265 230.64 199.457 230.736C199.649 230.821 199.846 230.864 200.049 230.864H202.897L202.417 231.376V227.552C202.417 227.36 202.395 227.088 202.353 226.736C202.321 226.384 202.267 225.989 202.193 225.552C202.129 225.104 202.049 224.656 201.953 224.208L203.169 224C203.243 224.373 203.318 224.789 203.393 225.248C203.467 225.707 203.531 226.144 203.585 226.56C203.638 226.965 203.665 227.296 203.665 227.552V232H200.049ZM191.633 232V230.864H193.969L193.649 231.184V225.6H194.881V232H191.633ZM194.881 232V230.864H196.689C197.051 230.864 197.323 230.811 197.505 230.704C197.697 230.597 197.83 230.384 197.905 230.064C197.979 229.744 198.017 229.275 198.017 228.656V224.8H199.265V228.656C199.265 229.488 199.174 230.149 198.993 230.64C198.822 231.131 198.55 231.483 198.177 231.696C197.803 231.899 197.307 232 196.689 232H194.881ZM191.633 232C191.494 232 191.409 231.947 191.377 231.84C191.334 231.733 191.313 231.595 191.313 231.424C191.313 231.253 191.334 231.12 191.377 231.024C191.409 230.917 191.494 230.864 191.633 230.864V232ZM205.393 232V230.864C205.531 230.864 205.617 230.917 205.649 231.024C205.691 231.12 205.713 231.253 205.713 231.424C205.713 231.595 205.691 231.733 205.649 231.84C205.617 231.947 205.531 232 205.393 232ZM214.47 232V230.864H216.198V232H214.47ZM205.398 232V230.864H214.15L213.222 231.52V228.08C213.222 227.333 213.137 226.747 212.966 226.32C212.796 225.893 212.502 225.589 212.086 225.408C211.681 225.227 211.126 225.136 210.422 225.136C209.974 225.136 209.526 225.168 209.078 225.232C208.641 225.296 208.3 225.381 208.054 225.488L208.806 224.72C208.742 224.976 208.678 225.301 208.614 225.696C208.55 226.08 208.497 226.496 208.454 226.944C208.412 227.392 208.39 227.84 208.39 228.288C208.39 228.747 208.412 229.195 208.454 229.632C208.497 230.069 208.545 230.448 208.598 230.768C208.652 231.088 208.694 231.312 208.726 231.44L207.542 231.776C207.5 231.637 207.446 231.397 207.382 231.056C207.329 230.715 207.276 230.304 207.222 229.824C207.18 229.344 207.158 228.832 207.158 228.288C207.158 227.765 207.18 227.259 207.222 226.768C207.276 226.267 207.334 225.813 207.398 225.408C207.473 225.003 207.542 224.677 207.606 224.432C207.841 224.336 208.214 224.24 208.726 224.144C209.238 224.048 209.804 224 210.422 224C211.318 224 212.065 224.133 212.662 224.4C213.27 224.667 213.724 225.099 214.022 225.696C214.321 226.283 214.47 227.077 214.47 228.08V232H205.398ZM205.398 232C205.26 232 205.174 231.947 205.142 231.84C205.1 231.733 205.078 231.595 205.078 231.424C205.078 231.253 205.1 231.12 205.142 231.024C205.174 230.917 205.26 230.864 205.398 230.864V232ZM216.198 232V230.864C216.337 230.864 216.422 230.917 216.454 231.024C216.497 231.12 216.518 231.253 216.518 231.424C216.518 231.595 216.497 231.733 216.454 231.84C216.422 231.947 216.337 232 216.198 232ZM218.131 232V220.528H219.379V232H218.131ZM216.195 232V230.864H218.131V232H216.195ZM216.195 232C216.057 232 215.971 231.947 215.939 231.84C215.897 231.733 215.875 231.595 215.875 231.424C215.875 231.253 215.897 231.12 215.939 231.024C215.971 230.917 216.057 230.864 216.195 230.864V232ZM222.138 232V220.528H223.37V232H222.138ZM243.566 232V230.864H245.294V232H243.566ZM234.03 232C232.441 232 231.251 231.723 230.462 231.168C229.673 230.613 229.278 229.755 229.278 228.592C229.278 228.336 229.294 228.059 229.326 227.76C229.369 227.461 229.417 227.173 229.47 226.896C229.523 226.608 229.571 226.363 229.614 226.16C229.657 225.947 229.683 225.803 229.694 225.728L230.91 225.952C230.878 226.123 230.83 226.357 230.766 226.656C230.713 226.955 230.659 227.275 230.606 227.616C230.553 227.957 230.526 228.283 230.526 228.592C230.526 229.125 230.638 229.563 230.862 229.904C231.086 230.235 231.454 230.48 231.966 230.64C232.478 230.789 233.166 230.864 234.03 230.864H243.15L242.318 231.584V224.592L242.974 225.136H240.254C239.635 225.136 239.155 225.211 238.814 225.36C238.483 225.509 238.254 225.792 238.126 226.208C237.998 226.613 237.934 227.211 237.934 228C237.934 228.789 237.998 229.392 238.126 229.808C238.254 230.213 238.483 230.491 238.814 230.64C239.155 230.789 239.635 230.864 240.254 230.864V231.68C239.326 231.68 238.601 231.568 238.078 231.344C237.566 231.109 237.203 230.725 236.99 230.192C236.787 229.648 236.686 228.917 236.686 228C236.686 227.083 236.787 226.331 236.99 225.744C237.203 225.147 237.566 224.709 238.078 224.432C238.601 224.144 239.326 224 240.254 224H243.566V232H234.03ZM245.294 232V230.864C245.433 230.864 245.518 230.917 245.55 231.024C245.593 231.12 245.614 231.253 245.614 231.424C245.614 231.595 245.593 231.733 245.55 231.84C245.518 231.947 245.433 232 245.294 232ZM239.87 222.56V221.12H241.118V222.56H239.87ZM245.289 232V230.864H257.113L255.961 231.904V228.144C255.961 227.472 255.865 226.917 255.673 226.48C255.492 226.032 255.214 225.696 254.841 225.472C254.478 225.248 254.02 225.136 253.465 225.136C252.996 225.136 252.558 225.216 252.153 225.376C251.758 225.525 251.39 225.728 251.049 225.984C250.708 226.229 250.388 226.507 250.089 226.816C249.801 227.115 249.534 227.419 249.289 227.728C249.044 228.037 248.82 228.32 248.617 228.576L248.217 227.44C248.484 227.109 248.75 226.779 249.017 226.448C249.294 226.117 249.582 225.808 249.881 225.52C250.18 225.221 250.505 224.96 250.857 224.736C251.22 224.512 251.614 224.336 252.041 224.208C252.468 224.069 252.948 224 253.481 224C254.238 224 254.857 224.128 255.337 224.384C255.828 224.64 256.206 224.981 256.473 225.408C256.75 225.824 256.942 226.272 257.049 226.752C257.156 227.232 257.209 227.696 257.209 228.144V232H245.289ZM247.561 230.864V224H248.809V230.864H247.561ZM245.289 232C245.15 232 245.065 231.947 245.033 231.84C244.99 231.733 244.969 231.595 244.969 231.424C244.969 231.253 244.99 231.12 245.033 231.024C245.065 230.917 245.15 230.864 245.289 230.864V232ZM251.929 222.576V221.136H253.177V222.576H251.929ZM259.95 232V220.528H261.182V232H259.95Z" fill="#494949"/>
<defs>
<clipPath id="clip0_1234_3999">
<rect width="150" height="150" fill="white" transform="translate(84)"/>
</clipPath>
</defs>
</svg>
