<svg width="163" height="236" viewBox="0 0 163 236" fill="none" xmlns="http://www.w3.org/2000/svg">
<path d="M38.7821 32.4961L37.1096 31.3039C35.597 30.7344 35.1182 35.5808 30.5487 40.192C21.9307 42.5041 11.7192 48.8316 3.70469 57.6562L11.905 59.2717C20.4778 51.6826 25.0935 48.4944 33.0149 44.5519C33.0149 44.5519 33.6412 43.9232 35.3656 44.4274C37.0901 44.9316 40.7861 34.5084 40.7861 34.5084L38.7821 32.4961Z" fill="#FFBDA7"/>
<path d="M28.0796 92.2021C16.5555 85.4026 10.1576 79.7299 1.51877 62.263C0.80195 60.8133 1.04107 59.0631 2.13767 57.8749C5.12014 54.6426 7.84164 52.0629 10.6061 49.8722C14.7332 48.6522 18.943 52.1002 17.2587 56.3591C16.0712 57.3488 14.7997 58.4312 13.4197 59.6225C18.067 73.4893 23.7563 78.5676 32.0122 80.0529C32.0122 80.0529 41.9799 84.7722 39.5414 90.7778C37.1028 96.7834 27.8542 96.6542 28.0796 92.2021Z" fill="#F2CB30"/>
<path d="M123.367 86.2631C144.836 81.5961 158.453 60.394 153.782 38.9066C149.111 17.4192 127.92 3.78329 106.452 8.45024C84.9831 13.1172 71.3657 34.3198 76.0367 55.8072C77.4311 62.2218 80.2979 67.9368 84.2047 72.674C85.6938 74.4798 86.4551 76.82 86.017 79.1196L83.3328 93.2098C83.0346 94.7751 84.7939 95.9068 86.0928 94.9856L97.6916 86.7572C99.6171 85.3916 102.085 85.1209 104.36 85.7498C110.368 87.4105 116.855 87.6787 123.367 86.2631Z" fill="#FF7C3C"/>
<path d="M53.6967 223.504L52.6694 214.304L58.3658 213.515L59.3368 223.935L53.6967 223.504Z" fill="#FCE9DD"/>
<path d="M38.0064 222.927L37.9481 213.671L32.1992 213.555L32.4562 224.017L38.0064 222.927Z" fill="#FCE9DD"/>
<path d="M52.7517 229.793C51.7545 227.159 52.0264 224.707 52.4798 221.801C52.7216 221.619 53.6946 221.728 54.5651 222.164C55.6533 222.709 56.4695 221.619 57.1042 220.984C57.7389 220.348 61.638 220.075 61.8193 220.984C62.0005 221.892 62.1818 225.797 63.3605 225.888C64.5393 225.979 69.0731 230.974 69.6171 231.882C72.4092 236.544 63.8596 236.254 61.8193 235.697C60.2234 235.261 57.0437 233.093 56.4695 231.882C55.7439 231.761 53.985 230.811 52.7517 229.793Z" fill="black"/>
<path d="M55.4654 135.606C44.7666 137.929 38.8183 137.859 28.3149 134.851L31.7087 216.877H39.2505L42.0159 154.225L52.0717 218.01H59.7392L55.4654 135.606Z" fill="black"/>
<path d="M39.0737 228.787C40.0709 226.153 39.799 223.701 39.3456 220.794C39.1038 220.612 38.1305 220.722 37.2599 221.157C36.1721 221.703 35.3559 220.612 34.7212 219.977C34.0865 219.341 30.1874 219.069 30.0062 219.977C29.8249 220.885 29.6433 224.79 28.4646 224.881C27.2858 224.972 22.7524 229.967 22.2083 230.876C19.4159 235.537 27.9658 235.248 30.0062 234.69C31.602 234.254 34.7817 232.086 35.3559 230.876C36.0812 230.755 37.8404 229.804 39.0737 228.787Z" fill="black"/>
<path d="M28.3148 92.8314C29.1105 90.2133 32.4629 80.7545 32.4629 80.7545L42.5187 80.1251C42.5187 80.1251 44.0269 80.2507 47.9237 80.1251C51.8201 79.9994 53.8314 79.2446 53.8314 79.2446C70.6746 82.6417 72.5602 85.661 70.549 107.551H62.7557C62.7557 100.632 62.7557 101.009 61.1219 96.8575C54.3202 117.996 56.6972 122.974 56.722 136.154C56.7224 136.273 56.6384 136.379 56.5223 136.403C46.5485 138.517 38.6643 139.756 28.4404 136.235C28.1487 136.135 27.812 136.045 27.5607 135.732C27.3093 135.42 27.2709 135.151 27.1965 134.851C25.1734 126.676 26.9058 113.413 28.3148 92.8314Z" fill="#F2CB30"/>
<path d="M60.8211 63.9639C60.737 68.6505 53.8434 72.8271 50.407 74.33C46.205 74.963 43.8227 74.4425 39.5303 72.1326C34.085 69.2604 31.7143 67.0326 30.1231 60.6731C27.7904 60.8652 26.6083 60.0381 24.7717 56.5243C23.3799 51.7223 23.8794 50.2657 27.9845 50.7704L31.2291 56.8024L29.6779 44.8435L40.9217 29.7429L63.8837 36.3151L60.9451 50.2601C60.9388 52.8752 60.9051 59.2774 60.8211 63.9639Z" fill="#FFBDA7"/>
<path d="M39.76 25.4738C30.7384 26.5867 26.9382 32.8579 26.5341 37.6275C26.5341 37.6275 25.647 50.6249 27.7429 50.7013C28.6062 51.341 31.2293 56.8025 31.2293 56.8025L32.4378 57.1484C32.3868 53.5136 34.2638 46.7509 37.6109 48.1189C40.9583 49.4865 39.0929 40.1891 40.6299 38.9279C42.1668 37.6665 58.4578 37.7618 61.2581 40.9286C62.5689 42.4106 60.552 48.5432 61.0657 52.1265C66.1379 44.2879 69.4251 22.3559 64.2093 27.7982C55.1097 29.904 54.4115 23.6659 39.76 25.4738Z" fill="black"/>
<path d="M51.8556 72.0803L53.844 79.2445C50.1778 81.2359 47.6344 81.7928 42.5661 80.1312L40.7593 72.1061L51.8556 72.0803Z" fill="#FFBDA7"/>
<path d="M45.4995 114.9L66.4533 94.6474C66.8234 94.2899 67.3178 94.0901 67.8324 94.0901H67.9098H89.527C90.0999 94.0901 90.6575 94.2756 91.1156 94.6196L91.822 95.1504C92.1402 95.3892 92.1772 95.8523 91.9011 96.1384L71.9584 116.807C71.4597 117.324 70.7724 117.616 70.0544 117.616H44.7818C44.5344 117.616 44.3595 117.373 44.4379 117.139L44.4885 116.987L44.8281 115.967C44.9628 115.562 45.1933 115.197 45.4995 114.9Z" fill="#434343"/>
<path d="M77.211 114.974C77.211 114.974 75.8282 111.703 76.5826 109.061C77.3367 106.419 80.7556 103.676 83.3701 103.777C85.0645 103.843 85.7064 105.267 85.9942 106.969C86.2994 108.776 85.5926 110.597 84.3544 111.947C82.6381 113.818 80.6683 115.839 80.102 115.98C79.2977 116.182 77.8394 115.393 77.211 114.974Z" fill="#FFBDA7"/>
<path d="M114.591 50.1807C111.379 50.1807 108.774 52.7931 108.774 56.0131C108.774 59.233 111.375 61.8454 114.591 61.8454C117.807 61.8454 120.408 59.233 120.408 56.0131C120.408 52.7931 117.802 50.1807 114.591 50.1807ZM114.591 40.6407C108.733 40.6407 103.641 43.9351 101.065 48.7754C100.541 49.755 100.809 50.9785 101.683 51.6647L101.691 51.6729C102.792 52.5368 104.425 52.2185 105.076 50.9744C106.878 47.5395 110.472 45.2165 114.591 45.2165C118.709 45.2165 122.313 47.5436 124.106 50.9702C124.757 52.2185 126.394 52.5409 127.499 51.6688L127.507 51.6605C128.377 50.9744 128.641 49.755 128.117 48.7754C125.541 43.9351 120.449 40.6366 114.587 40.6366L114.591 40.6407ZM135.365 42.7653C131.007 35.8914 123.318 31.3074 114.591 31.3074C105.863 31.3074 98.2159 35.8748 93.8254 42.7447C93.1781 43.7573 93.3637 45.0883 94.3036 45.8323L94.3201 45.8447C95.3879 46.688 96.9256 46.4028 97.6553 45.2495C101.209 39.6198 107.471 35.8831 114.591 35.8831C121.711 35.8831 127.989 39.6239 131.547 45.2537C132.273 46.4028 133.81 46.6921 134.878 45.8489C135.818 45.109 136.004 43.778 135.361 42.7695L135.365 42.7653Z" fill="white"/>
<line x1="128.732" y1="29.5431" x2="104.634" y2="67.405" stroke="#FE3D6A" stroke-width="3.7" stroke-linecap="round"/>
</svg>
