<svg width="150" height="150" viewBox="0 0 150 150" fill="none" xmlns="http://www.w3.org/2000/svg">
<path d="M119.725 15.063C120.594 15.063 121.427 14.718 122.041 14.103C122.656 13.489 123.001 12.656 123.001 11.787C123.001 10.918 122.656 10.085 122.041 9.47099C121.427 8.85599 120.594 8.51099 119.725 8.51099C118.856 8.51099 118.023 8.85599 117.409 9.47099C116.794 10.085 116.449 10.918 116.449 11.787C116.449 12.656 116.794 13.489 117.409 14.103C118.023 14.718 118.856 15.063 119.725 15.063Z" fill="#43D477" fill-opacity="0.5"/>
<path d="M71.3259 144.386C87.0499 144.417 102.327 139.102 114.637 129.319C126.946 119.536 135.573 105.854 139.093 90.5291C142.614 75.2051 140.823 59.1291 134.017 44.9551C127.21 30.7801 115.784 19.3321 101.623 12.4981C87.4619 5.66304 71.3899 3.84104 56.0589 7.33104C40.7269 10.8221 27.0279 19.421 17.2209 31.712C7.41293 44.0031 2.06893 59.2691 2.06893 74.993C2.04993 87.163 5.23893 99.1261 11.3109 109.673C17.3839 120.219 26.1299 128.982 36.6649 135.076C47.1989 141.169 59.1559 144.381 71.3259 144.386Z" fill="#EAEEF9"/>
<path d="M136.075 29.5059C137.56 29.5059 138.985 28.9159 140.035 27.8659C141.085 26.8159 141.675 25.3909 141.675 23.9059C141.675 22.4209 141.085 20.9959 140.035 19.9459C138.985 18.8959 137.56 18.3059 136.075 18.3059C134.59 18.3059 133.165 18.8959 132.115 19.9459C131.065 20.9959 130.475 22.4209 130.475 23.9059C130.476 25.3899 131.067 26.8149 132.117 27.8639C133.166 28.9139 134.591 29.5049 136.075 29.5059Z" fill="#EAEEF9"/>
<path d="M9.23418 29.369C10.2481 29.369 11.2221 28.966 11.9391 28.249C12.6561 27.532 13.0591 26.558 13.0591 25.544C13.0591 24.53 12.6561 23.556 11.9391 22.839C11.2221 22.122 10.2481 21.719 9.23418 21.719C8.22018 21.719 7.24618 22.122 6.52918 22.839C5.81218 23.556 5.40918 24.53 5.40918 25.544C5.40818 26.216 5.58518 26.875 5.92118 27.457C6.25618 28.039 6.73918 28.522 7.32118 28.857C7.90318 29.193 8.56218 29.37 9.23418 29.369Z" fill="#EAEEF9"/>
<path d="M26.1249 150C28.0069 150 29.8139 149.251 31.1449 147.92C32.4759 146.589 33.2249 144.782 33.2249 142.9C33.2249 141.018 32.4759 139.211 31.1449 137.88C29.8139 136.549 28.0069 135.8 26.1249 135.8C24.2429 135.8 22.4359 136.549 21.1049 137.88C19.7739 139.211 19.0249 141.018 19.0249 142.9C19.0249 144.782 19.7739 146.589 21.1049 147.92C22.4359 149.251 24.2429 150 26.1249 150Z" fill="#EAEEF9" fill-opacity="0.5"/>
<path d="M145.031 105.906H124.023C123.558 105.909 123.103 105.767 122.721 105.5C122.34 105.234 122.05 104.855 121.893 104.417C119.834 98.3111 115.293 96.8171 104.293 92.4921C104.097 92.4141 103.939 92.2631 103.852 92.0721C103.764 91.8801 103.754 91.6621 103.823 91.4631C103.892 91.2641 104.035 91.0991 104.222 91.0031C107.422 89.4321 106.849 88.0931 106.849 78.7231C106.708 78.5721 106.588 78.4021 106.494 78.2181C105.766 77.1341 105.304 75.8941 105.146 74.5981L104.436 74.2431C102.306 74.7431 102.449 72.4671 101.88 68.0681C101.668 66.2241 101.951 65.8681 102.732 65.5821L103.442 64.6671C99.2544 55.2961 101.383 49.4091 105.501 47.2781C104.833 46.0071 104.354 44.6451 104.08 43.2351C104.08 43.2351 112.811 44.7241 115.792 44.0811C119.625 43.3031 125.446 44.2181 127.646 49.2581C131.266 50.6781 132.685 53.0281 133.04 55.4321C133.54 59.4071 131.34 63.7381 130.91 65.4451C130.981 65.5131 130.981 65.5811 131.052 65.6631C131.62 65.9361 131.833 66.4421 131.62 67.9991C131.12 72.1931 131.194 74.8151 129.064 74.1741L127.147 77.5071C127.084 77.7681 127.036 78.0331 127.005 78.3001C126.934 78.9281 126.934 80.1441 126.934 87.1001C126.918 87.9021 127.14 88.6921 127.573 89.3681C128.021 90.1471 128.723 90.7501 129.561 91.0761H129.632C134.6 93.1381 138.15 94.4761 140.776 95.5431C146.597 97.8921 147.591 98.5211 148.088 102.427C148.158 103.007 148.063 103.596 147.814 104.124C147.565 104.653 147.171 105.101 146.679 105.416C146.187 105.731 145.615 105.901 145.031 105.906Z" fill="white"/>
<path d="M130.764 65.3771C130.853 64.2421 130.607 63.1061 130.055 62.1111C129.972 61.9501 129.901 61.7831 129.842 61.6111C128.208 58.2781 124.442 56.8571 120.897 56.7201C111.812 56.2201 110.959 57.9901 108.121 55.3681C108.972 56.7201 109.114 58.7681 107.695 61.4061C106.773 63.2501 104.928 64.0291 103.295 64.6061C99.178 55.2361 101.236 49.3341 105.354 47.2061C104.684 45.9361 104.206 44.5731 103.935 43.1631C103.935 43.1631 112.667 44.6521 115.647 44.0231C119.48 43.2311 125.301 44.1601 127.501 49.2001C131.121 50.6211 132.54 52.9561 132.895 55.3751C133.461 59.3401 131.19 63.6701 130.764 65.3771Z" fill="#F5F6F7"/>
<path d="M142.832 105.907C145.032 102.492 144.18 99.3071 140.632 95.5391C146.453 97.8881 147.446 98.5171 147.943 102.423C148.025 102.993 147.94 103.574 147.7 104.097C147.46 104.62 147.073 105.062 146.588 105.371C146.102 105.68 145.537 105.842 144.962 105.838H142.832V105.907Z" fill="#9AA2B2" fill-opacity="0.08"/>
<path d="M127.428 89.4321V91.0721H106.346V88.9411C106.846 87.8071 106.701 87.8751 106.701 78.7241C106.559 78.5731 106.44 78.4021 106.346 78.2181V77.7261C106.795 78.5021 107.37 79.2001 108.046 79.7891L114.646 84.3891C115.385 85.0201 116.322 85.3731 117.294 85.3881C118.265 85.4031 119.212 85.0781 119.971 84.4711L126.145 78.9251C126.358 78.7251 126.571 78.5701 126.784 78.3651C126.713 78.9931 126.713 80.2091 126.713 87.1651C126.777 87.9651 127.021 88.7401 127.428 89.4321Z" fill="white"/>
<path d="M36.429 90.0749C33.022 90.0069 32.667 89.3649 32.667 89.3649V83.6819C36.287 80.7039 39.338 77.2209 40.191 72.6819C41.265 72.4519 42.216 71.8319 42.859 70.9409C43.501 70.0499 43.79 68.9519 43.669 67.8599C43.598 66.8599 42.96 65.9339 42.889 64.8689V63.3799C42.901 63.0449 42.877 62.7099 42.818 62.3799C42.818 62.0249 42.747 61.6699 42.747 61.3279C42.531 59.3799 41.928 57.4939 40.973 55.7819C39.546 53.1049 37.418 50.8659 34.818 49.3049C32.218 47.7429 29.241 46.9179 26.208 46.9159C24.942 46.9109 23.679 47.0539 22.446 47.3399C20.196 47.8349 18.085 48.8289 16.27 50.2489C15.916 50.5359 15.561 50.8089 15.206 51.0959C15.125 51.1859 15.029 51.2599 14.922 51.3149C12.898 53.1749 11.383 55.5219 10.522 58.1319C9.68696 60.7169 9.44496 63.4579 9.81296 66.1499V66.5729C9.88396 67.0649 10.026 66.9959 9.67096 67.4199C9.56196 67.5799 9.46696 67.7489 9.38696 67.9249C9.10396 68.3879 8.93096 68.9089 8.88096 69.4489C8.83196 69.9899 8.90796 70.5339 9.10296 71.0399C9.95496 73.4579 11.659 73.1029 13.22 74.4549C13.141 74.5279 13.042 74.5749 12.936 74.5919H12.865L11.091 75.1659C0.443964 78.4989 -0.763034 89.7819 10.168 91.8449C9.44396 91.9489 8.75896 92.2409 8.18196 92.6919C4.79296 95.3829 2.55696 99.2699 1.93496 103.552C1.87696 103.945 1.93496 104.346 2.10096 104.707C2.26696 105.068 2.53396 105.373 2.86996 105.585C3.20596 105.797 3.59696 105.907 3.99396 105.901H20.887C21.075 105.885 21.255 105.817 21.406 105.703C21.557 105.59 21.672 105.436 21.739 105.259C23.3 99.5769 26.849 97.5959 34.231 94.6179L38.49 92.9099C39.199 92.6229 39.98 92.3369 40.833 91.9809C41.004 91.9139 41.149 91.7939 41.246 91.6379C41.343 91.4819 41.386 91.2979 41.37 91.1149C41.354 90.9319 41.279 90.7589 41.157 90.6229C41.035 90.4859 40.871 90.3919 40.691 90.3559C39.851 90.1639 38.996 90.0449 38.135 90.0009C37.568 90.0549 36.999 90.0789 36.429 90.0749ZM14.779 82.8349C14.779 82.1249 15.279 81.3459 16.34 80.4989C16.826 81.1379 17.372 81.7279 17.972 82.2609C18.472 82.6979 18.966 83.1219 19.535 83.5449C19.905 83.7819 20.261 84.0429 20.599 84.3239C20.67 84.3919 20.741 84.4739 20.812 84.4739C20.883 84.5429 21.025 84.6109 21.096 84.6739V88.1579C21.025 88.0899 20.954 88.0079 20.883 88.0079C20.528 87.7349 20.244 87.4479 19.96 87.2299C19.482 86.8949 18.985 86.5889 18.47 86.3149C18.295 86.2089 18.128 86.0899 17.97 85.9589C16.34 84.8979 14.85 83.9029 14.779 82.8349Z" fill="white"/>
<path d="M36.4287 90.0741C36.1267 91.2191 35.7227 92.3341 35.2227 93.4071L16.9087 90.4971L17.9727 85.9621C18.1237 86.0791 18.2927 86.1711 18.4727 86.2351C18.9957 86.5271 19.4937 86.8621 19.9627 87.2351C20.3027 87.4541 20.6127 87.7161 20.8857 88.0141C20.9567 88.0961 21.0277 88.1641 21.0277 88.1641V84.6811C20.9217 84.6321 20.8257 84.5641 20.7437 84.4811C23.7247 85.9701 27.4167 86.7491 32.7437 83.6201C32.6727 83.6201 32.6727 83.6891 32.6017 83.6891V89.3711C32.6017 89.3711 33.0217 90.0061 36.4287 90.0741Z" fill="white"/>
<path d="M42.7469 62.3861C39.6749 63.4651 36.4089 63.8791 33.1649 63.6011C28.0139 63.1831 23.1329 61.1131 19.2519 57.7011C17.9749 61.4011 14.7799 64.1621 11.1599 65.8011C10.6749 66.0171 10.1769 66.2041 9.6699 66.3611V66.2241C9.3019 63.5321 9.5439 60.7911 10.3789 58.2051C11.2439 55.5971 12.7579 53.2511 14.7789 51.3891C14.8629 51.3031 14.9589 51.2301 15.0629 51.1701C15.4179 50.8971 15.7729 50.6101 16.1269 50.3231C17.9849 48.9751 20.0799 47.9881 22.3029 47.4131C25.8889 46.5921 29.6469 46.9741 32.9949 48.4991C36.3429 50.0241 39.0969 52.6101 40.8299 55.8551C41.7419 57.5611 42.3429 59.4161 42.6039 61.3331C42.7219 61.6711 42.7709 62.0291 42.7469 62.3861Z" fill="#F5F6F7" fill-opacity="0.5"/>
<path d="M16.5542 80.7041C16.9662 81.2341 17.4172 81.7311 17.9042 82.1931C17.3802 81.7691 16.9252 81.2671 16.5542 80.7041Z" fill="#0F70FF"/>
<path d="M23.2258 98.6671C21.8758 100.361 19.3258 100.443 17.1918 100.361C19.4638 98.1611 18.1848 91.0041 10.2358 91.8511H10.1648C-0.767224 89.7891 0.439775 78.5051 11.0158 75.1721L12.7898 74.5991C12.9158 74.6571 13.0178 74.7591 13.0738 74.8861C13.8448 76.8851 14.9228 78.7511 16.2678 80.4181C11.9388 84.0381 17.9678 85.1721 20.8818 87.9451C23.4388 89.4331 25.5688 95.6891 23.2258 98.6671Z" fill="#FAFAFB"/>
<path d="M16.4823 80.6989C16.4113 80.6309 16.3403 80.5619 16.3403 80.4939C16.3783 80.5679 16.4263 80.6369 16.4823 80.6989Z" fill="#0F70FF"/>
<path d="M117.841 109.171C117.951 110.01 117.819 110.863 117.463 111.63C117.106 112.398 116.539 113.048 115.827 113.505C115.115 113.962 114.287 114.207 113.441 114.212H30.2527C29.4067 114.207 28.5797 113.962 27.8677 113.504C27.1557 113.047 26.5877 112.397 26.2317 111.63C25.8747 110.863 25.7437 110.01 25.8527 109.171C26.6337 103.707 27.8397 102.571 35.9327 99.3081L37.9197 98.5161C41.6817 97.0271 46.5797 95.1831 53.1807 92.4241C54.6757 91.8051 55.8727 90.6281 56.5177 89.1451C56.8897 88.3201 57.0827 87.4261 57.0847 86.5221V74.1051C56.8757 73.8611 56.6867 73.6001 56.5177 73.3271C55.4227 71.7171 54.7397 69.8631 54.5297 67.9271L53.4637 67.4211C50.2697 68.2141 50.5537 64.7991 49.7017 58.2691C49.3467 55.5781 49.7727 55.0041 50.9787 54.5811L51.9737 53.2281C45.8737 39.3901 48.9217 30.7281 54.9547 27.6701C53.1097 23.2701 52.9677 21.7151 52.9677 21.7151C52.9677 21.7151 65.8167 23.8461 70.2177 22.9851C75.8247 21.8511 84.4847 23.2041 87.6797 30.6621C93.0027 32.7931 95.0617 36.1261 95.5577 39.8141C96.3387 45.6341 93.0037 52.0261 92.3637 54.5141C92.4347 54.6501 92.4347 54.7141 92.5057 54.7871C93.3577 55.2241 93.6407 55.9351 93.3577 58.2701C92.5767 64.4451 92.7897 68.2821 89.5957 67.4221L86.7557 72.3941C86.6627 72.7901 86.5917 73.1901 86.5427 73.5941C86.4007 74.5231 86.4717 76.3671 86.4717 86.5171C86.4607 87.7021 86.8067 88.8641 87.4657 89.8501C88.1677 90.9491 89.1807 91.8141 90.3757 92.3361C90.4467 92.3361 90.4467 92.3361 90.5177 92.4181C97.8287 95.4641 103.083 97.4451 106.918 98.9481C115.641 102.355 116.993 103.421 117.841 109.171Z" fill="white"/>
<path d="M92.4335 54.518C92.5385 52.847 92.1955 51.177 91.4405 49.682C91.3315 49.451 91.2365 49.213 91.1565 48.971C88.6715 44.013 83.2065 42.018 77.9565 41.731C64.5405 41.02 63.3335 43.575 59.1455 39.751C60.4245 41.731 60.5665 44.791 58.5785 48.616C57.1575 51.316 54.4615 52.523 52.1185 53.301C46.0185 39.463 49.0665 30.801 55.0995 27.757C53.1115 23.277 52.9715 21.72 52.9715 21.72C52.9715 21.72 65.8185 23.851 70.2205 22.99C75.8275 21.856 84.4875 23.209 87.6825 30.667C93.0055 32.798 95.0645 36.131 95.5615 39.819C96.4085 45.57 93.0735 51.963 92.4335 54.518Z" fill="#F5F6F7"/>
<path d="M110.322 114.144C113.587 109.172 112.31 104.487 107.057 98.9541C115.645 102.354 117.064 103.421 117.846 109.104C117.955 109.943 117.824 110.796 117.467 111.563C117.111 112.33 116.543 112.98 115.831 113.437C115.119 113.894 114.292 114.139 113.446 114.144H110.322Z" fill="#9AA2B2" fill-opacity="0.07"/>
<path d="M87.5359 89.8559V92.2739H56.5869V89.146C56.9579 88.321 57.1519 87.4269 57.1539 86.5229V74.1049C56.9449 73.8609 56.7559 73.601 56.5869 73.327V72.6169C57.2349 73.7869 58.1019 74.8209 59.1409 75.6629L68.8659 82.4789C69.9599 83.4109 71.3439 83.9349 72.7809 83.9599C74.2179 83.9849 75.6199 83.5089 76.7449 82.6149L85.8299 74.4599C86.1139 74.1729 86.4689 73.8869 86.7529 73.5999C86.6109 74.5279 86.6819 76.3729 86.6819 86.5219C86.6319 87.6929 86.9289 88.8529 87.5359 89.8559Z" fill="white"/>
<path d="M95.9108 127.175C95.4688 129.067 94.8418 130.911 94.0378 132.68C91.9438 136.717 88.6288 139.993 84.5658 142.037C80.2218 144.264 75.2398 144.925 70.4658 143.909C64.8808 142.734 59.9838 139.392 56.8548 134.619C53.7258 129.846 52.6128 124.022 53.7628 118.432C54.9128 112.842 58.2338 107.93 62.9928 104.78C67.7518 101.63 73.5708 100.492 79.1658 101.617C83.2648 102.526 87.0358 104.544 90.0658 107.45C92.6088 109.988 94.4768 113.124 95.4978 116.569C96.5188 120.014 96.6608 123.661 95.9108 127.175Z" fill="white"/>
<path d="M81.0249 126.269L77.5199 122.764L81.0259 119.258C81.3669 118.905 81.5559 118.432 81.5509 117.941C81.5469 117.451 81.3499 116.981 81.0029 116.634C80.6559 116.287 80.1859 116.09 79.6959 116.086C79.2049 116.081 78.7319 116.27 78.3789 116.611L74.8729 120.117L71.3689 116.613C71.1379 116.377 70.8489 116.207 70.5309 116.121C70.2129 116.034 69.8769 116.034 69.5589 116.121C69.2409 116.207 68.9519 116.377 68.7209 116.612C68.4749 116.836 68.2959 117.125 68.2039 117.445C68.1129 117.766 68.1129 118.106 68.2049 118.426C68.2959 118.746 68.4749 119.035 68.7219 119.259L72.2259 122.763L68.7189 126.27C68.3779 126.623 68.1889 127.096 68.1939 127.587C68.1979 128.077 68.3949 128.547 68.7419 128.894C69.0889 129.241 69.5589 129.438 70.0489 129.442C70.5399 129.447 71.0129 129.258 71.3659 128.917L74.8729 125.41L78.3779 128.915C78.7309 129.256 79.2039 129.445 79.6949 129.44C80.1849 129.436 80.6549 129.239 81.0019 128.892C81.3489 128.545 81.5459 128.075 81.5499 127.585C81.5549 127.094 81.3659 126.621 81.0249 126.268V126.269Z" fill="#FF4949"/>
</svg>
