<svg width="150" height="150" viewBox="0 0 150 150" fill="none" xmlns="http://www.w3.org/2000/svg">
<g clip-path="url(#clip0_1234_4658)">
<path d="M75.0005 150.001C91.9945 150.034 108.507 144.29 121.811 133.717C135.116 123.144 144.439 108.356 148.244 91.7931C152.049 75.2301 150.114 57.8551 142.757 42.5361C135.401 27.2161 123.051 14.8421 107.746 7.45605C92.4406 0.0690594 75.0695 -1.89995 58.4995 1.87205C41.9295 5.64405 27.1225 14.9391 16.5235 28.2231C5.92355 41.5071 0.147548 58.0071 0.147548 75.0011C0.127548 88.1541 3.57355 101.084 10.1365 112.483C16.7005 123.881 26.1525 133.352 37.5385 139.938C48.9245 146.524 61.8475 149.995 75.0005 150.001Z" fill="#EAEEF9"/>
<path d="M126.878 150C128.483 150 130.023 149.362 131.158 148.227C132.293 147.092 132.931 145.552 132.931 143.947C132.931 142.342 132.293 140.802 131.158 139.667C130.023 138.532 128.483 137.894 126.878 137.894C125.273 137.894 123.733 138.532 122.598 139.667C121.463 140.802 120.825 142.342 120.825 143.947C120.826 145.551 121.465 147.091 122.599 148.226C123.734 149.36 125.274 149.999 126.878 150Z" fill="#EAEEF9"/>
<path d="M145.719 13.288C146.815 13.288 147.867 12.852 148.642 12.077C149.417 11.302 149.853 10.25 149.853 9.15402C149.853 8.05802 149.417 7.00602 148.642 6.23102C147.867 5.45602 146.815 5.02002 145.719 5.02002C144.623 5.02002 143.571 5.45602 142.796 6.23102C142.021 7.00602 141.585 8.05802 141.585 9.15402C141.584 9.88002 141.775 10.593 142.138 11.222C142.501 11.85 143.023 12.372 143.651 12.735C144.28 13.098 144.993 13.289 145.719 13.288Z" fill="#FF7C3C"/>
<path d="M4.134 25.6921C5.23 25.6921 6.282 25.2561 7.057 24.4811C7.832 23.7061 8.268 22.6541 8.268 21.5581C8.268 20.4621 7.832 19.4101 7.057 18.6351C6.282 17.8601 5.23 17.4241 4.134 17.4241C3.038 17.4241 1.986 17.8601 1.211 18.6351C0.436004 19.4101 3.9066e-06 20.4621 3.9066e-06 21.5581C-0.000996093 22.2841 0.190004 22.9971 0.553004 23.6261C0.916004 24.2541 1.438 24.7761 2.066 25.1391C2.695 25.5021 3.408 25.6931 4.134 25.6921Z" fill="#EAEEF9"/>
<path d="M13.0706 147.654C14.8096 147.654 16.4976 147.063 17.8576 145.979C19.2166 144.895 20.1686 143.381 20.5556 141.685C20.9416 139.99 20.7416 138.213 19.9876 136.646C19.2326 135.079 17.9686 133.815 16.4016 133.06C14.8346 132.306 13.0576 132.106 11.3626 132.492C9.66656 132.879 8.15256 133.831 7.06856 135.19C5.98456 136.55 5.39356 138.238 5.39356 139.977C5.39256 141.325 5.74656 142.65 6.41956 143.817C7.09356 144.985 8.06256 145.954 9.23056 146.628C10.3976 147.301 11.7226 147.655 13.0706 147.654Z" fill="#EAEEF9"/>
<path d="M84.3912 102.196H67.7572C63.9022 102.196 60.6572 105.754 60.6572 109.977V119.086C60.6572 128.418 67.5572 135.976 76.0752 135.976C84.5932 135.976 91.4912 128.417 91.4912 119.086V109.977C91.4912 105.533 88.2462 102.196 84.3912 102.196Z" fill="white"/>
<path fill-rule="evenodd" clip-rule="evenodd" d="M82.9156 14.897C90.9906 16.773 98.1966 21.33 103.353 27.822C108.509 34.314 111.317 42.365 111.316 50.655V55.32C111.316 94.665 140.934 120.414 140.934 120.414H8.05957C8.05957 120.414 37.8796 94.665 37.8796 55.32V50.655C37.8786 42.365 40.6866 34.314 45.8426 27.822C50.9986 21.33 58.2046 16.773 66.2796 14.897V13.347C66.2796 11.142 67.1566 9.02503 68.7156 7.46603C70.2746 5.90703 72.3916 5.03003 74.5966 5.03003C76.8016 5.03003 78.9186 5.90703 80.4776 7.46603C82.0366 9.02503 82.9136 11.142 82.9136 13.347L82.9156 14.897Z" fill="white"/>
<path d="M59.1808 71.339C56.7568 71.333 54.3948 70.565 52.4298 69.145C50.4638 67.726 48.9938 65.724 48.2258 63.425C48.0668 62.942 48.1068 62.414 48.3358 61.96C48.5648 61.505 48.9648 61.16 49.4478 61C49.9308 60.84 50.4578 60.877 50.9128 61.105C51.3688 61.332 51.7148 61.732 51.8768 62.214C52.4088 63.733 53.3948 65.053 54.6998 65.995C56.0048 66.938 57.5678 67.458 59.1768 67.485C60.7958 67.499 62.3788 66.995 63.6918 66.047C65.0048 65.099 65.9808 63.756 66.4768 62.214C66.6388 61.732 66.9848 61.332 67.4408 61.105C67.8958 60.877 68.4228 60.84 68.9058 61C69.3888 61.16 69.7888 61.505 70.0178 61.96C70.2468 62.414 70.2868 62.942 70.1278 63.425C69.3968 65.745 67.9358 67.769 65.9648 69.194C63.9928 70.619 61.6138 71.372 59.1808 71.339Z" fill="#FF7C3C"/>
<path d="M89.8126 71.339C87.3886 71.333 85.0266 70.565 83.0616 69.145C81.0956 67.726 79.6256 65.724 78.8576 63.425C78.6986 62.942 78.7386 62.414 78.9676 61.96C79.1966 61.505 79.5966 61.16 80.0796 61C80.5626 60.84 81.0897 60.877 81.5447 61.105C82.0007 61.332 82.3466 61.732 82.5086 62.214C83.0406 63.733 84.0266 65.053 85.3316 65.995C86.6366 66.937 88.1996 67.458 89.8087 67.485C91.4277 67.499 93.0106 66.995 94.3236 66.047C95.6367 65.099 96.6126 63.756 97.1086 62.214C97.2706 61.732 97.6167 61.332 98.0727 61.105C98.5277 60.877 99.0546 60.84 99.5376 61C100.021 61.16 100.421 61.505 100.65 61.96C100.879 62.414 100.919 62.942 100.76 63.425C100.029 65.745 98.5677 67.769 96.5967 69.194C94.6247 70.619 92.2456 71.372 89.8126 71.339Z" fill="#FF7C3C"/>
<path d="M74.5986 96.172C75.8356 96.171 77.0226 95.679 77.8966 94.805C78.7706 93.93 79.2616 92.743 79.2616 91.506C79.2616 90.269 78.7696 89.082 77.8946 88.208C77.0206 87.334 75.8336 86.842 74.5966 86.842C73.3596 86.842 72.1726 87.334 71.2986 88.208C70.4236 89.082 69.9316 90.269 69.9316 91.506C69.9326 92.743 70.4256 93.93 71.2996 94.804C72.1746 95.679 73.3616 96.171 74.5986 96.172Z" fill="#FF7C3C"/>
<path d="M111.139 8.24996V5.77295H120.714V8.24996L114.182 16.135H120.827V18.612H110.801V16.135L117.333 8.24996H111.139Z" fill="#A9AEB2"/>
<path d="M121.45 33.22V28.864H138.616V33.22L127.068 47.275H138.928V51.63H120.828V47.275L132.376 33.22H121.45Z" fill="white"/>
</g>
<defs>
<clipPath id="clip0_1234_4658">
<rect width="150" height="150" fill="white"/>
</clipPath>
</defs>
</svg>
