<svg width="150" height="150" viewBox="0 0 150 150" fill="none" xmlns="http://www.w3.org/2000/svg">
<path d="M112.376 31.15C113.721 31.15 115.013 30.615 115.964 29.664C116.915 28.713 117.45 27.421 117.45 26.076C117.45 24.731 116.915 23.439 115.964 22.488C115.013 21.537 113.721 21.002 112.376 21.002C111.031 21.002 109.739 21.537 108.788 22.488C107.837 23.439 107.302 24.731 107.302 26.076C107.301 26.967 107.535 27.842 107.981 28.614C108.426 29.385 109.067 30.026 109.838 30.471C110.61 30.917 111.485 31.151 112.376 31.15Z" fill="#EAEEF9"/>
<path d="M119.804 132.313C120.723 132.313 121.605 131.948 122.254 131.298C122.904 130.649 123.269 129.767 123.269 128.848C123.269 127.929 122.904 127.047 122.254 126.398C121.605 125.748 120.723 125.383 119.804 125.383C118.885 125.383 118.003 125.748 117.354 126.398C116.704 127.047 116.339 127.929 116.339 128.848C116.338 129.456 116.498 130.054 116.802 130.581C117.106 131.108 117.544 131.546 118.071 131.85C118.598 132.154 119.196 132.314 119.804 132.313Z" fill="#EAEEF9"/>
<path d="M7.52262 47.6099C8.44162 47.6099 9.32362 47.2449 9.97262 46.5949C10.6226 45.9459 10.9876 45.0639 10.9876 44.1449C10.9876 43.2259 10.6226 42.3439 9.97262 41.6949C9.32362 41.0449 8.44162 40.6799 7.52262 40.6799C6.60362 40.6799 5.72162 41.0449 5.07262 41.6949C4.42262 42.3439 4.05762 43.2259 4.05762 44.1449C4.05762 44.7529 4.21762 45.3509 4.52162 45.8779C4.82562 46.4049 5.26262 46.8419 5.78962 47.1459C6.31662 47.4499 6.91462 47.6099 7.52262 47.6099Z" fill="#0F70FF"/>
<path d="M8.20455 140.902C9.91055 140.902 11.5486 140.223 12.7556 139.017C13.9616 137.81 14.6406 136.172 14.6406 134.466C14.6406 132.76 13.9616 131.122 12.7556 129.915C11.5486 128.709 9.91055 128.03 8.20455 128.03C6.49855 128.03 4.86055 128.709 3.65355 129.915C2.44755 131.122 1.76855 132.76 1.76855 134.466C1.76855 136.172 2.44755 137.81 3.65355 139.017C4.86055 140.223 6.49855 140.902 8.20455 140.902Z" fill="#EAEEF9"/>
<path d="M64.5157 146.74C78.7617 146.768 92.6037 141.953 103.757 133.09C114.91 124.226 122.726 111.829 125.916 97.945C129.106 84.06 127.483 69.495 121.316 56.653C115.15 43.81 104.797 33.438 91.9667 27.246C79.1367 21.053 64.5747 19.402 50.6837 22.565C36.7927 25.727 24.3807 33.518 15.4957 44.654C6.60965 55.79 1.76765 69.622 1.76765 83.868C1.75065 94.894 4.63965 105.733 10.1417 115.288C15.6437 124.844 23.5667 132.783 33.1117 138.304C42.6567 143.825 53.4897 146.735 64.5157 146.74Z" fill="#EAEEF9"/>
<path d="M100.957 30.456C101.563 30.446 102.16 30.598 102.687 30.897C103.214 31.196 103.651 31.631 103.953 32.156C104.255 32.682 104.41 33.278 104.403 33.884V135.036C104.41 135.642 104.254 136.238 103.952 136.763C103.65 137.288 103.213 137.723 102.686 138.022C102.16 138.321 101.563 138.474 100.957 138.464H26.1571C25.5521 138.472 24.9551 138.319 24.4291 138.02C23.9031 137.72 23.4661 137.286 23.1641 136.762C22.8621 136.237 22.7051 135.641 22.7101 135.036V33.884C22.7041 33.278 22.8601 32.682 23.1621 32.157C23.4641 31.632 23.9011 31.197 24.4271 30.898C24.9541 30.599 25.5511 30.446 26.1571 30.456H100.957Z" fill="#CED7E2"/>
<path d="M104.403 41.0249V134.887C104.409 135.493 104.253 136.089 103.952 136.614C103.65 137.139 103.213 137.573 102.686 137.873C102.16 138.172 101.562 138.324 100.957 138.315H32.6169L26.5869 132.315L94.4959 39.3149L100.382 37.1609L104.403 41.0249Z" fill="#BCC4CF"/>
<path d="M100.671 38.3149C100.674 38.1129 100.622 37.9129 100.522 37.7369C100.421 37.5619 100.276 37.4159 100.1 37.3149C99.925 37.2139 99.725 37.1619 99.523 37.1639H27.737C27.534 37.1609 27.335 37.2129 27.159 37.3139C26.983 37.4139 26.837 37.5599 26.737 37.7359C26.636 37.9129 26.585 38.1119 26.588 38.3149V131.174C26.586 131.376 26.638 131.574 26.739 131.749C26.839 131.924 26.985 132.068 27.161 132.168C27.336 132.267 27.535 132.317 27.737 132.313H99.379C99.581 132.317 99.78 132.267 99.956 132.168C100.131 132.069 100.277 131.924 100.378 131.749C100.478 131.575 100.53 131.376 100.527 131.174L100.671 38.3149Z" fill="#D9DFEE"/>
<path d="M100.67 38.3149C100.673 38.1129 100.621 37.9129 100.521 37.7369C100.42 37.5619 100.275 37.4159 100.099 37.3149C99.9239 37.2139 99.7239 37.1619 99.5219 37.1639H27.7359C27.5329 37.1609 27.3339 37.2129 27.1579 37.3139C26.9819 37.4139 26.8359 37.5599 26.7359 37.7359C26.6349 37.9129 26.5839 38.1119 26.5869 38.3149C27.4479 75.3079 27.7359 117.177 23.7139 128.031L92.4839 127.031C96.6499 108.167 99.8079 74.3179 100.67 38.3149Z" fill="#EFF3FB"/>
<path d="M100.525 37.312C100.525 37.312 100.381 42.881 98.6586 78.451V79.169C96.5056 114.033 65.4936 121.31 61.7586 121.744C60.0356 121.892 56.7336 122.177 50.8476 122.177C43.5246 122.462 32.3266 122.598 14.8116 122.746C14.6276 122.752 14.4476 122.692 14.3036 122.579C14.1586 122.465 14.0586 122.305 14.0206 122.125C13.9816 121.945 14.0076 121.758 14.0936 121.595C26.1526 97.461 26.2936 37.449 26.2936 37.449L100.525 37.312Z" fill="white"/>
<path d="M98.5171 79.033C96.5071 113.885 65.3521 121.174 61.6171 121.595C59.8941 121.744 56.5911 122.028 50.7051 122.028C66.2111 114.887 74.5381 102.028 74.3951 92.028C81.8621 92.598 94.7841 92.028 98.5171 79.033Z" fill="#EAEEF9"/>
<path d="M81.0004 30.7411L80.2824 30.0231C80.0494 30.1021 79.8484 30.2541 79.7084 30.4561H68.5084V29.7381C68.4914 28.6071 68.0294 27.5281 67.2234 26.7341C66.4184 25.9411 65.3314 25.4961 64.2014 25.4961C63.0704 25.4961 61.9834 25.9411 61.1784 26.7341C60.3724 27.5281 59.9104 28.6071 59.8934 29.7381C59.8934 30.0231 59.8934 30.1711 60.0374 30.3071H48.4104C48.1934 30.3111 47.9824 30.3741 47.7994 30.4901C47.6164 30.6071 47.4694 30.7721 47.3744 30.9661C47.2794 31.1611 47.2404 31.3781 47.2614 31.5941V35.3071C47.2254 36.1391 47.4254 36.9651 47.8394 37.6871C48.2534 38.4101 48.8644 39.0001 49.6014 39.3891C50.3374 39.7781 51.1694 39.9511 51.9994 39.8861H75.8324C78.7034 39.8861 81.1444 38.1661 81.1444 35.3071V31.4581C81.1984 31.3381 81.2134 31.2051 81.1874 31.0761C81.1614 30.9481 81.0964 30.8311 81.0004 30.7411Z" fill="#1C3754"/>
<path d="M80.5695 30.7411V35.1721C80.3845 36.3821 79.7805 37.4901 78.8615 38.3001C77.9435 39.1101 76.7685 39.5711 75.5445 39.6031H51.5685C50.3445 39.5711 49.1695 39.1101 48.2515 38.3001C47.3325 37.4901 46.7285 36.3821 46.5435 35.1721V30.7411C46.5345 30.4201 46.6485 30.1081 46.8625 29.8691C47.0755 29.6301 47.3725 29.4811 47.6925 29.4541H59.4645V28.8851C59.4815 27.7541 59.9435 26.6751 60.7495 25.8811C61.5545 25.0881 62.6415 24.6431 63.7725 24.6431C64.9025 24.6431 65.9895 25.0881 66.7945 25.8811C67.6005 26.6751 68.0625 27.7541 68.0795 28.8851V29.4541H79.8515C80.0765 29.5831 80.2625 29.7711 80.3885 29.9981C80.5155 30.2251 80.5775 30.4821 80.5695 30.7411Z" fill="white"/>
<path d="M63.4846 30.877C64.0146 30.874 64.5226 30.661 64.8946 30.284C65.2676 29.907 65.4767 29.397 65.4737 28.867C65.4707 28.337 65.2577 27.83 64.8817 27.456C64.5047 27.083 63.9956 26.875 63.4656 26.877C62.9356 26.879 62.4276 27.092 62.0536 27.468C61.6806 27.844 61.4716 28.354 61.4736 28.884C61.4876 29.411 61.7047 29.913 62.0787 30.285C62.4537 30.656 62.9576 30.868 63.4846 30.877Z" fill="#EAEEF9"/>
<path d="M80.426 35.1709C80.241 36.3809 79.637 37.4889 78.718 38.2989C77.8 39.1089 76.625 39.5699 75.401 39.6019H51.568C50.344 39.5699 49.169 39.1089 48.251 38.2989C47.332 37.4889 46.728 36.3809 46.543 35.1709H80.426Z" fill="#9AA1B2"/>
<path d="M44.2456 78.5989C45.3046 78.5939 46.3196 78.1679 47.0656 77.4159C47.8116 76.6639 48.2296 75.6449 48.2256 74.5859C48.2216 73.5259 47.7976 72.5109 47.0466 71.7639C46.2956 71.0159 45.2786 70.5969 44.2186 70.5989C43.1596 70.6009 42.1436 71.0229 41.3946 71.7729C40.6466 72.5229 40.2256 73.5399 40.2256 74.5989C40.2096 75.3079 40.3866 76.0079 40.7376 76.6239C41.0886 77.2399 41.6006 77.7489 42.2176 78.0969C42.8356 78.4449 43.5366 78.6189 44.2456 78.5989Z" fill="#0F70FF"/>
<path d="M76.1186 78.4509C76.9816 78.4819 77.8326 78.2319 78.5416 77.7389C79.2516 77.2459 79.7826 76.5359 80.0556 75.7159C80.3286 74.8969 80.3286 74.0099 80.0556 73.1909C79.7826 72.3709 79.2516 71.6609 78.5416 71.1679C77.8326 70.6749 76.9816 70.4249 76.1186 70.4559C75.0626 70.4759 74.0546 70.9039 73.3056 71.6489C72.5566 72.3939 72.1246 73.3999 72.0986 74.4559C72.0996 75.1599 72.2856 75.8509 72.6396 76.4599C72.9926 77.0679 73.5006 77.5729 74.1116 77.9229C74.7226 78.2719 75.4146 78.4549 76.1186 78.4509Z" fill="#0F70FF"/>
<path d="M64.0597 82.8821H56.3057V84.7381H64.0597V82.8821Z" fill="#0F70FF"/>
<path d="M141.444 37.7451C144.659 52.6881 144.116 68.1991 139.865 82.8811C138.865 85.8881 137.855 89.1681 135.702 91.4581C134.101 93.2171 132.058 94.5161 129.786 95.2201C127.514 95.9231 125.095 96.0051 122.78 95.4581C120.458 94.8351 118.36 93.5641 116.733 91.7931C115.106 90.0221 114.017 87.8251 113.592 85.4581C113.211 83.9261 113.279 82.3161 113.788 80.8221C114.297 79.3271 115.226 78.0111 116.463 77.0301C117.846 76.2121 119.453 75.8541 121.052 76.0071C122.651 76.1611 124.161 76.8181 125.363 77.8841C126.563 78.9491 127.499 80.2781 128.097 81.7661C128.695 83.2551 128.939 84.8621 128.809 86.4611C128.58 89.6461 127.596 92.7321 125.938 95.4611C121.611 103.38 114.723 109.601 106.406 113.102C98.0887 116.604 88.8257 117.182 80.1377 114.743" stroke="#C9D4E2" stroke-width="2"/>
<path d="M147.478 33.451C147.047 35.023 145.325 35.592 143.602 34.602C141.736 33.736 140.444 33.03 140.731 31.594C141.162 30.171 142.884 30.022 144.894 29.886C147.33 29.602 147.76 31.879 147.478 33.451Z" fill="#DAE2EB"/>
<path d="M133.544 34.887C133.799 35.366 134.19 35.76 134.667 36.018C135.145 36.277 135.688 36.388 136.229 36.339C136.77 36.289 137.284 36.081 137.707 35.741C139.286 34.318 140.578 33.315 139.86 31.88C139.142 30.593 137.994 31.026 135.553 31.311C133.544 31.743 132.687 33.451 133.544 34.887Z" fill="#DAE2EB"/>
<path d="M139.864 29.6019C140.335 29.5219 140.82 29.6049 141.237 29.8359C141.655 30.0679 141.982 30.4349 142.164 30.8769C142.323 31.1889 142.421 31.5279 142.451 31.8769C142.738 33.8819 142.02 35.5899 140.872 35.7389C139.58 36.0239 138.288 34.6009 138.144 32.7389V31.4519C138.169 30.9899 138.355 30.5509 138.67 30.2119C138.984 29.8729 139.408 29.6539 139.867 29.5949L139.864 29.6019Z" fill="#989FB0"/>
</svg>
