<svg width="150" height="150" viewBox="0 0 150 150" fill="none" xmlns="http://www.w3.org/2000/svg">
<g clip-path="url(#clip0_1234_4256)">
<path d="M8.84863 75.001C8.84863 60.099 13.5686 45.573 22.3276 33.517C31.0866 21.462 43.4426 12.484 57.6156 7.87904C71.7876 3.27404 87.0616 3.27404 101.234 7.87904C115.407 12.484 127.763 21.462 136.522 33.517C145.281 45.573 150.001 60.099 150.001 75.001C150.001 93.712 142.56 111.675 129.33 124.906C116.099 138.136 98.1356 145.577 79.4246 145.577C60.7136 145.577 42.7506 138.136 29.5196 124.906C16.2896 111.675 8.84863 93.712 8.84863 75.001Z" fill="#EAEEF9"/>
<path d="M133.839 140.914C135.442 140.914 136.981 140.277 138.114 139.143C139.248 138.01 139.885 136.471 139.885 134.868C139.885 133.265 139.248 131.726 138.114 130.593C136.981 129.459 135.442 128.822 133.839 128.822C132.236 128.822 130.697 129.459 129.564 130.593C128.43 131.726 127.793 133.265 127.793 134.868C127.793 136.471 128.43 138.01 129.564 139.143C130.697 140.277 132.236 140.914 133.839 140.914Z" fill="#EAEEF9"/>
<path d="M139.4 16.1621C140.335 16.1621 141.243 15.8441 141.974 15.2611C142.706 14.6781 143.217 13.8641 143.425 12.9521C143.634 12.0401 143.526 11.0841 143.12 10.2411C142.714 9.39909 142.034 8.71909 141.192 8.31309C140.349 7.90709 139.393 7.79909 138.481 8.00809C137.569 8.21609 136.755 8.72709 136.172 9.45909C135.589 10.1901 135.271 11.0981 135.271 12.0331C135.271 13.1281 135.706 14.1791 136.48 14.9531C137.254 15.7271 138.305 16.1621 139.4 16.1621Z" fill="#FF7C3C"/>
<path d="M14.9639 23.835C16.9969 23.835 18.9489 23.027 20.3859 21.589C21.8239 20.152 22.6319 18.2 22.6319 16.167C22.6319 14.134 21.8239 12.182 20.3859 10.745C18.9489 9.30702 16.9969 8.49902 14.9639 8.49902C12.9309 8.49902 10.9789 9.30702 9.5419 10.745C8.1039 12.182 7.2959 14.134 7.2959 16.167C7.2959 18.2 8.1049 20.151 9.5419 21.589C10.9799 23.026 12.9309 23.835 14.9639 23.835Z" fill="#EAEEF9"/>
<path d="M106.716 36.549H69.1162V22.28H118.674C122.396 22.38 125.936 23.926 128.539 26.589C131.142 29.251 132.608 32.825 132.625 36.548H116.319" fill="#CCD4E2"/>
<path d="M119.761 22.2801C116.922 22.4191 114.237 23.6201 112.242 25.6441C112.038 25.8351 111.856 26.0481 111.699 26.2791C109.851 28.3291 108.791 30.9711 108.709 33.7301V118.605C108.719 121.107 108.068 123.569 106.822 125.739C105.576 127.909 103.779 129.713 101.613 130.967C99.4475 132.22 96.9885 132.88 94.4865 132.879H25.2725V33.0951C25.3845 30.3091 26.5125 27.6571 28.4425 25.6441C29.4945 24.5751 30.7505 23.7271 32.1345 23.1491C33.5195 22.5711 35.0055 22.2761 36.5055 22.2801H119.757H119.761Z" fill="white"/>
<path d="M94.9376 41.729H74.3746C74.0136 41.728 73.6676 41.584 73.4136 41.328C73.1586 41.073 73.0156 40.726 73.0156 40.365C73.0156 40.005 73.1586 39.658 73.4136 39.403C73.6676 39.147 74.0136 39.003 74.3746 39.002H94.9376C95.2956 39.012 95.6366 39.159 95.8896 39.413C96.1416 39.666 96.2886 40.007 96.2976 40.365C96.3026 40.605 96.2426 40.842 96.1236 41.051C96.0046 41.26 95.8326 41.434 95.6236 41.553C95.4146 41.672 95.1776 41.733 94.9376 41.729Z" fill="#B3BFD3"/>
<path d="M64.6878 41.729H37.8668C37.5058 41.728 37.1598 41.584 36.9058 41.328C36.6508 41.073 36.5078 40.726 36.5078 40.365C36.5078 40.005 36.6508 39.658 36.9058 39.403C37.1598 39.147 37.5058 39.003 37.8668 39.002H64.7728C65.1308 39.013 65.4708 39.16 65.7228 39.413C65.9758 39.667 66.1218 40.007 66.1308 40.365C66.1168 40.736 65.9578 41.087 65.6888 41.342C65.4188 41.597 65.0588 41.736 64.6878 41.729Z" fill="#B3BFD3"/>
<path d="M81.8946 55.183H55.1696C54.8086 55.183 54.4616 55.039 54.2056 54.784C53.9506 54.528 53.8066 54.181 53.8066 53.82C53.8066 53.459 53.9506 53.112 54.2056 52.856C54.4616 52.601 54.8086 52.457 55.1696 52.457H81.8946C82.2526 52.467 82.5926 52.614 82.8456 52.867C83.0986 53.12 83.2446 53.461 83.2546 53.819C83.2696 54.062 83.2156 54.304 83.0986 54.518C82.9816 54.731 82.8056 54.907 82.5926 55.025C82.3796 55.143 82.1376 55.197 81.8946 55.183Z" fill="#B3BFD3"/>
<path d="M46.565 55.183H37.865C37.504 55.183 37.157 55.039 36.901 54.784C36.646 54.528 36.502 54.181 36.502 53.82C36.502 53.459 36.646 53.112 36.901 52.856C37.157 52.601 37.504 52.457 37.865 52.457H46.565C46.926 52.457 47.273 52.601 47.529 52.856C47.784 53.112 47.928 53.459 47.928 53.82C47.928 54.181 47.784 54.528 47.529 54.784C47.273 55.039 46.926 55.183 46.565 55.183Z" fill="#D4DBEC"/>
<path d="M94.9388 68.6301H78.5388C78.1768 68.6301 77.8298 68.4861 77.5748 68.2301C77.3188 67.9751 77.1748 67.6281 77.1748 67.2661C77.1748 66.9041 77.3188 66.5571 77.5748 66.3021C77.8298 66.0461 78.1768 65.9021 78.5388 65.9021H94.9388C95.2958 65.9101 95.6368 66.0561 95.8898 66.3091C96.1428 66.5611 96.2898 66.9021 96.2988 67.2591C96.3048 67.5001 96.2458 67.7381 96.1268 67.9481C96.0088 68.1591 95.8358 68.3331 95.6268 68.4531C95.4178 68.5731 95.1798 68.6341 94.9388 68.6301Z" fill="#D4DBEC"/>
<path d="M70.6609 68.6301H37.8669C37.5049 68.6301 37.1579 68.4861 36.9029 68.2301C36.6469 67.9751 36.5029 67.6281 36.5029 67.2661C36.5029 66.9041 36.6469 66.5571 36.9029 66.3021C37.1579 66.0461 37.5049 65.9021 37.8669 65.9021H70.6609C71.0179 65.9101 71.3589 66.0561 71.6119 66.3091C71.8649 66.5611 72.0119 66.9021 72.0209 67.2591C72.0269 67.5001 71.9679 67.7381 71.8489 67.9481C71.7309 68.1591 71.5579 68.3331 71.3489 68.4531C71.1399 68.5731 70.9019 68.6341 70.6609 68.6301Z" fill="#B3BFD3"/>
<path d="M81.8949 82.0791H63.8679C63.5059 82.0791 63.1589 81.9351 62.9039 81.6791C62.6479 81.4241 62.5039 81.0771 62.5039 80.7151C62.5039 80.3531 62.6479 80.0061 62.9039 79.7511C63.1589 79.4951 63.5059 79.3511 63.8679 79.3511H81.8949C82.2519 79.3591 82.5929 79.5051 82.8459 79.7581C83.0989 80.0101 83.2459 80.3511 83.2549 80.7081C83.2719 80.9521 83.2179 81.1951 83.1019 81.4101C82.9849 81.6251 82.8089 81.8011 82.5959 81.9201C82.3819 82.0381 82.1389 82.0941 81.8949 82.0791Z" fill="#B3BFD3"/>
<path d="M55.9879 82.0791H37.8669C37.5049 82.0791 37.1579 81.9351 36.9029 81.6791C36.6469 81.4241 36.5029 81.0771 36.5029 80.7151C36.5029 80.3531 36.6469 80.0061 36.9029 79.7511C37.1579 79.4951 37.5049 79.3511 37.8669 79.3511H56.0759C56.4329 79.3591 56.7739 79.5051 57.0269 79.7581C57.2799 80.0101 57.4269 80.3511 57.4359 80.7081C57.4239 81.0811 57.2649 81.4351 56.9939 81.6921C56.7229 81.9481 56.3609 82.0881 55.9879 82.0791Z" fill="#D4DBEC"/>
<path d="M94.9394 95.5271H82.3474C81.9854 95.5271 81.6384 95.3831 81.3834 95.1271C81.1274 94.8721 80.9834 94.5251 80.9834 94.1631C80.9834 93.8011 81.1274 93.4541 81.3834 93.1991C81.6384 92.9431 81.9854 92.7991 82.3474 92.7991H94.9394C95.2984 92.8091 95.6404 92.9571 95.8934 93.2121C96.1464 93.4681 96.2924 93.8111 96.2994 94.1701C96.3034 94.4101 96.2434 94.6461 96.1244 94.8541C96.0054 95.0631 95.8324 95.2351 95.6244 95.3531C95.4154 95.4721 95.1794 95.5321 94.9394 95.5271Z" fill="#B3BFD3"/>
<path d="M74.1937 95.5271H53.0857C52.7237 95.5271 52.3767 95.3831 52.1217 95.1271C51.8657 94.8721 51.7217 94.5251 51.7217 94.1631C51.7217 93.8011 51.8657 93.4541 52.1217 93.1991C52.3767 92.9431 52.7237 92.7991 53.0857 92.7991H74.1937C74.5557 92.7991 74.9027 92.9431 75.1577 93.1991C75.4137 93.4541 75.5577 93.8011 75.5577 94.1631C75.5577 94.5251 75.4137 94.8721 75.1577 95.1271C74.9027 95.3831 74.5557 95.5271 74.1937 95.5271Z" fill="#D4DBEC"/>
<path d="M45.2049 95.5271H37.8669C37.5049 95.5271 37.1579 95.3831 36.9029 95.1271C36.6469 94.8721 36.5029 94.5251 36.5029 94.1631C36.5029 93.8011 36.6469 93.4541 36.9029 93.1991C37.1579 92.9431 37.5049 92.7991 37.8669 92.7991H45.2049C45.5669 92.7991 45.9139 92.9431 46.1689 93.1991C46.4249 93.4541 46.5689 93.8011 46.5689 94.1631C46.5689 94.5251 46.4249 94.8721 46.1689 95.1271C45.9139 95.3831 45.5669 95.5271 45.2049 95.5271Z" fill="#B3BFD3"/>
<path d="M81.8953 108.975H69.3953C69.0333 108.975 68.6864 108.831 68.4314 108.575C68.1754 108.32 68.0312 107.973 68.0312 107.611C68.0312 107.249 68.1754 106.902 68.4314 106.647C68.6864 106.391 69.0333 106.247 69.3953 106.247H81.8953C82.2543 106.258 82.5954 106.406 82.8484 106.661C83.1014 106.916 83.2464 107.259 83.2534 107.618C83.2684 107.86 83.2144 108.102 83.0974 108.315C82.9804 108.527 82.8054 108.702 82.5924 108.819C82.3794 108.936 82.1373 108.99 81.8953 108.975Z" fill="#B3BFD3"/>
<path d="M61.1499 108.975H37.8669C37.5049 108.975 37.1579 108.831 36.9029 108.575C36.6469 108.32 36.5029 107.973 36.5029 107.611C36.5029 107.249 36.6469 106.902 36.9029 106.647C37.1579 106.391 37.5049 106.247 37.8669 106.247H61.1499C61.5119 106.247 61.8589 106.391 62.1139 106.647C62.3699 106.902 62.5139 107.249 62.5139 107.611C62.5139 107.973 62.3699 108.32 62.1139 108.575C61.8589 108.831 61.5119 108.975 61.1499 108.975Z" fill="#D4DBEC"/>
<path d="M64.049 121.613H82.349C82.353 124.572 83.526 127.413 85.611 129.513C86.632 130.567 87.858 131.401 89.213 131.964C90.568 132.526 92.024 132.806 93.491 132.786H11.142C9.18302 132.783 7.25902 132.265 5.56402 131.283C3.86902 130.301 2.46202 128.889 1.48502 127.191C0.509023 125.493 -0.00397679 123.567 2.3214e-05 121.608H54.173C54.173 121.608 64.229 121.702 64.049 121.613Z" fill="#CCD4E2"/>
<path d="M142.608 112.899L131.169 101.471L133.792 98.8611L145.22 110.289L142.608 112.899Z" fill="#F8F8F8"/>
<path d="M146.584 116.924L137.814 108.15C137.472 107.796 137.283 107.321 137.287 106.829C137.292 106.336 137.49 105.865 137.838 105.517C138.186 105.169 138.658 104.972 139.15 104.968C139.643 104.964 140.117 105.154 140.471 105.496L149.242 114.27C149.524 114.55 149.709 114.913 149.772 115.306C149.834 115.698 149.771 116.1 149.59 116.455C149.41 116.809 149.121 117.096 148.767 117.276C148.412 117.456 148.01 117.519 147.618 117.456C147.225 117.392 146.863 117.206 146.583 116.924H146.584Z" fill="#CFCFCF"/>
<path d="M145.959 117.484L134.675 106.203C134.549 106.075 134.478 105.903 134.478 105.724C134.478 105.544 134.549 105.372 134.675 105.244L137.559 102.354C137.689 102.232 137.86 102.164 138.038 102.164C138.217 102.164 138.388 102.232 138.518 102.354L149.802 113.654C149.928 113.781 149.999 113.954 149.999 114.133C149.999 114.312 149.928 114.485 149.802 114.612L146.92 117.484C146.836 117.569 146.731 117.63 146.616 117.661C146.5 117.692 146.379 117.692 146.263 117.661C146.148 117.63 146.043 117.569 145.959 117.484Z" fill="#FF7C3C"/>
<path d="M118.222 64.6489C112.477 64.6469 106.961 66.9299 102.897 70.9919C98.8339 75.0529 96.5479 80.5679 96.5459 86.3129C96.5439 92.0579 98.8269 97.5739 102.888 101.637C106.949 105.701 112.464 107.987 118.209 107.989C123.954 107.991 129.471 105.708 133.534 101.647C137.598 97.5859 139.884 92.0709 139.886 86.3259C139.887 80.5809 137.604 75.0649 133.543 71.0009C129.482 66.9379 123.967 64.6509 118.222 64.6489ZM118.222 103.977C114.209 104.036 110.293 102.726 107.124 100.264C103.955 97.8009 101.718 94.3299 100.785 90.4269C99.8509 86.5239 100.275 82.4169 101.986 78.7869C103.698 75.1569 106.596 72.2159 110.202 70.4529C113.807 68.6899 117.908 68.2069 121.824 69.0849C125.74 69.9619 129.242 72.1489 131.75 75.2829C134.258 78.4159 135.624 82.3129 135.622 86.3259C135.655 90.9719 133.839 95.4459 130.577 98.7549C127.315 102.063 122.868 103.943 118.222 103.977Z" fill="#FF7C3C"/>
</g>
<defs>
<clipPath id="clip0_1234_4256">
<rect width="150" height="150" fill="white"/>
</clipPath>
</defs>
</svg>
