<svg width="339" height="159" viewBox="0 0 339 159" fill="none" xmlns="http://www.w3.org/2000/svg">
<ellipse cx="169.5" cy="128" rx="169.5" ry="31" fill="url(#paint0_linear_1203_1581)"/>
<g clip-path="url(#clip0_1203_1581)">
<path d="M193.7 42.1699C193.7 42.1699 200.54 33.7299 201.39 24.6499V42.1699H193.7Z" fill="#5C5A5A"/>
<path d="M173 0C157.12 0 144.19 12.78 144.19 28.49V31.27H152.16V28.49C152.16 17.12 161.51 7.87 173.01 7.87C184.51 7.87 193.86 17.12 193.86 28.49V54.53H201.83V28.49C201.81 12.78 188.89 0 173 0Z" fill="#72716F"/>
<path d="M210.92 42.1699H135.09C133.38 42.1699 132 43.5399 132 45.2199V93.9399C132 95.6299 133.38 96.9899 135.09 96.9899H210.92C212.63 96.9899 214.01 95.6199 214.01 93.9399V45.2299C214.01 43.5399 212.63 42.1799 210.92 42.1799V42.1699Z" fill="#F2CB30"/>
<path d="M214 93.9501V64.1001C189.02 85.0001 153 92.8501 132.59 95.7301C133.15 96.5001 134.06 97.0001 135.09 97.0001H210.92C212.63 97.0001 214.01 95.6301 214.01 93.9501H214Z" fill="#EAB531"/>
<path d="M179.63 61.3299C179.63 57.6299 176.6 54.6299 172.85 54.6299C169.1 54.6299 166.07 57.6299 166.07 61.3299C166.07 63.5299 167.15 65.4899 168.82 66.7099L166.66 81.8599H179.03L176.87 66.7099C178.53 65.4899 179.62 63.5399 179.62 61.3299H179.63Z" fill="#72716F"/>
<path d="M166.67 81.8598C166.67 81.8598 176.34 78.1998 177.05 67.8398L179.05 81.8598H166.68H166.67Z" fill="#5C5A5A"/>
<path d="M161.63 28.5698H130.74C128.122 28.5698 126 30.692 126 33.3098V47.5298C126 50.1477 128.122 52.2698 130.74 52.2698H161.63C164.248 52.2698 166.37 50.1477 166.37 47.5298V33.3098C166.37 30.692 164.248 28.5698 161.63 28.5698Z" fill="#FF7C3C"/>
<path d="M135.62 47.0401C134.25 47.0401 133.16 46.8001 132.34 46.3301C131.52 45.8601 130.93 45.1301 130.56 44.1501C130.2 43.1701 130.01 41.9401 130.01 40.4601C130.01 38.9801 130.19 37.7301 130.56 36.7501C130.93 35.7701 131.52 35.0301 132.34 34.5401C133.16 34.0501 134.26 33.8101 135.62 33.8101C136.98 33.8101 138.08 34.0501 138.89 34.5401C139.71 35.0301 140.3 35.7701 140.66 36.7501C141.02 37.7301 141.2 38.9701 141.2 40.4601C141.2 41.9501 141.02 43.2001 140.66 44.1801C140.3 45.1501 139.71 45.8701 138.9 46.3401C138.09 46.8101 137 47.0501 135.62 47.0501V47.0401ZM135.62 44.5601C136.35 44.5601 136.89 44.4101 137.26 44.1101C137.63 43.8101 137.87 43.3501 137.99 42.7401C138.11 42.1201 138.18 41.3701 138.18 40.4601C138.18 39.5501 138.12 38.7901 137.99 38.1701C137.87 37.5401 137.62 37.0701 137.26 36.7501C136.9 36.4301 136.35 36.2701 135.62 36.2701C134.89 36.2701 134.36 36.4301 133.99 36.7501C133.62 37.0701 133.37 37.5401 133.24 38.1601C133.11 38.7801 133.04 39.5501 133.04 40.4601C133.04 41.3701 133.1 42.1001 133.24 42.7201C133.37 43.3401 133.62 43.8001 133.98 44.1001C134.35 44.4101 134.89 44.5601 135.62 44.5601Z" fill="white"/>
<path d="M145.1 46.8203V36.5103H141.85V34.0303H151.26V36.5103H148.08V46.8203H145.11H145.1Z" fill="white"/>
<path d="M152.52 46.8203V34.0303H157.37C158.49 34.0303 159.41 34.1703 160.15 34.4603C160.88 34.7503 161.44 35.2203 161.81 35.8803C162.18 36.5403 162.36 37.4503 162.36 38.6003C162.36 39.7503 162.18 40.6403 161.81 41.3403C161.44 42.0403 160.89 42.5403 160.15 42.8503C159.42 43.1603 158.49 43.3203 157.37 43.3203H155.49V46.8203H152.52ZM155.49 40.9103H157.28C158.01 40.9103 158.53 40.7203 158.85 40.3403C159.17 39.9603 159.33 39.3803 159.33 38.6003C159.33 37.8203 159.17 37.2503 158.86 36.9303C158.55 36.6103 158.02 36.4403 157.28 36.4403H155.49V40.9203V40.9103Z" fill="white"/>
</g>
<defs>
<linearGradient id="paint0_linear_1203_1581" x1="169.5" y1="97" x2="169.5" y2="159" gradientUnits="userSpaceOnUse">
<stop stop-color="#007CFF" stop-opacity="0.19"/>
<stop offset="0.376207" stop-color="#D9D9D9" stop-opacity="0"/>
</linearGradient>
<clipPath id="clip0_1203_1581">
<rect width="88" height="97" fill="white" transform="translate(126)"/>
</clipPath>
</defs>
</svg>
