<svg width="22" height="22" viewBox="0 0 22 22" fill="none" xmlns="http://www.w3.org/2000/svg">
<path d="M12.1458 10.9999C12.7787 10.9999 13.2917 10.4869 13.2917 9.85409C13.2917 9.22126 12.7787 8.70825 12.1458 8.70825C11.513 8.70825 11 9.22126 11 9.85409C11 10.4869 11.513 10.9999 12.1458 10.9999Z" fill="#FF9F71"/>
<path d="M14.8409 1.83325H7.15921C3.82254 1.83325 1.83337 3.82242 1.83337 7.15908V14.8316C1.83337 18.1774 3.82254 20.1666 7.15921 20.1666H14.8317C18.1684 20.1666 20.1575 18.1774 20.1575 14.8408V7.15908C20.1667 3.82242 18.1775 1.83325 14.8409 1.83325ZM14.5659 12.3474C13.6217 13.2824 12.2742 13.5758 11.0825 13.1999L10.1109 14.1624C10.0284 14.2449 9.88171 14.2449 9.79004 14.1624L8.90087 13.2733C8.77254 13.1449 8.55254 13.1449 8.41504 13.2733C8.27754 13.4016 8.28671 13.6216 8.41504 13.7591L9.30421 14.6483C9.39587 14.7399 9.39587 14.8866 9.30421 14.9691L8.92837 15.3449C8.77254 15.5099 8.47004 15.6108 8.25004 15.5833L7.25087 15.4458C6.92087 15.3999 6.61837 15.0883 6.56337 14.7583L6.42587 13.7591C6.38921 13.5391 6.49921 13.2366 6.64587 13.0808L8.80004 10.9266C8.43337 9.73492 8.71754 8.38742 9.66171 7.44325C11.0092 6.09575 13.2092 6.09575 14.5659 7.44325C15.9225 8.79075 15.9225 10.9908 14.5659 12.3474Z" fill="#FF9F71"/>
</svg>
