<svg width="40" height="40" viewBox="0 0 40 40" fill="none" xmlns="http://www.w3.org/2000/svg">
<rect width="40" height="40" rx="20" fill="#ECF4FF"/>
<rect x="10" y="10" width="20" height="20" rx="5" fill="#348CFF"/>
<path d="M17.933 22.7046C17.9137 22.7231 17.8832 22.7231 17.8638 22.7046L15.4142 20.3583C15.2813 20.231 15.0724 20.2284 14.9363 20.3525L14.2679 20.9619C14.118 21.0986 14.1154 21.3337 14.2621 21.4737L17.6566 24.7131C17.792 24.8423 18.0049 24.8422 18.1401 24.713L25.7383 17.4517C25.8849 17.3116 25.8821 17.0766 25.7323 16.94L25.0637 16.3305C24.9277 16.2065 24.7189 16.209 24.5859 16.3363L17.933 22.7046Z" fill="white" stroke="white" stroke-width="0.3"/>
</svg>
