<svg width="18" height="22" viewBox="0 0 18 22" fill="none" xmlns="http://www.w3.org/2000/svg">
<path d="M11.2002 0H2.4002C1.81672 0 1.25714 0.231785 0.84456 0.644365C0.43198 1.05694 0.200195 1.61652 0.200195 2.2V19.8C0.200195 20.3835 0.43198 20.9431 0.84456 21.3556C1.25714 21.7682 1.81672 22 2.4002 22H15.6002C16.1837 22 16.7432 21.7682 17.1558 21.3556C17.5684 20.9431 17.8002 20.3835 17.8002 19.8V6.6L11.2002 0ZM6.248 15.609C5.9081 15.928 5.4065 16.071 4.82239 16.071C4.70914 16.0722 4.59594 16.0656 4.4836 16.0512V17.6198H3.5002V13.2902C3.944 13.224 4.39243 13.1938 4.8411 13.2C5.4538 13.2 5.8894 13.3166 6.1831 13.5509C6.4625 13.7731 6.6517 14.1372 6.6517 14.5662C6.6506 14.9974 6.5076 15.3615 6.248 15.609ZM10.4357 17.0995C9.9737 17.4834 9.2708 17.666 8.4117 17.666C7.8969 17.666 7.5328 17.633 7.2853 17.6V13.2913C7.72926 13.2265 8.17755 13.196 8.62619 13.2C9.4589 13.2 10.0001 13.3496 10.4225 13.6686C10.879 14.0074 11.165 14.5475 11.165 15.323C11.165 16.1623 10.8581 16.742 10.4357 17.0995ZM14.5002 14.047H12.815V15.0491H14.3902V15.8565H12.815V17.6209H11.8184V13.233H14.5002V14.047ZM11.2002 7.7H10.1002V2.2L15.6002 7.7H11.2002Z" fill="white"/>
</svg>
