<svg width="22" height="22" viewBox="0 0 22 22" fill="none" xmlns="http://www.w3.org/2000/svg">
<path d="M10.1292 13.7041L8.43337 15.3999C8.07587 15.7574 7.50754 15.7574 7.14087 15.4091C7.04004 15.3083 6.93921 15.2166 6.83837 15.1158C5.89421 14.1624 5.04171 13.1633 4.28087 12.1183C3.52921 11.0733 2.92421 10.0283 2.48421 8.99242C2.05337 7.94742 1.83337 6.94825 1.83337 5.99492C1.83337 5.37159 1.94337 4.77575 2.16337 4.22575C2.38337 3.66659 2.73171 3.15325 3.21754 2.69492C3.80421 2.11742 4.44587 1.83325 5.12421 1.83325C5.38087 1.83325 5.63754 1.88825 5.86671 1.99825C6.10504 2.10825 6.31587 2.27325 6.48087 2.51159L8.60754 5.50909C8.77254 5.73825 8.89171 5.94909 8.97421 6.15075C9.05671 6.34325 9.10254 6.53575 9.10254 6.70992C9.10254 6.92992 9.03837 7.14992 8.91004 7.36075C8.79087 7.57159 8.61671 7.79159 8.39671 8.01159L7.70004 8.73575C7.59921 8.83659 7.55337 8.95575 7.55337 9.10242C7.55337 9.17575 7.56254 9.23992 7.58087 9.31325C7.60838 9.38659 7.63587 9.44159 7.65421 9.49659C7.81921 9.79909 8.10337 10.1933 8.50671 10.6699C8.91921 11.1466 9.35921 11.6324 9.83587 12.1183C9.92754 12.2099 10.0284 12.3016 10.12 12.3933C10.4867 12.7508 10.4959 13.3374 10.1292 13.7041Z" fill="#FF9F71"/>
<path d="M20.1392 16.8026C20.1392 17.0593 20.0934 17.3251 20.0017 17.5818C19.9742 17.6551 19.9467 17.7285 19.91 17.8018C19.7542 18.1318 19.5525 18.4435 19.2867 18.7368C18.8375 19.2318 18.3425 19.5893 17.7834 19.8185C17.7742 19.8185 17.765 19.8276 17.7559 19.8276C17.215 20.0476 16.6284 20.1668 15.9959 20.1668C15.0609 20.1668 14.0617 19.9468 13.0075 19.4976C11.9534 19.0485 10.8992 18.4435 9.85422 17.6826C9.49672 17.4168 9.13922 17.1509 8.80005 16.8668L11.7975 13.8693C12.0542 14.0618 12.2834 14.2085 12.4759 14.3093C12.5217 14.3276 12.5767 14.3551 12.6409 14.3826C12.7142 14.4101 12.7875 14.4193 12.87 14.4193C13.0259 14.4193 13.145 14.3643 13.2459 14.2635L13.9425 13.576C14.1717 13.3468 14.3917 13.1726 14.6025 13.0626C14.8134 12.9343 15.0242 12.8701 15.2534 12.8701C15.4275 12.8701 15.6109 12.9068 15.8125 12.9893C16.0142 13.0718 16.225 13.191 16.4542 13.3468L19.4884 15.501C19.7267 15.666 19.8917 15.8584 19.9925 16.0876C20.0842 16.3168 20.1392 16.546 20.1392 16.8026Z" fill="#FF9F71"/>
</svg>
