<svg width="40" height="40" viewBox="0 0 40 40" fill="none" xmlns="http://www.w3.org/2000/svg">
<rect width="40" height="40" rx="20" fill="#FFE7DB"/>
<path d="M20 11.667C15.4083 11.667 11.6666 15.4087 11.6666 20.0003C11.6666 24.592 15.4083 28.3337 20 28.3337C24.5916 28.3337 28.3333 24.592 28.3333 20.0003C28.3333 15.4087 24.5916 11.667 20 11.667ZM23.625 22.9753C23.5083 23.1753 23.3 23.2837 23.0833 23.2837C22.975 23.2837 22.8666 23.2587 22.7666 23.192L20.1833 21.6503C19.5416 21.267 19.0666 20.4253 19.0666 19.6837V16.267C19.0666 15.9253 19.35 15.642 19.6916 15.642C20.0333 15.642 20.3166 15.9253 20.3166 16.267V19.6837C20.3166 19.9837 20.5666 20.4253 20.825 20.5753L23.4083 22.117C23.7083 22.292 23.8083 22.6753 23.625 22.9753Z" fill="#FF9F71"/>
</svg>
