<svg width="21" height="23" viewBox="0 0 21 23" fill="none" xmlns="http://www.w3.org/2000/svg">
<path d="M20.1393 4.11212C18.4923 3.6906 16.8832 3.14288 15.3277 2.47424C13.7974 1.83764 12.32 1.0897 10.9087 0.23697L10.5089 0L10.1165 0.243939C8.70509 1.09667 7.22776 1.84461 5.69741 2.48121C4.13932 3.14782 2.52786 3.69322 0.878609 4.11212L0.333496 4.24455V10.0573C0.333496 19.3897 10.1673 22.8815 10.2618 22.9164L10.5089 23L10.7561 22.9164C10.8578 22.9164 20.6844 19.3967 20.6844 10.0573V4.24455L20.1393 4.11212ZM16.8177 8.74697L8.69916 16.3091L4.10568 11.8973C3.91291 11.7124 3.80462 11.4617 3.80462 11.2003C3.80462 10.9389 3.91291 10.6882 4.10568 10.5033C4.29844 10.3185 4.55988 10.2146 4.83249 10.2146C5.1051 10.2146 5.36655 10.3185 5.55931 10.5033L8.72097 13.5909L15.4004 7.31818C15.4959 7.22665 15.6092 7.15405 15.7339 7.10452C15.8586 7.05498 15.9922 7.02949 16.1272 7.02949C16.2622 7.02949 16.3959 7.05498 16.5206 7.10452C16.6453 7.15405 16.7586 7.22665 16.854 7.31818C16.9495 7.40971 17.0252 7.51837 17.0769 7.63795C17.1285 7.75754 17.1551 7.88571 17.1551 8.01515C17.1551 8.14459 17.1285 8.27276 17.0769 8.39235C17.0252 8.51193 16.9495 8.62059 16.854 8.71212L16.8177 8.74697Z" fill="white"/>
</svg>
