<svg width="252" height="277" viewBox="0 0 252 277" fill="none" xmlns="http://www.w3.org/2000/svg">
<path d="M219.491 215.819C238.052 194.24 249.262 166.158 249.262 135.461C249.262 67.3506 194.094 12.1572 126.013 12.1572C57.9334 12.1572 2.73413 67.3506 2.73413 135.461C2.73413 166.158 13.9441 194.24 32.5059 215.819H219.491Z" fill="#EFEFEF"/>
<path d="M52.9816 258.096C66.9241 258.096 78.2268 255.524 78.2268 252.352C78.2268 249.179 66.9241 246.607 52.9816 246.607C39.039 246.607 27.7363 249.179 27.7363 252.352C27.7363 255.524 39.039 258.096 52.9816 258.096Z" fill="#CFB091"/>
<path d="M213.445 257.945C208.19 257.945 203.177 258.097 198.59 258.37C201.78 257.489 203.602 256.456 203.602 255.392C203.602 251.927 185.132 249.131 162.347 249.131C139.563 249.131 121.092 251.927 121.092 255.392C121.092 258.857 139.563 261.653 162.347 261.653C168.18 261.653 173.77 261.47 178.782 261.136C176.291 261.896 174.863 262.747 174.863 263.628C174.863 266.759 192.119 269.312 213.415 269.312C234.711 269.312 251.966 266.759 251.966 263.628C251.997 260.498 234.741 257.945 213.445 257.945Z" fill="#CFB091"/>
<path d="M102.196 261.165C101.437 261.165 100.677 261.165 99.9175 261.165C101.376 260.497 102.196 259.767 102.196 259.007C102.196 255.634 86.581 252.898 67.2901 252.898C48.0296 252.898 32.3843 255.634 32.3843 259.007C32.3843 262.351 47.8777 265.086 67.0471 265.116C63.5839 266.271 61.5788 267.639 61.5788 269.098C61.5788 273.474 79.7457 277 102.166 277C124.586 277 142.752 273.444 142.752 269.098C142.783 264.691 124.616 261.165 102.196 261.165Z" fill="#CFB091"/>
<path d="M242.7 254.6C247.298 254.6 251.024 253.553 251.024 252.26C251.024 250.968 247.298 249.92 242.7 249.92C238.103 249.92 234.376 250.968 234.376 252.26C234.376 253.553 238.103 254.6 242.7 254.6Z" fill="#CFB091"/>
<path d="M228.787 248.188C228.787 248.705 227.116 249.13 225.05 249.13C222.984 249.13 221.313 248.705 221.313 248.188C221.313 247.672 222.984 247.246 225.05 247.246C227.116 247.246 228.787 247.672 228.787 248.188Z" fill="#CFB091"/>
<path d="M110.398 250.954C112.68 250.954 114.53 250.423 114.53 249.768C114.53 249.114 112.68 248.583 110.398 248.583C108.117 248.583 106.267 249.114 106.267 249.768C106.267 250.423 108.117 250.954 110.398 250.954Z" fill="#CFB091"/>
<path d="M129.234 245.727C129.234 246.213 128.079 246.639 126.651 246.639C125.224 246.639 124.069 246.244 124.069 245.727C124.069 245.24 125.224 244.814 126.651 244.814C128.079 244.814 129.234 245.21 129.234 245.727Z" fill="#CFB091"/>
<path d="M157.608 230.439C162.286 224.148 167.026 217.796 170.276 210.653C173.527 203.511 175.258 195.427 173.618 187.768C167.208 195.092 160.372 202.69 157.851 212.112C156.241 218.13 156.818 224.239 157.608 230.439Z" fill="#8DC63F"/>
<path d="M161.223 224.877C162.833 221.808 164.413 218.708 165.871 215.547C166.691 213.784 167.451 212.021 168.18 210.228C169.729 206.398 171.096 202.295 170.671 198.192C168.332 201.536 165.962 204.879 163.745 208.313C162.013 211.018 160.342 213.784 159.279 216.793C158.398 219.285 157.912 221.868 157.638 224.482C157.517 225.789 157.426 227.126 157.365 228.433C157.365 228.464 157.365 228.464 157.365 228.494C157.426 229.132 157.517 229.771 157.608 230.409C158.367 229.375 159.157 228.342 159.917 227.309C160.342 226.518 160.798 225.698 161.223 224.877Z" fill="#7CB332"/>
<path d="M161.041 214.542C163.411 208.221 165.81 201.838 166.813 195.152C167.816 188.465 167.299 181.384 164.14 175.427C160.585 183.025 156.727 190.927 156.879 199.315C156.97 204.665 158.914 209.619 161.041 214.542Z" fill="#8DC63F"/>
<path d="M162.712 209.072C163.319 206.124 163.866 203.206 164.322 200.228C164.565 198.587 164.777 196.945 164.96 195.274C165.324 191.718 165.476 188.04 164.139 184.728C162.985 188.04 161.831 191.384 160.828 194.757C160.038 197.401 159.34 200.106 159.157 202.842C159.005 205.091 159.248 207.37 159.643 209.589C159.856 210.713 160.099 211.808 160.372 212.932C160.372 212.932 160.372 212.962 160.372 212.993C160.585 213.51 160.798 214.026 161.041 214.543C161.436 213.51 161.831 212.476 162.195 211.412C162.378 210.653 162.529 209.862 162.712 209.072Z" fill="#7CB332"/>
<path d="M160.616 81.1181C155.603 74.4925 149.011 69.0826 141.537 65.4658C140.079 84.6741 139.38 104.004 139.806 123.243C144.97 120.538 150.043 117.559 154.357 113.638C158.671 109.718 162.226 104.764 163.653 99.141C165.294 92.6674 164.14 85.7682 160.616 81.1181Z" fill="#1C75BC"/>
<path d="M142.54 65.9521C141.993 66.5904 141.628 67.3502 141.385 68.1404C141.385 68.1708 141.385 68.1708 141.385 68.2012C141.233 70.3895 141.082 72.5474 140.96 74.7357C140.899 82.3643 140.839 89.9625 140.778 97.591C140.747 101.451 140.747 105.463 142.175 109.049C142.874 110.812 143.907 112.423 145.061 113.912C145.699 114.763 147.37 117.468 148.737 117.134C149.922 116.83 150.317 113.061 150.651 111.967C151.289 109.87 151.988 107.773 152.778 105.736C153.173 104.673 153.598 103.578 153.628 102.424C153.659 101.299 153.294 100.235 152.929 99.1715C150.894 93.0625 148.919 86.832 148.312 80.4191C147.978 76.772 148.099 73.0945 148.281 69.4169C146.459 68.11 144.514 66.9855 142.54 65.9521Z" fill="#155F99"/>
<path d="M44.5969 28.5996C44.5969 28.5996 38.1868 28.0829 32.3236 37.1096C47.6348 33.6144 55.898 36.5017 55.898 36.5017C55.898 36.5017 51.5233 28.2045 44.5969 28.5996Z" fill="#808285"/>
<path d="M84.5153 29.6634C81.8723 26.5329 79.5939 23.0985 77.7711 19.421C80.5052 16.9896 80.809 12.1875 79.7154 8.69234C78.6217 5.19716 75.7053 2.40103 72.3028 1.06374C68.9003 -0.273541 65.0422 -0.273541 61.5182 0.638243C57.2043 1.76278 53.0727 4.43734 51.3715 8.54037C49.6702 12.6434 51.1588 18.1445 55.1993 19.9681C53.1942 25.4084 50.5208 30.7879 46.7842 35.2253C57.5081 35.3164 68.2016 35.4076 78.9255 35.1037C80.6571 35.0429 82.5103 34.9517 83.9685 33.9791C85.3963 32.9762 85.6394 30.9703 84.5153 29.6634ZM71.9383 14.8925C69.9636 16.2601 67.351 16.4729 65.1637 15.5915C63.8877 15.0748 62.6726 14.163 62.0954 12.8865C61.5485 11.6708 61.5485 10.2424 61.9435 8.99626C62.3384 7.65898 63.189 6.50406 64.2523 5.65306C65.7105 4.49813 73.0927 2.5226 74.7635 8.54037C75.4319 10.8806 73.9129 13.5248 71.9383 14.8925Z" fill="#BCBEC0"/>
<path d="M55.6853 35.2556C57.1131 30.028 58.9663 24.8916 61.3359 20.0288C57.2043 18.7523 54.1056 14.6492 54.0145 10.3335C53.9537 6.99026 55.6853 3.73823 58.3891 1.7627C55.3208 3.19116 52.6778 5.47062 51.3715 8.54029C49.6702 12.6433 51.1588 18.1444 55.1993 19.968C53.1942 25.4083 50.5208 30.7878 46.7842 35.2252C49.7614 35.2252 52.7081 35.2556 55.6853 35.2556Z" fill="#D1D3D4"/>
<path d="M5.16449 32.0342H143.33L160.98 233.478L24.5161 249.951L5.16449 32.0342Z" fill="#1C75BC"/>
<path d="M107.877 53.066C107.877 53.066 120.333 48.4463 116.292 32.0342H99.0062L107.877 53.066Z" fill="#155F99"/>
<path d="M5.16449 32.0342L0 35.8029L19.4428 247.945L24.5161 249.951L5.16449 32.0342Z" fill="#519BD6"/>
<path d="M160.98 233.478L148.798 94.6135L139.077 40.5143L16.9212 38.1133C16.9212 38.1133 15.5845 197.22 40.526 248.036L160.98 233.478Z" fill="#155F99"/>
<path d="M19.3213 42.0029C60.3941 41.2734 101.467 40.5136 142.54 39.7842C146.641 100.479 153.78 160.991 165.537 220.682C124.525 221.928 83.3306 227.672 43.0476 235.362C31.7768 194.514 19.3213 78.2615 19.3213 42.0029Z" fill="white"/>
<path d="M102.591 40.5138L107.877 53.066C107.877 53.066 116.019 50.0571 117.021 40.2402C112.191 40.3314 107.391 40.4226 102.591 40.5138Z" fill="#E6E7E8"/>
<path d="M57.8422 30.1498C66.5307 29.7547 75.2495 29.3596 83.938 28.9645C82.2368 26.8978 80.6874 24.6791 79.3507 22.3389C76.3736 22.582 73.4571 23.1899 70.6015 24.132C66.1357 25.6213 61.913 27.7792 57.8422 30.1498Z" fill="#808285"/>
<path d="M51.3106 53.0356L107.847 53.066C110.824 46.6228 109.517 38.8726 107.148 31.8519C106.358 29.5724 104.353 27.9312 101.923 27.7184C83.5431 26.0164 64.7687 25.8949 44.5664 28.5998C50.8853 31.943 51.8878 43.9482 51.3106 53.0356Z" fill="#BCBEC0"/>
<path d="M108.697 37.2012L50.2169 37.3531C51.0979 40.7571 51.4321 44.6474 51.4625 48.4161L109.335 48.1122C109.882 44.5866 109.517 40.8787 108.697 37.2012Z" fill="#D1D3D4"/>
<path d="M77.1028 27.8104C73.6395 27.8712 70.1155 28.1143 66.9257 29.5124C66.3485 29.7556 65.7105 30.2114 65.832 30.8193C65.9232 31.336 66.5308 31.5791 67.0472 31.7311C75.0066 33.8282 83.3305 33.737 91.5026 33.1292C93.1127 33.0076 101.315 33.2507 100.981 31.0624C100.525 28.1447 93.3861 28.5094 91.3507 28.3271C86.6115 27.8712 81.8723 27.7192 77.1028 27.8104Z" fill="#D1D3D4"/>
<path d="M59.4826 32.3694C61.6638 32.3694 63.432 31.689 63.432 30.8497C63.432 30.0104 61.6638 29.3301 59.4826 29.3301C57.3015 29.3301 55.5333 30.0104 55.5333 30.8497C55.5333 31.689 57.3015 32.3694 59.4826 32.3694Z" fill="#D1D3D4"/>
<path d="M137.406 98.0783L115.016 99.2028L110.733 72.062L133.122 70.9375L137.406 98.0783ZM117.325 96.3763L134.246 95.5253L130.813 73.7944L113.892 74.6454L117.325 96.3763Z" fill="#BCBEC0"/>
<path d="M144.241 145.43L121.852 146.463L117.69 119.292L140.079 118.259L144.241 145.43ZM124.16 143.637L141.082 142.847L137.77 121.116L120.849 121.906L124.16 143.637Z" fill="#BCBEC0"/>
<path d="M130.631 194.027L126.013 166.947L148.373 165.519L152.99 192.599L130.631 194.027ZM129.203 169.47L132.91 191.17L149.8 190.106L146.094 168.406L129.203 169.47Z" fill="#BCBEC0"/>
<path d="M32.3236 87.3796C31.4122 87.3796 30.6528 86.6501 30.6224 85.7383C30.592 84.7962 31.3211 84.006 32.2629 83.9756L102.773 81.7265C103.715 81.6961 104.505 82.4255 104.535 83.3677C104.566 84.3099 103.837 85.1001 102.895 85.1305L32.3844 87.3796C32.354 87.3796 32.3236 87.3796 32.3236 87.3796Z" fill="#808285"/>
<path d="M33.6907 94.5221C32.7793 94.5221 32.0198 93.7927 31.9894 92.8809C31.9591 91.9387 32.6882 91.1485 33.6299 91.1181L104.14 88.8691C105.112 88.8387 105.872 89.5681 105.902 90.5103C105.933 91.4525 105.204 92.2427 104.262 92.2731L33.7514 94.5221C33.7211 94.5221 33.6907 94.5221 33.6907 94.5221Z" fill="#808285"/>
<path d="M35.0273 101.664C34.116 101.664 33.3565 100.935 33.3261 100.023C33.2957 99.0808 34.0248 98.2906 34.9666 98.2602L70.2066 97.1357C71.1484 97.1053 71.9382 97.8347 71.9686 98.7769C71.999 99.7191 71.2699 100.509 70.3281 100.54L35.0881 101.664C35.0881 101.664 35.0577 101.664 35.0273 101.664Z" fill="#808285"/>
<path d="M30.7439 80.2677C29.8325 80.2677 29.073 79.5383 29.0427 78.6265C29.0123 77.6843 29.7414 76.8941 30.6831 76.8637L65.9232 75.7392C66.8649 75.7088 67.6548 76.4382 67.6852 77.3804C67.7156 78.3226 66.9865 79.1128 66.0447 79.1432L30.8047 80.2677C30.7743 80.2677 30.7743 80.2677 30.7439 80.2677Z" fill="#8DC63F"/>
<path d="M41.8627 138.47C40.9817 138.47 40.2526 137.802 40.1614 136.92C40.0703 135.978 40.769 135.157 41.6804 135.066L111.917 128.441C112.859 128.349 113.679 129.048 113.771 129.96C113.862 130.902 113.163 131.723 112.252 131.814L42.0146 138.44C41.9538 138.44 41.8931 138.47 41.8627 138.47Z" fill="#808285"/>
<path d="M43.6552 145.491C42.7742 145.491 42.0451 144.822 41.9539 143.941C41.8628 142.999 42.5615 142.178 43.4729 142.087L113.71 135.461C114.652 135.37 115.472 136.069 115.563 136.981C115.654 137.923 114.955 138.744 114.044 138.835L43.8071 145.46C43.7767 145.491 43.7159 145.491 43.6552 145.491Z" fill="#808285"/>
<path d="M45.4475 152.541C44.5665 152.541 43.8374 151.873 43.7463 150.991C43.6551 150.049 44.3539 149.228 45.2652 149.137L80.3838 145.824C81.3255 145.733 82.1458 146.432 82.2369 147.344C82.328 148.286 81.6293 149.107 80.7179 149.198L45.5994 152.511C45.569 152.541 45.5083 152.541 45.4475 152.541Z" fill="#808285"/>
<path d="M39.8577 131.48C38.9767 131.48 38.2476 130.811 38.1564 129.93C38.0653 128.987 38.764 128.167 39.6754 128.076L74.7939 124.763C75.7357 124.672 76.5559 125.371 76.6471 126.283C76.7382 127.225 76.0395 128.045 75.1281 128.136L40.0096 131.449C39.9488 131.449 39.8881 131.48 39.8577 131.48Z" fill="#8DC63F"/>
<path d="M50.1867 188.253C49.3361 188.253 48.607 187.615 48.4855 186.733C48.3944 185.791 49.0627 184.971 49.9741 184.849L120.09 177.068C121.031 176.947 121.852 177.646 121.973 178.558C122.064 179.5 121.396 180.32 120.485 180.442L50.369 188.223C50.3082 188.253 50.2475 188.253 50.1867 188.253Z" fill="#808285"/>
<path d="M52.1006 195.274C51.2499 195.274 50.5208 194.636 50.3993 193.755C50.3082 192.813 50.9765 191.992 51.8879 191.87L122.003 184.09C122.945 183.968 123.765 184.667 123.887 185.579C123.978 186.521 123.31 187.342 122.398 187.464L52.2828 195.244C52.2221 195.274 52.1613 195.274 52.1006 195.274Z" fill="#808285"/>
<path d="M54.0145 202.265C53.1639 202.265 52.4348 201.627 52.3132 200.745C52.2221 199.803 52.8905 198.983 53.8018 198.861L88.8596 194.971C89.8013 194.849 90.6216 195.548 90.7431 196.46C90.8342 197.402 90.1659 198.223 89.2545 198.344L54.1968 202.235C54.136 202.265 54.0752 202.265 54.0145 202.265Z" fill="#808285"/>
<path d="M48.0601 181.293C47.2095 181.293 46.4804 180.655 46.3589 179.774C46.2678 178.832 46.9361 178.011 47.8475 177.889L82.9052 173.999C83.847 173.878 84.6672 174.577 84.7888 175.488C84.8799 176.431 84.2116 177.251 83.3002 177.373L48.2424 181.263C48.1817 181.293 48.1209 181.293 48.0601 181.293Z" fill="#8DC63F"/>
<path d="M109.639 74.827C114.5 76.4378 119.026 78.5957 122.702 82.4556C127.472 76.3162 131.786 70.7239 138.53 65.9219C132.15 73.6416 127.198 82.182 123.857 91.1783C120.697 85.1605 115.745 79.2947 109.639 74.827Z" fill="#39B54A"/>
<path d="M116.535 124.338C121.396 125.949 125.922 128.106 129.598 131.966C134.368 125.827 138.682 120.235 145.426 115.433C139.046 123.152 134.094 131.693 130.753 140.689C127.593 134.671 122.611 128.805 116.535 124.338Z" fill="#39B54A"/>
<path d="M125.072 170.656C129.932 172.267 134.459 174.425 138.135 178.285C142.904 172.145 147.218 166.553 153.962 161.751C147.583 169.471 142.631 178.011 139.289 187.007C136.13 180.99 131.178 175.124 125.072 170.656Z" fill="#39B54A"/>
<path d="M166.57 243.112C162.043 245.301 157.486 247.519 152.96 249.708C152.413 249.981 151.806 250.376 151.866 250.954C151.927 251.683 152.869 251.896 153.568 251.926C159.978 252.169 166.388 252.382 172.798 252.625V244.814C170.823 244.45 168.423 243.872 166.57 243.112Z" fill="white"/>
<path d="M212.23 255.695C210.924 258.248 204.939 260.709 201.02 262.624C200.564 262.837 200.017 263.202 200.078 263.688C200.139 264.296 200.929 264.508 201.567 264.508C205.577 264.66 211.926 264.782 217.243 264.934C219.734 264.995 221.374 262.411 220.281 260.162L217.212 253.506C215.511 253.233 213.84 256.363 212.23 255.695Z" fill="white"/>
<path d="M210.65 136.676C203.42 139.168 196.463 139.046 189.81 139.958C188.656 141.599 184.16 148.195 183.005 149.836C189.233 150.626 195.491 151.416 201.719 152.176C202.721 152.298 203.754 152.419 204.757 152.207C206.245 151.872 207.43 150.778 208.372 149.593C211.167 146.098 211.896 140.992 210.65 136.676Z" fill="#004CBA"/>
<path d="M177.294 126.951C179.724 123.243 183.066 120.659 186.468 121.176C186.195 121.146 183.582 127.224 183.187 127.923C181.911 130.112 180.544 132.087 179.056 133.911C177.598 135.673 176.048 137.254 174.408 138.622C173.922 139.017 172.615 140.536 172.22 139.321C171.947 138.561 173.071 136.19 173.314 135.491C174.408 132.421 175.684 129.443 177.294 126.951Z" fill="#004CBA"/>
<path d="M248.928 92.0587L172.919 159.379L160.859 145.763L236.868 78.4427C240.635 75.0995 246.376 75.4643 249.718 79.233C253.029 82.9713 252.695 88.7459 248.928 92.0587Z" fill="#FBB040"/>
<path d="M160.859 145.763L142.023 174.575L172.919 159.379L160.859 145.763Z" fill="#F98C6E"/>
<path d="M234.04 88.2111L164.477 149.812L169.329 155.297L238.893 93.6958L234.04 88.2111Z" fill="#9C681C"/>
<path d="M148.798 164.242L142.023 174.576L153.112 169.135L148.798 164.242Z" fill="#39B54A"/>
<path d="M236.868 78.4428L229.121 85.2812L241.181 98.8971L248.928 92.0588C252.695 88.7155 253.029 82.9713 249.718 79.2026C246.376 75.4643 240.635 75.0996 236.868 78.4428Z" fill="#F98C6E"/>
<path d="M230.409 84.1601L224.927 89.0156L236.99 102.646L242.471 97.7904L230.409 84.1601Z" fill="white"/>
<path opacity="0.25" d="M248.928 92.0593C251.997 89.3543 252.786 85.0385 251.207 81.513C250.842 80.6924 250.356 79.9326 249.718 79.2031L142.023 174.576L172.919 159.379L248.928 92.0593Z" fill="#231F20"/>
<path d="M206.245 131.145C208.007 134.275 208.129 142.846 207.339 146.341C210.012 146.797 213.05 142.542 215.724 142.998C214.721 139.807 214.417 136.403 214.873 133.09C215.025 131.996 215.238 130.78 214.569 129.899C213.719 128.774 212.017 128.896 210.711 129.412C209.405 129.899 207.612 131.236 206.245 131.145Z" fill="#E67A5C"/>
<path d="M194.701 180.199C194.701 180.199 177.901 195.852 174.286 208.343C170.671 220.834 165.537 241.927 165.537 241.927L174.894 243.751L184.494 213.996L199.683 198.101C199.683 198.131 200.382 182.479 194.701 180.199Z" fill="#004CBA"/>
<path d="M194.701 180.199C194.701 180.199 188.291 186.187 182.519 193.694C183.43 198.496 184.524 203.237 185.587 207.917C185.891 209.224 186.195 210.531 186.529 211.838L199.683 198.101C199.683 198.131 200.382 182.479 194.701 180.199Z" fill="#051D2E"/>
<path d="M212.26 183.633C211.41 185.912 205.03 188.769 202.6 189.256C200.504 189.651 198.316 188.708 196.858 187.219C195.369 185.73 193.911 183.876 193.881 181.809C193.456 151.113 199.167 144.639 204.331 139.533C208.858 135.065 214.964 135.886 218.397 141.113C222.194 146.918 220.189 154.76 218.67 160.99C216.635 169.379 215.724 174.454 212.26 183.633Z" fill="#0E4066"/>
<path d="M205.881 172.296C211.805 164.06 215.086 154 215.146 143.849C213.172 149.228 209.952 153.605 206.002 157.769C205.395 158.407 204.757 159.045 203.997 159.471C201.84 160.747 199.106 160.443 196.676 159.866C196.129 159.744 195.612 159.592 195.066 159.44C194.64 162.267 194.306 165.549 194.094 169.348C197.921 170.685 201.871 171.628 205.881 172.296Z" fill="#004CBA"/>
<path d="M208.979 200.897C211.228 193.967 212.868 190.198 212.625 182.661C200.99 186.217 193.881 180.199 193.881 180.199C192.058 196.824 191.633 205.76 193.881 222.324C195.187 232.049 205.03 246.212 210.559 254.57C212.959 253.963 214.053 253.476 216.422 252.899C214.357 245.179 210.59 231.198 206.519 224.208C207.491 215.516 206.245 209.346 208.979 200.897Z" fill="#004CBA"/>
<path d="M184.706 122.149C186.59 120.599 190.175 119.748 192.423 120.72C193 120.963 193.607 121.419 193.607 122.057C193.638 122.878 192.757 123.364 191.997 123.638C189.628 124.458 187.106 124.823 184.585 124.732C183.825 124.489 182.823 123.699 184.706 122.149Z" fill="#F98C6E"/>
<path d="M201.476 159.865C202.205 159.926 202.995 159.957 203.663 159.683C204.726 159.288 205.395 158.224 205.941 157.221C207.734 153.878 208.949 150.261 209.557 146.523C209.921 144.244 209.374 141.66 207.643 140.171C203.298 143.636 200.382 148.833 199.744 154.364C198.559 154.334 197.314 154.304 196.098 154.273C195.734 155.823 195.369 157.525 195.096 159.41C197.223 159.592 199.349 159.713 201.476 159.865Z" fill="#004CBA"/>
<path d="M176.777 152.693C176.17 151.873 175.441 151.022 174.438 150.718C173.436 150.414 172.16 150.87 171.917 151.903C171.613 153.362 173.527 154.73 172.949 156.097C172.767 156.492 172.433 156.766 172.22 157.161C171.856 157.89 172.129 158.802 172.706 159.41C173.253 160.018 174.043 160.322 174.803 160.626C175.866 161.051 176.99 161.446 178.114 161.386C178.813 161.355 179.542 161.142 179.997 160.595C180.909 159.562 179.876 158.012 179.39 157.009C178.661 155.489 177.78 154.061 176.777 152.693Z" fill="#F98C6E"/>
<path d="M200.625 157.252C202.691 148.864 202.448 146.828 205.425 141.296C206.397 139.473 208.281 138.196 210.195 137.406C212.108 136.616 214.478 136.707 216.088 138.014C217.334 139.047 217.941 140.688 218.032 142.299C218.124 143.91 217.729 145.521 217.273 147.071C214.114 157.86 212.443 159.41 205.85 168.528C196.858 167.677 184.98 165.823 178.6 162.45C177.294 161.781 177.233 159.562 177.992 158.316C178.843 156.979 180.757 156.948 182.337 157.222C187.319 158.195 193 157.404 200.625 157.252Z" fill="#0E4066"/>
<path d="M165.081 239.891L176.109 242.869L174.924 246.607L164.14 243.751L165.081 239.891Z" fill="#0E4066"/>
<path d="M216.878 249.92L208.919 253.567L210.65 257.153L218.367 253.567L216.878 249.92Z" fill="#0E4066"/>
<path d="M172.798 252.594V250.497C165.932 250.406 159.036 250.315 152.17 250.224C151.957 250.436 151.836 250.68 151.866 250.953C151.927 251.682 152.869 251.895 153.568 251.926C159.978 252.138 166.388 252.382 172.798 252.594Z" fill="#808285"/>
<path d="M200.686 262.776C200.321 262.989 200.017 263.293 200.048 263.688C200.109 264.296 200.899 264.509 201.536 264.509C205.547 264.661 211.896 264.782 217.212 264.934C218.913 264.995 220.25 263.779 220.554 262.29C213.931 262.533 207.309 262.685 200.686 262.776Z" fill="#808285"/>
<path d="M199.106 127.77C198.833 129.958 199.106 133.332 200.564 135.003C201.749 136.341 203.754 136.766 205.516 136.462C207.278 136.158 208.888 135.186 210.316 134.122C212.807 132.298 215.025 130.08 216.848 127.588C218.549 125.247 219.977 122.33 219.126 119.564C218.488 117.558 216.756 116.069 214.873 115.127C212.564 113.972 209.86 113.485 207.4 114.154C201.081 115.765 199.774 122.36 199.106 127.77Z" fill="#F98C6E"/>
<path d="M215.268 126.798C215.693 124.883 215.298 122.817 214.205 121.175C213.111 119.565 211.319 118.41 209.374 118.106C207.643 117.832 205.85 118.197 204.119 118.44C202.387 118.683 200.504 118.805 198.924 118.045C197.526 117.376 196.463 116.1 195.856 114.671C195.248 113.243 195.066 111.662 195.096 110.112C195.126 109.018 195.248 107.924 195.643 106.891C196.038 105.888 196.767 104.946 197.739 104.459C199.045 103.791 200.747 103.973 201.871 104.946C202.995 105.888 203.45 107.559 202.964 108.957C204.149 107.195 205.972 105.888 207.916 105.067C209.131 104.581 210.65 104.368 211.592 105.28C212.169 105.857 212.352 106.769 212.2 107.59C212.048 108.41 211.653 109.14 211.227 109.869C213.081 108.015 215.845 107.134 218.427 107.559C218.731 107.62 219.035 107.681 219.217 107.894C219.582 108.258 219.491 108.866 219.308 109.322C218.822 110.69 217.789 111.845 216.544 112.513C218.488 113.273 220.524 114.124 221.708 115.826C222.65 117.163 222.924 118.866 222.772 120.476C222.529 123.485 220.858 126.373 218.306 127.953C217.729 128.318 217.03 128.622 216.362 128.5C215.724 128.378 215.116 127.467 215.268 126.798Z" fill="#004CBA"/>
<path d="M216.513 125.461C216.939 125.248 217.425 125.096 217.85 125.248C218.336 125.4 218.67 125.917 218.731 126.433C218.792 126.95 218.64 127.467 218.458 127.953C217.789 129.564 216.483 130.931 214.873 131.661C214.539 131.813 214.144 131.934 213.84 131.752C212.989 131.205 213.263 128.926 213.627 128.105C214.144 126.98 215.45 125.977 216.513 125.461Z" fill="#F98C6E"/>
<path d="M208.098 123.941C207.703 124.944 206.944 125.551 206.397 125.339C205.85 125.126 205.759 124.153 206.154 123.15C206.549 122.147 207.309 121.54 207.855 121.752C208.372 121.965 208.493 122.938 208.098 123.941Z" fill="#004CBA"/>
<path d="M202.448 123.941C202.053 124.944 201.293 125.551 200.747 125.339C200.2 125.126 200.109 124.153 200.504 123.15C200.899 122.147 201.658 121.54 202.205 121.752C202.721 121.965 202.843 122.938 202.448 123.941Z" fill="#004CBA"/>
<path d="M201.688 127.376C201.476 127.467 201.233 127.497 201.02 127.649C200.807 127.771 200.655 128.014 200.686 128.227C200.716 128.47 200.959 128.622 201.172 128.713C201.901 129.017 202.782 128.774 203.329 128.196C203.876 127.619 204.088 126.798 203.936 126.008C203.906 125.795 203.724 125.339 203.42 125.491C203.207 125.613 203.146 126.069 203.025 126.282C202.752 126.798 202.235 127.193 201.688 127.376Z" fill="#D1684B"/>
<path d="M205.425 131.509C205.212 131.509 205 131.478 204.787 131.448C204.605 131.417 204.483 131.235 204.544 131.053C204.574 130.87 204.757 130.749 204.939 130.81C205.516 130.931 206.154 130.84 206.64 130.506C207.126 130.171 207.491 129.624 207.582 129.047C207.612 128.864 207.795 128.743 207.977 128.773C208.159 128.804 208.281 128.986 208.25 129.168C208.129 129.928 207.643 130.627 207.005 131.053C206.549 131.357 206.002 131.509 205.425 131.509Z" fill="#D1684B"/>
<path d="M165.233 76.7725C163.654 78.4745 160.403 80.6627 158.185 81.3618C152.717 89.9325 156.97 91.0267 161.405 88.5953C163.167 87.6227 164.929 86.6501 166.691 85.6776C166.995 85.5256 167.299 85.3432 167.451 85.0393C167.694 84.6138 167.542 84.0667 167.36 83.6108C166.631 81.453 166.935 78.2617 165.233 76.7725Z" fill="#E67A5C"/>
<path d="M144.514 147.314C143.421 148.864 142.418 150.505 141.568 152.207C141.385 152.572 141.203 152.967 141.325 153.362C141.446 153.727 141.811 153.97 142.175 154.031C142.54 154.122 142.935 154.061 143.299 154C142.783 155.884 142.084 158.924 142.175 159.38C142.236 159.836 142.601 160.261 143.026 160.291C143.573 160.322 145.031 158.255 146.216 156.188C147.066 155.854 147.947 155.459 148.707 154.942C149.466 154.426 150.135 153.696 150.408 152.815C150.833 151.478 150.347 150.019 149.557 148.864C149.071 148.165 148.464 147.526 147.704 147.101C147.006 146.675 145.365 147.131 144.514 147.314Z" fill="#F98C6E"/>
<path d="M164.322 91.7563C165.537 111.42 159.005 132.908 150.104 150.627C147.795 150.87 145.699 150.718 143.512 149.958C144.606 134.519 147.674 119.292 151.684 104.339C152.352 101.816 153.112 99.1721 154.813 97.1662C156.484 95.1299 161.922 90.7229 164.322 91.7563Z" fill="#1C75BC"/>
<path d="M173.982 90.6013C172.129 91.9993 168.818 93.5494 166.418 93.1847C164.474 92.8807 162.864 91.4219 162.104 89.7503C161.345 88.0787 161.284 86.2247 161.405 84.4315C161.618 81.3619 162.347 78.2922 163.562 75.4353C164.717 72.7607 166.57 69.995 169.638 69.2655C171.886 68.7185 174.317 69.4175 176.322 70.5116C178.752 71.8489 180.818 73.8852 181.699 76.347C183.947 82.5776 178.6 87.1669 173.982 90.6013Z" fill="#F98C6E"/>
<path d="M163.471 75.648C167.177 76.7118 170.033 76.1647 171.886 72.5784C172.798 76.803 180.787 91.1788 188.504 84.2796C184.706 82.3344 184.919 78.353 183.673 74.4627C183.157 72.9127 182.397 71.393 181.152 70.2381C179.906 69.0832 178.084 68.3538 176.352 68.5665C177.385 68.2018 178.357 67.7459 179.268 67.1988C179.572 67.0165 179.906 66.7733 179.937 66.439C179.967 65.9527 179.329 65.6488 178.813 65.588C177.446 65.3753 176.018 65.7704 174.985 66.5606C174.62 65.1625 173.648 63.9164 172.311 63.1262C171.977 62.9438 171.613 62.7615 171.218 62.7311C170.823 62.7007 170.398 62.8223 170.215 63.1262C170.033 63.3997 170.063 63.7341 170.094 64.038C170.276 65.1929 170.853 66.3174 171.704 67.1988C169.152 66.8037 166.6 68.141 165.02 69.995C163.441 71.8489 162.681 74.1284 161.922 76.3775C162.317 76.2255 163.107 75.7392 163.471 75.648Z" fill="#004CBA"/>
<path d="M165.75 74.6142C165.689 74.1583 165.537 73.672 165.142 73.3681C164.686 73.0338 164.018 73.0338 163.501 73.2465C162.985 73.4593 162.59 73.8544 162.256 74.2799C161.162 75.7083 160.676 77.5319 160.95 79.2643C161.01 79.629 161.132 80.0241 161.496 80.1761C162.499 80.6016 164.443 79.1731 164.99 78.4437C165.75 77.4103 165.901 75.7995 165.75 74.6142Z" fill="#F98C6E"/>
<path d="M172.19 80.9362C171.491 81.7872 171.37 82.7598 171.886 83.1245C172.403 83.4892 173.375 83.0333 174.074 82.1823C174.772 81.3313 174.894 80.3588 174.377 79.9941C173.83 79.6597 172.858 80.0852 172.19 80.9362Z" fill="#004CBA"/>
<path d="M175.532 85.7389C174.833 86.5899 174.712 87.5624 175.228 87.9272C175.744 88.2919 176.717 87.836 177.415 86.985C178.114 86.134 178.236 85.1614 177.719 84.7967C177.203 84.432 176.231 84.8575 175.532 85.7389Z" fill="#004CBA"/>
<path d="M172.798 88.2003C172.858 88.4434 172.95 88.6562 172.95 88.8993C172.95 89.1424 172.828 89.3856 172.585 89.4768C172.342 89.5679 172.069 89.4768 171.825 89.3248C171.127 88.8689 170.823 87.9875 171.005 87.2277C171.188 86.4679 171.856 85.8296 172.676 85.5561C172.919 85.4649 173.436 85.3737 173.466 85.7081C173.466 85.9512 173.071 86.2551 172.98 86.4679C172.706 87.0149 172.646 87.6532 172.798 88.2003Z" fill="#D1684B"/>
<path d="M166.752 87.2282C166.874 87.4106 167.026 87.5626 167.177 87.7145C167.329 87.8361 167.572 87.8361 167.694 87.7145C167.846 87.5929 167.846 87.3802 167.694 87.2282C167.238 86.8027 166.965 86.1949 166.965 85.6174C166.965 85.04 167.269 84.4321 167.755 84.037C167.907 83.9154 167.907 83.7027 167.785 83.5507C167.633 83.3987 167.42 83.3987 167.269 83.5203C166.631 84.037 166.266 84.7968 166.236 85.587C166.205 86.1645 166.388 86.742 166.752 87.2282Z" fill="#D1684B"/>
<path d="M93.0216 223.296C94.5709 223.083 96.1203 222.871 97.6392 223.114C99.1582 223.357 100.708 224.117 101.497 225.424C102.47 227.034 102.227 229.101 101.71 230.925C100.738 234.42 99.0367 237.672 97.3051 240.863C93.2342 248.34 88.9811 255.664 84.6976 263.019C83.3913 263.019 81.8724 263.171 80.6572 262.776C79.442 262.351 78.2876 261.469 77.9534 260.223C77.7104 259.342 77.8927 258.4 78.075 257.518C79.6243 249.555 81.1736 241.562 82.7534 233.599C83.2698 231.016 83.8167 228.341 85.4268 226.275C87.0369 224.208 90.7128 222.05 93.0216 223.296Z" fill="#004CBA"/>
<path d="M98.3987 238.857C98.2468 238.614 98.0949 238.371 97.9734 238.128C96.3633 234.997 95.3911 231.563 95.1481 228.068C95.0266 226.396 95.0873 224.725 95.2696 223.053C94.5101 223.114 93.7506 223.205 93.0215 223.296C92.6874 223.114 92.3228 223.023 91.9279 222.962C90.6519 223.296 89.376 223.631 88.1001 223.995C87.0064 224.634 86.0647 225.454 85.4267 226.275C84.2723 227.734 83.6951 229.527 83.2394 231.35C84.1811 232.657 85.0925 233.995 86.0039 235.301C88.5861 238.949 91.5633 242.322 94.8747 245.331C95.6949 243.842 96.5151 242.353 97.3354 240.863C97.6999 240.195 98.0645 239.526 98.3987 238.857Z" fill="#051D2E"/>
<path d="M93.295 243.416C91.8975 241.167 90.5001 238.918 88.7685 236.942C87.2799 235.24 85.0622 233.629 82.8749 234.328C82.7837 234.359 82.6926 234.42 82.5711 234.45C81.8116 238.28 81.0825 242.109 80.323 245.939C80.7179 246.03 81.1129 246.151 81.4167 246.303C83.8166 247.489 85.609 249.798 86.6115 252.23C87.3102 253.901 87.6748 255.664 87.9482 257.488C90.1963 253.598 92.4444 249.677 94.6317 245.726C94.2064 244.936 93.7507 244.176 93.295 243.416Z" fill="#051D2E"/>
<path d="M46.2374 195.729C55.8676 206.823 66.9257 216.67 79.0471 224.967C77.8927 226.426 76.6167 228.007 74.7636 228.25C73.2446 228.432 71.8168 227.672 70.4801 226.913C64.4346 223.478 58.3284 219.983 53.4677 215.029C48.6374 210.105 45.8425 202.659 46.2374 195.729Z" fill="#8DC63F"/>
<path d="M46.2374 195.729C45.8121 202.659 48.6374 210.105 53.4981 215.059C55.0474 216.64 56.7486 218.068 58.5106 219.375C58.541 218.068 58.5714 216.761 58.541 215.424C58.5106 212.962 58.3587 210.531 58.1461 208.069C53.9537 204.179 50.0044 200.045 46.2374 195.729Z" fill="#7CB332"/>
<path d="M34.9362 192.599C31.5945 193.875 28.2832 195.213 25.0326 196.641C23.8174 197.188 22.5415 197.766 21.9035 198.799C21.0529 200.167 21.5086 201.838 22.025 203.358C26.2174 216.032 30.8958 228.584 36.0603 241.015C36.3945 241.805 40.7691 252.685 41.5893 252.807C46.1158 253.506 47.0576 243.355 51.5841 243.021C52.8297 242.929 54.1056 242.777 55.0777 242.139C56.2929 241.349 56.7486 239.951 57.0524 238.674C58.5106 232.839 53.0423 203.358 49.336 197.766C45.6905 192.204 41.6805 190.076 34.9362 192.599Z" fill="#8DC63F"/>
<path d="M55.1689 229.648C55.7157 229.83 56.3537 230.013 56.9613 230.013C56.6879 227.399 56.2626 224.481 55.7765 221.442C52.7689 221.016 49.8525 220.226 47.0272 219.102C45.3564 218.433 43.7159 217.673 42.1058 216.822C36.6679 213.935 31.7768 210.136 27.1288 206.154C28.9212 209.498 30.7439 212.841 33.2958 215.667C35.5742 218.19 38.3388 220.196 41.1337 222.08C45.5387 225.059 50.1259 227.885 55.1689 229.648Z" fill="#7CB332"/>
<path d="M37.9134 186.612C37.3058 189.195 37.2146 191.9 37.6399 194.514C37.8526 195.821 36.7893 196.976 35.483 196.884C34.4501 196.793 33.3868 196.672 32.3539 196.428C31.959 196.337 31.5337 196.216 31.2299 195.942C30.8046 195.547 30.6831 194.97 30.5919 194.392C30.1666 191.839 29.7413 189.317 29.316 186.764C29.1945 186.034 29.073 185.244 29.4679 184.606C29.954 183.755 31.1084 183.542 32.0805 183.512C33.1438 183.481 34.2678 183.542 35.24 183.967C36.2425 184.454 38.1564 185.548 37.9134 186.612Z" fill="#E67A5C"/>
<path d="M45.2045 180.108C45.8425 182.357 46.1159 186.004 44.9007 188.101C43.9286 189.833 41.9843 190.775 40.1616 190.897C38.3388 191.019 36.5768 190.411 34.9363 189.651C32.1414 188.344 29.5592 186.581 27.3111 184.423C25.2149 182.387 23.301 179.652 23.7264 176.521C24.0301 174.242 25.5491 172.205 27.2807 170.747C29.4073 168.953 32.0503 167.768 34.6325 167.798C41.2552 167.95 43.6552 174.576 45.2045 180.108Z" fill="#F98C6E"/>
<path d="M35.5439 178.345C36.0907 179.287 36.9717 179.773 37.4578 179.408C37.9742 179.044 37.9134 177.98 37.3666 177.038C36.8198 176.096 35.9388 175.609 35.4527 175.974C34.9363 176.339 34.997 177.402 35.5439 178.345Z" fill="#004CBA"/>
<path d="M41.1945 176.917C41.7413 177.859 42.6223 178.345 43.1084 177.981C43.6248 177.616 43.5641 176.552 43.0173 175.61C42.4704 174.668 41.5894 174.182 41.1034 174.546C40.6173 174.911 40.6477 175.975 41.1945 176.917Z" fill="#004CBA"/>
<path d="M42.5615 180.351C42.8045 180.381 43.0475 180.381 43.2602 180.442C43.4728 180.533 43.6855 180.715 43.6855 180.989C43.6855 181.263 43.4728 181.475 43.2602 181.627C42.5615 182.114 41.6501 182.083 41.0121 181.627C40.3741 181.171 40.0096 180.32 40.04 179.469C40.04 179.226 40.1311 178.71 40.4653 178.801C40.6779 178.861 40.8298 179.348 40.9817 179.53C41.3767 180.047 41.9539 180.29 42.5615 180.351Z" fill="#D1684B"/>
<path d="M39.4628 185.699C39.6755 185.638 39.8881 185.577 40.0704 185.456C40.2527 185.365 40.3438 185.152 40.2527 184.969C40.1919 184.787 39.9792 184.696 39.797 184.818C39.2501 185.091 38.5818 185.152 38.035 184.909C37.4881 184.696 37.0324 184.21 36.8502 183.632C36.7894 183.45 36.5768 183.359 36.3945 183.45C36.2122 183.541 36.1211 183.754 36.1818 183.936C36.4552 184.696 37.0325 185.334 37.7312 185.638C38.3084 185.79 38.8856 185.82 39.4628 185.699Z" fill="#D1684B"/>
<path d="M27.9186 184.94C29.0426 183.573 29.711 181.81 29.7717 180.047C29.8325 178.284 29.316 176.461 28.3135 175.002C32.2628 174.455 35.9995 173.482 39.7058 172.084C41.3159 171.476 43.0171 170.716 43.7766 169.166C44.3538 168.042 44.2931 166.674 44.0196 165.459C43.169 161.72 40.3134 158.772 37.3362 156.371C37.8526 157.952 38.3995 159.532 38.9159 161.112C37.4273 159.532 35.6653 158.225 33.721 157.283C34.7843 159.41 35.6349 161.659 36.2729 163.939C32.597 163.605 28.7388 164 25.4882 165.762C22.268 167.525 19.7466 170.899 19.6858 174.576C19.6554 176.886 20.5668 179.135 21.9946 180.928C23.4528 182.722 25.8528 183.907 27.9186 184.94Z" fill="#004CBA"/>
<path d="M27.311 182.113C26.8553 182.022 26.3388 181.961 25.9135 182.235C25.4275 182.539 25.1844 183.146 25.2148 183.724C25.2148 184.301 25.4579 184.818 25.7313 185.274C26.673 186.824 28.192 187.918 29.9236 188.283C30.2882 188.344 30.7135 188.374 30.9869 188.1C31.7464 187.31 31.1084 184.97 30.6223 184.21C29.954 183.116 28.4958 182.356 27.311 182.113Z" fill="#F98C6E"/>
<path d="M27.5845 219.253C32.4148 223.204 37.5489 226.79 43.1387 229.556C47.6045 231.775 52.4044 233.446 57.3259 234.297C57.2348 232.443 57.0525 230.194 56.7183 227.763C54.531 226.973 52.3741 226.152 50.2475 225.21C40.7995 221.107 31.9288 215.666 23.9998 209.102C25.1542 212.506 26.339 215.879 27.5845 219.253Z" fill="#7CB332"/>
<path d="M31.9288 204.848C33.387 210.835 38.5211 215.85 44.6273 219.041C50.7336 222.233 57.7816 223.874 64.7992 225.181C65.2245 225.789 65.4676 226.336 65.6195 227.035C65.7714 227.734 65.5587 228.494 64.9207 228.919C64.3739 229.253 63.6752 229.314 62.9764 229.314C54.0753 229.466 45.1134 227.126 37.8224 222.719C30.5313 218.342 24.9415 211.929 22.0555 204.726C21.6302 203.663 21.2352 202.538 21.296 201.383C21.3264 200.259 21.8428 199.073 22.9061 198.374C24.6681 197.25 27.3415 197.827 28.8908 199.165C30.4706 200.502 31.4731 202.994 31.9288 204.848Z" fill="#8DC63F"/>
<path d="M98.7025 217.036C99.0063 218.312 98.9456 221.929 99.219 223.57C86.8242 228.068 73.913 229.831 60.6676 233.539C58.5714 234.116 56.4753 234.724 54.3791 235.302C53.6196 235.514 52.769 235.727 52.0703 235.362C51.3715 234.998 51.1589 233.782 51.888 233.478C65.346 227.977 78.2876 221.078 92.1102 216.549C93.1431 216.215 94.2064 215.881 95.3001 215.85C96.3937 215.79 98.4595 215.941 98.7025 217.036Z" fill="#92C6F0"/>
<path d="M67.3206 202.537L99.462 197.796C101.072 197.553 102.439 198.981 102.135 200.561C100.738 208.16 99.7354 215.849 99.219 223.538C87.8571 225.058 76.9509 226.426 63.827 228.401C64.708 219.527 65.103 212.475 65.3156 204.816C65.346 203.661 66.1966 202.689 67.3206 202.537Z" fill="#92C6F0"/>
<path d="M88.1305 213.721C87.7355 215.94 85.9432 217.46 84.09 217.125C82.2369 216.791 81.0521 214.755 81.447 212.536C81.842 210.317 83.6343 208.798 85.4875 209.132C87.3102 209.466 88.5254 211.533 88.1305 213.721Z" fill="#A6D7FF"/>
<path d="M45.2044 256.363C49.1234 257.761 53.8322 257.396 57.7815 256.12C66.8953 253.141 74.1863 246.303 81.1128 239.677C85.9127 246.607 91.7456 253.293 96.5759 260.223C97.6088 261.712 98.7328 263.292 100.434 263.931C102.135 264.569 106.48 259.341 106.267 257.943C106.054 256.545 105.416 255.269 104.748 254.053C100.738 246.576 96.1506 239.404 91.3203 232.413C89.4975 229.769 87.4013 227.003 84.3634 226.031C81.1736 225.028 77.7711 226.274 74.642 227.459C64.5561 231.258 56.4144 232.474 45.2348 235.969C32.3843 239.981 38.8551 254.083 45.2044 256.363Z" fill="#004CBA"/>
<path d="M119.603 261.348C120.059 261.439 120.576 261.591 120.667 262.047C120.788 262.564 120.211 262.959 119.695 263.172C114.682 265.269 109.214 266.029 103.806 266.758C103.138 266.849 102.409 266.94 101.801 266.636C101.072 266.302 100.677 265.542 100.343 264.813C100.009 264.053 99.7657 263.232 99.8872 262.442C100.07 261.318 101.011 260.467 102.014 259.889C102.773 259.464 104.049 258.643 104.961 258.613C105.933 258.582 107.148 259.038 108.12 259.19C110.581 259.616 113.072 260.072 115.533 260.558C116.9 260.831 118.267 261.075 119.603 261.348Z" fill="white"/>
<path d="M76.2219 263.657C76.0092 264.386 75.8269 265.207 76.1307 265.906C76.4041 266.544 77.0117 266.97 77.6497 267.182C78.2877 267.395 78.9864 267.426 79.6547 267.456C83.3003 267.578 86.9154 267.578 90.5609 267.578C91.5938 267.578 92.5963 267.578 93.5989 267.395C94.1761 267.304 94.8444 266.97 94.7836 266.392C94.7229 265.997 94.328 265.754 93.933 265.602C91.1989 264.356 88.4344 263.201 85.6395 262.137C84.2116 261.59 82.7838 261.043 81.356 260.557C80.5357 260.283 79.0168 259.372 78.1054 259.736C77.0421 260.192 76.5257 262.654 76.2219 263.657Z" fill="white"/>
</svg>
