<svg width="44" height="44" viewBox="0 0 44 44" fill="none" xmlns="http://www.w3.org/2000/svg">
<rect width="44" height="44" rx="22" fill="#E7E7E7"/>
<path d="M30 22V28C30 30.21 28.21 32 26 32H18C15.79 32 14 30.21 14 28V22C14 21.45 14.45 21 15 21H16.97C17.52 21 17.97 21.45 17.97 22V25.14C17.97 25.88 18.38 26.56 19.03 26.91C19.32 27.07 19.64 27.15 19.97 27.15C20.35 27.15 20.73 27.04 21.06 26.82L22.01 26.2L22.89 26.79C23.5 27.2 24.28 27.25 24.93 26.9C25.59 26.55 26 25.88 26 25.13V22C26 21.45 26.45 21 27 21H29C29.55 21 30 21.45 30 22Z" fill="#242424"/>
<path d="M31.5 17V18C31.5 19.1 30.97 20 29.5 20H14.5C12.97 20 12.5 19.1 12.5 18V17C12.5 15.9 12.97 15 14.5 15H29.5C30.97 15 31.5 15.9 31.5 17Z" fill="#242424"/>
<path d="M21.6398 15.0004H16.1198C15.7798 14.6304 15.7898 14.0604 16.1498 13.7004L17.5698 12.2804C17.9398 11.9104 18.5498 11.9104 18.9198 12.2804L21.6398 15.0004Z" fill="#242424"/>
<path d="M27.8701 15.0004H22.3501L25.0701 12.2804C25.4401 11.9104 26.0501 11.9104 26.4201 12.2804L27.8401 13.7004C28.2001 14.0604 28.2101 14.6304 27.8701 15.0004Z" fill="#242424"/>
<path d="M23.9699 21C24.5199 21 24.9699 21.45 24.9699 22V25.13C24.9699 25.93 24.0799 26.41 23.4199 25.96L22.5199 25.36C22.1899 25.14 21.7599 25.14 21.4199 25.36L20.4799 25.98C19.8199 26.42 18.9399 25.94 18.9399 25.15V22C18.9399 21.45 19.3899 21 19.9399 21H23.9699Z" fill="#242424"/>
</svg>
