<svg width="40" height="40" viewBox="0 0 40 40" fill="none" xmlns="http://www.w3.org/2000/svg">
<rect width="40" height="40" rx="20" fill="#ECF4FF"/>
<path opacity="0.4" d="M23.4916 11.667H16.5083C13.475 11.667 11.6666 13.4753 11.6666 16.5087V23.4837C11.6666 26.5253 13.475 28.3337 16.5083 28.3337H23.4833C26.5166 28.3337 28.325 26.5253 28.325 23.492V16.5087C28.3333 13.4753 26.525 11.667 23.4916 11.667Z" fill="#348CFF"/>
<path d="M20 18.9082C19.4 18.9082 18.9083 19.3999 18.9083 19.9999C18.9083 20.5999 19.4 21.0915 20 21.0915C20.6 21.0915 21.0917 20.5999 21.0917 19.9999C21.0917 19.3999 20.6 18.9082 20 18.9082Z" fill="#348CFF"/>
<path d="M15.8334 18.9082C15.2334 18.9082 14.7417 19.3999 14.7417 19.9999C14.7417 20.5999 15.2334 21.0915 15.8334 21.0915C16.4334 21.0915 16.925 20.5999 16.925 19.9999C16.925 19.3999 16.4334 18.9082 15.8334 18.9082Z" fill="#348CFF"/>
<path d="M24.1666 18.9082C23.5666 18.9082 23.075 19.3999 23.075 19.9999C23.075 20.5999 23.5666 21.0915 24.1666 21.0915C24.7666 21.0915 25.2583 20.5999 25.2583 19.9999C25.2583 19.3999 24.7666 18.9082 24.1666 18.9082Z" fill="#348CFF"/>
</svg>
