<svg width="22" height="22" viewBox="0 0 22 22" fill="none" xmlns="http://www.w3.org/2000/svg">
<path d="M18.75 10.5418C18.75 15.0752 15.075 18.7502 10.5417 18.7502C6.00837 18.7502 2.33337 15.0752 2.33337 10.5418C2.33337 6.00849 6.00837 2.3335 10.5417 2.3335C15.075 2.3335 18.75 6.00849 18.75 10.5418Z" stroke="#7D7D7D"/>
<path d="M19.525 20.1665C19.36 20.1665 19.195 20.1023 19.0758 19.9832L17.3708 18.2782C17.1233 18.0307 17.1233 17.6274 17.3708 17.3707C17.6183 17.1232 18.0216 17.1232 18.2783 17.3707L19.9833 19.0757C20.2308 19.3232 20.2308 19.7265 19.9833 19.9832C19.855 20.1023 19.69 20.1665 19.525 20.1665Z" fill="#7D7D7D"/>
</svg>
