<svg width="25" height="24" viewBox="0 0 25 24" fill="none" xmlns="http://www.w3.org/2000/svg">
<path d="M20.35 9.22043C18.54 9.22043 17.8 7.94042 18.7 6.37042C19.22 5.46042 18.91 4.30042 18 3.78042L16.27 2.79042C15.48 2.32042 14.46 2.60042 13.99 3.39042L13.88 3.58042C12.98 5.15042 11.5 5.15042 10.59 3.58042L10.48 3.39042C10.03 2.60042 9.01 2.32042 8.22 2.79042L6.49 3.78042C5.58 4.30042 5.27 5.47042 5.79 6.38042C6.7 7.94042 5.96 9.22043 4.15 9.22043C3.11 9.22043 2.25 10.0704 2.25 11.1204V12.8804C2.25 13.9204 3.1 14.7804 4.15 14.7804C5.96 14.7804 6.7 16.0604 5.79 17.6304C5.27 18.5404 5.58 19.7004 6.49 20.2204L8.22 21.2104C9.01 21.6804 10.03 21.4004 10.5 20.6104L10.61 20.4204C11.51 18.8504 12.99 18.8504 13.9 20.4204L14.01 20.6104C14.48 21.4004 15.5 21.6804 16.29 21.2104L18.02 20.2204C18.93 19.7004 19.24 18.5304 18.72 17.6304C17.81 16.0604 18.55 14.7804 20.36 14.7804C21.4 14.7804 22.26 13.9304 22.26 12.8804V11.1204C22.25 10.0804 21.4 9.22043 20.35 9.22043ZM12.25 15.2504C10.46 15.2504 9 13.7904 9 12.0004C9 10.2104 10.46 8.75042 12.25 8.75042C14.04 8.75042 15.5 10.2104 15.5 12.0004C15.5 13.7904 14.04 15.2504 12.25 15.2504Z" fill="#0F70FF"/>
</svg>
