<svg width="40" height="40" viewBox="0 0 40 40" fill="none" xmlns="http://www.w3.org/2000/svg">
<rect width="40" height="40" rx="20" fill="#FFE7DB"/>
<path d="M20 11.667C17.8166 11.667 16.0416 13.442 16.0416 15.6253C16.0416 17.767 17.7166 19.5003 19.9 19.5753C19.9666 19.567 20.0333 19.567 20.0833 19.5753C20.1 19.5753 20.1083 19.5753 20.125 19.5753C20.1333 19.5753 20.1333 19.5753 20.1416 19.5753C22.275 19.5003 23.95 17.767 23.9583 15.6253C23.9583 13.442 22.1833 11.667 20 11.667Z" fill="#FF9F71"/>
<path d="M24.2333 21.7914C21.9083 20.2414 18.1166 20.2414 15.775 21.7914C14.7166 22.4997 14.1333 23.4581 14.1333 24.4831C14.1333 25.5081 14.7166 26.4581 15.7666 27.1581C16.9333 27.9414 18.4666 28.3331 20 28.3331C21.5333 28.3331 23.0666 27.9414 24.2333 27.1581C25.2833 26.4497 25.8666 25.4997 25.8666 24.4664C25.8583 23.4414 25.2833 22.4914 24.2333 21.7914Z" fill="#FF9F71"/>
</svg>
