<svg width="100" height="95" viewBox="0 0 100 95" fill="none" xmlns="http://www.w3.org/2000/svg">
<g clip-path="url(#clip0_1201_3752)">
<path d="M60.1786 0C44.7552 0 32.1969 12.5082 32.1969 27.884V30.6049H39.9378V27.884C39.9378 16.7558 49.019 7.7026 60.1884 7.7026C71.3577 7.7026 80.4389 16.7558 80.4389 27.884V53.3701H88.1798V27.884C88.1798 12.5082 75.6312 0 60.1981 0H60.1786Z" fill="#72716F"/>
<path d="M97.0085 41.2729H23.3586C21.6977 41.2729 20.3574 42.6138 20.3574 44.2581V91.9417C20.3574 93.5958 21.6977 94.9269 23.3586 94.9269H97.0085C98.6694 94.9269 100.01 93.586 100.01 91.9417V44.2679C100.01 42.6138 98.6694 41.2827 97.0085 41.2827V41.2729Z" fill="#F2CB30"/>
<path d="M80.4292 41.2728C80.4292 41.2728 87.0726 33.0123 87.8981 24.1255V41.2728H80.4292Z" fill="#5C5A5A"/>
<path d="M100 91.9514V62.7363C75.7381 83.1918 40.7537 90.8748 20.9304 93.6935C21.4743 94.4472 22.3582 94.9365 23.3585 94.9365H97.0085C98.6693 94.9365 100.01 93.5956 100.01 91.9514H100Z" fill="#EAB531"/>
<path d="M66.7638 60.0253C66.7638 56.404 63.8209 53.4678 60.1787 53.4678C56.5365 53.4678 53.5936 56.404 53.5936 60.0253C53.5936 62.1785 54.6426 64.0968 56.2646 65.2908L54.1667 80.1186H66.181L64.0831 65.2908C65.6954 64.0968 66.7541 62.1882 66.7541 60.0253H66.7638Z" fill="#72716F"/>
<path d="M54.1764 80.1188C54.1764 80.1188 63.5684 76.5366 64.258 66.397L66.2005 80.1188H54.1861H54.1764Z" fill="#5C5A5A"/>
<path d="M33.1352 64.1159C40.2243 56.9722 40.2243 45.3901 33.1352 38.2464C26.0462 31.1028 14.5525 31.1028 7.46345 38.2464C0.374384 45.3901 0.374384 56.9722 7.46345 64.1159C14.5525 71.2595 26.0461 71.2595 33.1352 64.1159Z" fill="#16AD64"/>
<path d="M20.2992 69.862C10.0816 69.862 1.7677 61.484 1.7677 51.1878C1.7677 40.8916 10.0816 32.5137 20.2992 32.5137C30.5167 32.5137 38.8306 40.8916 38.8306 51.1878C38.8306 61.484 30.5167 69.862 20.2992 69.862ZM20.2992 33.2869C10.4992 33.2869 2.53499 41.3222 2.53499 51.1878C2.53499 61.0534 10.509 69.0888 20.2992 69.0888C30.0894 69.0888 38.0634 61.0534 38.0634 51.1878C38.0634 41.3222 30.0894 33.2869 20.2992 33.2869Z" fill="white"/>
<path d="M16.5113 61.073L8.77039 53.2726L11.5579 50.4734L16.5113 55.4649L29.0113 42.8589L31.789 45.6678L16.5113 61.073Z" fill="white"/>
<path d="M16.5112 61.7288L8.11963 53.2726L11.5579 49.8078L16.5112 54.7994L29.0112 42.2031L32.4495 45.6678L16.5015 61.7386L16.5112 61.7288ZM9.44053 53.2726L16.5112 60.3977L31.1383 45.658L29.0112 43.5146L16.5112 56.1109L11.5579 51.1193L9.43082 53.2628L9.44053 53.2726Z" fill="white"/>
</g>
<defs>
<clipPath id="clip0_1201_3752">
<rect width="100" height="94.9367" fill="white"/>
</clipPath>
</defs>
</svg>
