<svg width="41" height="40" viewBox="0 0 41 40" fill="none" xmlns="http://www.w3.org/2000/svg">
<rect x="0.666656" width="40" height="40" rx="20" fill="white"/>
<path d="M18.1666 11.667C15.9833 11.667 14.2083 13.442 14.2083 15.6253C14.2083 17.767 15.8833 19.5003 18.0666 19.5753C18.1333 19.567 18.2 19.567 18.25 19.5753C18.2666 19.5753 18.275 19.5753 18.2916 19.5753C18.3 19.5753 18.3 19.5753 18.3083 19.5753C20.4416 19.5003 22.1166 17.767 22.125 15.6253C22.125 13.442 20.35 11.667 18.1666 11.667Z" fill="#E0B315"/>
<path d="M22.4 21.7914C20.075 20.2414 16.2833 20.2414 13.9417 21.7914C12.8833 22.4997 12.3 23.4581 12.3 24.4831C12.3 25.5081 12.8833 26.4581 13.9333 27.1581C15.1 27.9414 16.6333 28.3331 18.1667 28.3331C19.7 28.3331 21.2333 27.9414 22.4 27.1581C23.45 26.4497 24.0333 25.4997 24.0333 24.4664C24.025 23.4414 23.45 22.4914 22.4 21.7914Z" fill="#E0B315"/>
<path d="M27.325 16.1171C27.4583 17.7337 26.3083 19.1504 24.7167 19.3421C24.7083 19.3421 24.7083 19.3421 24.7 19.3421H24.675C24.625 19.3421 24.575 19.3421 24.5333 19.3587C23.725 19.4004 22.9833 19.1421 22.425 18.6671C23.2833 17.9004 23.775 16.7504 23.675 15.5004C23.6167 14.8254 23.3833 14.2087 23.0333 13.6837C23.35 13.5254 23.7167 13.4254 24.0917 13.3921C25.725 13.2504 27.1833 14.4671 27.325 16.1171Z" fill="#E0B315"/>
<path d="M28.9916 23.8247C28.925 24.633 28.4083 25.333 27.5416 25.808C26.7083 26.2663 25.6583 26.483 24.6166 26.458C25.2166 25.9163 25.5666 25.2413 25.6333 24.5247C25.7166 23.4913 25.225 22.4997 24.2416 21.708C23.6833 21.2663 23.0333 20.9163 22.325 20.658C24.1666 20.1247 26.4833 20.483 27.9083 21.633C28.675 22.2497 29.0666 23.0247 28.9916 23.8247Z" fill="#E0B315"/>
</svg>
