<svg width="40" height="40" viewBox="0 0 40 40" fill="none" xmlns="http://www.w3.org/2000/svg">
<rect width="40" height="40" rx="20" fill="white"/>
<path d="M27.625 15.1413C27.2833 14.958 26.5667 14.7663 25.5917 15.4497L24.3667 16.3163C24.275 13.7247 23.15 12.708 20.4167 12.708H15.4167C12.5667 12.708 11.4583 13.8163 11.4583 16.6663V23.333C11.4583 25.2497 12.5 27.2913 15.4167 27.2913H20.4167C23.15 27.2913 24.275 26.2747 24.3667 23.683L25.5917 24.5497C26.1083 24.9163 26.5583 25.033 26.9167 25.033C27.225 25.033 27.4667 24.9413 27.625 24.858C27.9667 24.683 28.5417 24.208 28.5417 23.0163V16.983C28.5417 15.7913 27.9667 15.3163 27.625 15.1413ZM19.1667 19.483C18.3083 19.483 17.6 18.783 17.6 17.9163C17.6 17.0497 18.3083 16.3497 19.1667 16.3497C20.025 16.3497 20.7333 17.0497 20.7333 17.9163C20.7333 18.783 20.025 19.483 19.1667 19.483Z" fill="#FF7C3C"/>
</svg>
