<svg width="29" height="24" viewBox="0 0 29 24" fill="none" xmlns="http://www.w3.org/2000/svg">
<path d="M26.5 14.6C26.5 15.2 25.3 15.6 23.9 15.8C23 14.1 21.2 12.8 19.1 11.9C19.3 11.6 19.5 11.4 19.7 11.1H20.5C23.6 11 26.5 12.9 26.5 14.6ZM9.3 11H8.5C5.4 11 2.5 12.9 2.5 14.6C2.5 15.2 3.7 15.6 5.1 15.8C6 14.1 7.8 12.8 9.9 11.9L9.3 11ZM14.5 12C16.7 12 18.5 10.2 18.5 8C18.5 5.8 16.7 4 14.5 4C12.3 4 10.5 5.8 10.5 8C10.5 10.2 12.3 12 14.5 12ZM14.5 13C10.4 13 6.5 15.6 6.5 18C6.5 20 14.5 20 14.5 20C14.5 20 22.5 20 22.5 18C22.5 15.6 18.6 13 14.5 13ZM20.2 10H20.5C22.2 10 23.5 8.7 23.5 7C23.5 5.3 22.2 4 20.5 4C20 4 19.6 4.1 19.2 4.3C20 5.3 20.5 6.6 20.5 8C20.5 8.7 20.4 9.4 20.2 10ZM8.5 10H8.8C8.6 9.4 8.5 8.7 8.5 8C8.5 6.6 9 5.3 9.8 4.3C9.4 4.1 9 4 8.5 4C6.8 4 5.5 5.3 5.5 7C5.5 8.7 6.8 10 8.5 10Z" fill="#242424"/>
</svg>
