<svg width="24" height="24" viewBox="0 0 24 24" fill="none" xmlns="http://www.w3.org/2000/svg">
<path d="M4.50001 4.71436C3.76119 4.71436 3.05263 5.00785 2.53021 5.53027C2.00779 6.0527 1.71429 6.76125 1.71429 7.50007V16.5001C1.71429 17.2389 2.00779 17.9474 2.53021 18.4699C3.05263 18.9923 3.76119 19.2858 4.50001 19.2858H12.6429C13.3817 19.2858 14.0902 18.9923 14.6127 18.4699C15.1351 17.9474 15.4286 17.2389 15.4286 16.5001V7.50007C15.4286 6.76125 15.1351 6.0527 14.6127 5.53027C14.0902 5.00785 13.3817 4.71436 12.6429 4.71436H4.50001ZM19.8197 17.6941L16.7143 14.6512V9.42864L19.8103 6.31893C20.4849 5.64178 21.6412 6.11921 21.6412 7.07493V16.9286C21.6412 17.8784 20.4977 18.3584 19.8197 17.6941Z" fill="white"/>
</svg>
