<svg width="22" height="22" viewBox="0 0 22 22" fill="none" xmlns="http://www.w3.org/2000/svg">
<path d="M0 3.66667C0 2.69421 0.289731 1.76158 0.805456 1.07394C1.32118 0.386308 2.02065 0 2.75 0H19.25C19.9793 0 20.6788 0.386308 21.1945 1.07394C21.7103 1.76158 22 2.69421 22 3.66667V18.3333C22 19.3058 21.7103 20.2384 21.1945 20.9261C20.6788 21.6137 19.9793 22 19.25 22H2.75C2.02065 22 1.32118 21.6137 0.805456 20.9261C0.289731 20.2384 0 19.3058 0 18.3333V3.66667ZM3.4375 5.5C3.25516 5.5 3.0803 5.59658 2.95136 5.76849C2.82243 5.94039 2.75 6.17355 2.75 6.41667V8.25C2.75 8.49312 2.82243 8.72627 2.95136 8.89818C3.0803 9.07009 3.25516 9.16667 3.4375 9.16667H6.1875C6.36984 9.16667 6.5447 9.07009 6.67364 8.89818C6.80257 8.72627 6.875 8.49312 6.875 8.25V6.41667C6.875 6.17355 6.80257 5.94039 6.67364 5.76849C6.5447 5.59658 6.36984 5.5 6.1875 5.5H3.4375ZM3.4375 11C3.25516 11 3.0803 11.0966 2.95136 11.2685C2.82243 11.4404 2.75 11.6736 2.75 11.9167C2.75 12.1598 2.82243 12.3929 2.95136 12.5648C3.0803 12.7368 3.25516 12.8333 3.4375 12.8333H10.3125C10.4948 12.8333 10.6697 12.7368 10.7986 12.5648C10.9276 12.3929 11 12.1598 11 11.9167C11 11.6736 10.9276 11.4404 10.7986 11.2685C10.6697 11.0966 10.4948 11 10.3125 11H3.4375ZM3.4375 14.6667C3.25516 14.6667 3.0803 14.7632 2.95136 14.9352C2.82243 15.1071 2.75 15.3402 2.75 15.5833C2.75 15.8264 2.82243 16.0596 2.95136 16.2315C3.0803 16.4034 3.25516 16.5 3.4375 16.5H4.8125C4.99484 16.5 5.1697 16.4034 5.29864 16.2315C5.42757 16.0596 5.5 15.8264 5.5 15.5833C5.5 15.3402 5.42757 15.1071 5.29864 14.9352C5.1697 14.7632 4.99484 14.6667 4.8125 14.6667H3.4375ZM7.5625 14.6667C7.38016 14.6667 7.2053 14.7632 7.07636 14.9352C6.94743 15.1071 6.875 15.3402 6.875 15.5833C6.875 15.8264 6.94743 16.0596 7.07636 16.2315C7.2053 16.4034 7.38016 16.5 7.5625 16.5H8.9375C9.11984 16.5 9.29471 16.4034 9.42364 16.2315C9.55257 16.0596 9.625 15.8264 9.625 15.5833C9.625 15.3402 9.55257 15.1071 9.42364 14.9352C9.29471 14.7632 9.11984 14.6667 8.9375 14.6667H7.5625ZM11.6875 14.6667C11.5052 14.6667 11.3303 14.7632 11.2014 14.9352C11.0724 15.1071 11 15.3402 11 15.5833C11 15.8264 11.0724 16.0596 11.2014 16.2315C11.3303 16.4034 11.5052 16.5 11.6875 16.5H13.0625C13.2448 16.5 13.4197 16.4034 13.5486 16.2315C13.6776 16.0596 13.75 15.8264 13.75 15.5833C13.75 15.3402 13.6776 15.1071 13.5486 14.9352C13.4197 14.7632 13.2448 14.6667 13.0625 14.6667H11.6875ZM15.8125 14.6667C15.6302 14.6667 15.4553 14.7632 15.3264 14.9352C15.1974 15.1071 15.125 15.3402 15.125 15.5833C15.125 15.8264 15.1974 16.0596 15.3264 16.2315C15.4553 16.4034 15.6302 16.5 15.8125 16.5H17.1875C17.3698 16.5 17.5447 16.4034 17.6736 16.2315C17.8026 16.0596 17.875 15.8264 17.875 15.5833C17.875 15.3402 17.8026 15.1071 17.6736 14.9352C17.5447 14.7632 17.3698 14.6667 17.1875 14.6667H15.8125Z" fill="#348CFF"/>
</svg>
