<svg width="32" height="26" viewBox="0 0 32 26" fill="none" xmlns="http://www.w3.org/2000/svg">
<path d="M0 4.70381C0 3.60365 0.421427 2.54856 1.17157 1.77063C1.92172 0.9927 2.93913 0.555664 4 0.555664H28C29.0609 0.555664 30.0783 0.9927 30.8284 1.77063C31.5786 2.54856 32 3.60365 32 4.70381V21.2964C32 22.3966 31.5786 23.4517 30.8284 24.2296C30.0783 25.0075 29.0609 25.4446 28 25.4446H4C2.93913 25.4446 1.92172 25.0075 1.17157 24.2296C0.421427 23.4517 0 22.3966 0 21.2964V4.70381ZM5 6.77789C4.73478 6.77789 4.48043 6.88715 4.29289 7.08163C4.10536 7.27611 4 7.53988 4 7.81492V9.889C4 10.164 4.10536 10.4278 4.29289 10.6223C4.48043 10.8168 4.73478 10.926 5 10.926H9C9.26522 10.926 9.51957 10.8168 9.70711 10.6223C9.89464 10.4278 10 10.164 10 9.889V7.81492C10 7.53988 9.89464 7.27611 9.70711 7.08163C9.51957 6.88715 9.26522 6.77789 9 6.77789H5ZM5 13.0001C4.73478 13.0001 4.48043 13.1094 4.29289 13.3038C4.10536 13.4983 4 13.7621 4 14.0371C4 14.3122 4.10536 14.576 4.29289 14.7704C4.48043 14.9649 4.73478 15.0742 5 15.0742H15C15.2652 15.0742 15.5196 14.9649 15.7071 14.7704C15.8946 14.576 16 14.3122 16 14.0371C16 13.7621 15.8946 13.4983 15.7071 13.3038C15.5196 13.1094 15.2652 13.0001 15 13.0001H5ZM5 17.1483C4.73478 17.1483 4.48043 17.2575 4.29289 17.452C4.10536 17.6465 4 17.9103 4 18.1853C4 18.4603 4.10536 18.7241 4.29289 18.9186C4.48043 19.1131 4.73478 19.2223 5 19.2223H7C7.26522 19.2223 7.51957 19.1131 7.70711 18.9186C7.89464 18.7241 8 18.4603 8 18.1853C8 17.9103 7.89464 17.6465 7.70711 17.452C7.51957 17.2575 7.26522 17.1483 7 17.1483H5ZM11 17.1483C10.7348 17.1483 10.4804 17.2575 10.2929 17.452C10.1054 17.6465 10 17.9103 10 18.1853C10 18.4603 10.1054 18.7241 10.2929 18.9186C10.4804 19.1131 10.7348 19.2223 11 19.2223H13C13.2652 19.2223 13.5196 19.1131 13.7071 18.9186C13.8946 18.7241 14 18.4603 14 18.1853C14 17.9103 13.8946 17.6465 13.7071 17.452C13.5196 17.2575 13.2652 17.1483 13 17.1483H11ZM17 17.1483C16.7348 17.1483 16.4804 17.2575 16.2929 17.452C16.1054 17.6465 16 17.9103 16 18.1853C16 18.4603 16.1054 18.7241 16.2929 18.9186C16.4804 19.1131 16.7348 19.2223 17 19.2223H19C19.2652 19.2223 19.5196 19.1131 19.7071 18.9186C19.8946 18.7241 20 18.4603 20 18.1853C20 17.9103 19.8946 17.6465 19.7071 17.452C19.5196 17.2575 19.2652 17.1483 19 17.1483H17ZM23 17.1483C22.7348 17.1483 22.4804 17.2575 22.2929 17.452C22.1054 17.6465 22 17.9103 22 18.1853C22 18.4603 22.1054 18.7241 22.2929 18.9186C22.4804 19.1131 22.7348 19.2223 23 19.2223H25C25.2652 19.2223 25.5196 19.1131 25.7071 18.9186C25.8946 18.7241 26 18.4603 26 18.1853C26 17.9103 25.8946 17.6465 25.7071 17.452C25.5196 17.2575 25.2652 17.1483 25 17.1483H23Z" fill="#E0B315"/>
</svg>
