<svg width="40" height="40" viewBox="0 0 40 40" fill="none" xmlns="http://www.w3.org/2000/svg">
<circle cx="20" cy="20" r="19" fill="url(#paint0_linear_1201_4784)" stroke="white" stroke-width="2"/>
<path d="M23.1081 21.1085C23.2322 21.1085 23.6977 21.317 24.5046 21.7339C25.3114 22.1507 25.7387 22.4018 25.7865 22.4871C25.8056 22.5345 25.8151 22.6055 25.8151 22.7003C25.8151 23.0129 25.7339 23.373 25.5716 23.7804C25.4188 24.1499 25.0799 24.4602 24.5547 24.7112C24.0295 24.9623 23.5425 25.0879 23.0938 25.0879C22.5495 25.0879 21.6424 24.7941 20.3724 24.2067C19.4366 23.7804 18.625 23.2214 17.9375 22.5297C17.25 21.8381 16.5434 20.9617 15.8177 19.9005C15.1302 18.8867 14.7912 17.9677 14.8008 17.1434V17.0297C14.8294 16.1675 15.1827 15.419 15.8607 14.7842C16.0898 14.5758 16.3381 14.4716 16.6055 14.4716C16.6628 14.4716 16.7487 14.4787 16.8633 14.4929C16.9779 14.5071 17.0686 14.5142 17.1354 14.5142C17.3168 14.5142 17.4434 14.545 17.515 14.6066C17.5866 14.6682 17.6606 14.7984 17.737 14.9974C17.8134 15.1869 17.9709 15.6038 18.2096 16.2481C18.4484 16.8923 18.5677 17.2476 18.5677 17.314C18.5677 17.5129 18.403 17.7853 18.0736 18.1311C17.7441 18.477 17.5794 18.6972 17.5794 18.792C17.5794 18.8583 17.6033 18.9294 17.651 19.0052C17.9757 19.6968 18.4627 20.3458 19.112 20.9522C19.6467 21.4544 20.3676 21.9328 21.2747 22.3876C21.3893 22.4539 21.4944 22.4871 21.5898 22.4871C21.7331 22.4871 21.9909 22.2573 22.3633 21.7978C22.7357 21.3383 22.9839 21.1085 23.1081 21.1085ZM20.2005 28.6408C21.4132 28.6408 22.5757 28.404 23.6882 27.9302C24.8006 27.4565 25.7578 26.8217 26.5599 26.0258C27.362 25.23 28.0017 24.2801 28.4792 23.1764C28.9566 22.0726 29.1953 20.919 29.1953 19.7158C29.1953 18.5125 28.9566 17.359 28.4792 16.2552C28.0017 15.1514 27.362 14.2016 26.5599 13.4057C25.7578 12.6098 24.8006 11.975 23.6882 11.5013C22.5757 11.0276 21.4132 10.7907 20.2005 10.7907C18.9878 10.7907 17.8253 11.0276 16.7129 11.5013C15.6005 11.975 14.6432 12.6098 13.8411 13.4057C13.0391 14.2016 12.3993 15.1514 11.9219 16.2552C11.4444 17.359 11.2057 18.5125 11.2057 19.7158C11.2057 21.6391 11.7786 23.3824 12.9245 24.9457L11.793 28.2571L15.2591 27.1628C16.7678 28.1481 18.4149 28.6408 20.2005 28.6408ZM20.2005 9C21.6615 9 23.0579 9.28424 24.39 9.85271C25.722 10.4212 26.8702 11.1839 27.8346 12.1408C28.799 13.0978 29.5677 14.2371 30.1406 15.5588C30.7135 16.8805 31 18.2661 31 19.7158C31 21.1654 30.7135 22.551 30.1406 23.8727C29.5677 25.1944 28.799 26.3338 27.8346 27.2907C26.8702 28.2476 25.722 29.0103 24.39 29.5788C23.0579 30.1473 21.6615 30.4315 20.2005 30.4315C18.3385 30.4315 16.5959 29.9862 14.9727 29.0956L9 31L10.9479 25.2442C9.91667 23.5577 9.40104 21.7149 9.40104 19.7158C9.40104 18.2661 9.6875 16.8805 10.2604 15.5588C10.8333 14.2371 11.602 13.0978 12.5664 12.1408C13.5308 11.1839 14.679 10.4212 16.0111 9.85271C17.3431 9.28424 18.7396 9 20.2005 9Z" fill="white"/>
<defs>
<linearGradient id="paint0_linear_1201_4784" x1="20" y1="2" x2="20" y2="38" gradientUnits="userSpaceOnUse">
<stop stop-color="#57D063"/>
<stop offset="1" stop-color="#2DB842"/>
</linearGradient>
</defs>
</svg>
